<?xml version="1.0" encoding="UTF-8" standalone="no"?>
<!DOCTYPE svg PUBLIC "-//W3C//DTD SVG 1.1//EN"
 "http://www.w3.org/Graphics/SVG/1.1/DTD/svg11.dtd">
<!-- Generated by graphviz version 2.40.1 (20161225.0304)
 -->
<!-- Title: a_graph Pages: 1 -->
<svg width="194pt" height="200pt"
 viewBox="0.00 0.00 194.00 200.00" xmlns="http://www.w3.org/2000/svg" xmlns:xlink="http://www.w3.org/1999/xlink">
<g id="graph0" class="graph" transform="scale(1 1) rotate(0) translate(4 196)">
<title>a_graph</title>
<polygon fill="#ffffff" stroke="transparent" points="-4,4 -4,-196 190,-196 190,4 -4,4"/>
<!-- T208979 -->
<g id="node1" class="node">
<title>T208979</title>
<polygon fill="none" stroke="#0058ad" points="113.5,-162.5 113.5,-191.5 177.5,-191.5 177.5,-162.5 113.5,-162.5"/>
<text text-anchor="middle" x="145.5" y="-173.3" font-family="Times,serif" font-size="14.00" fill="#0058ad">a 2412 1</text>
</g>
<!-- T208983 -->
<g id="node3" class="node">
<title>T208983</title>
<polygon fill="none" stroke="#0058ad" points="0,-81.5 0,-110.5 135,-110.5 135,-81.5 0,-81.5"/>
<text text-anchor="middle" x="35.5" y="-92.3" font-family="Times,serif" font-size="14.00" fill="#0058ad">r 2413 [2]</text>
<polyline fill="none" stroke="#0058ad" points="71,-81.5 71,-110.5 "/>
<text text-anchor="middle" x="103" y="-92.3" font-family="Times,serif" font-size="14.00" fill="#0058ad">a 2412 2</text>
</g>
<!-- T208979&#45;&gt;T208983 -->
<g id="edge1" class="edge">
<title>T208979:f0&#45;&gt;T208983:f1</title>
<path fill="none" stroke="#c02700" d="M129.3818,-162.404C119.5733,-152.1478 108.2606,-137.411 104.6616,-121.2325"/>
<polygon fill="#c02700" stroke="#c02700" points="108.1057,-120.5413 103.5,-111 101.1504,-121.331 108.1057,-120.5413"/>
<text text-anchor="middle" x="123.5" y="-132.8" font-family="Times,serif" font-size="14.00" fill="#c02700">ww</text>
</g>
<!-- T208981 -->
<g id="node2" class="node">
<title>T208981</title>
<polygon fill="none" stroke="#0058ad" points="57,-.5 57,-29.5 186,-29.5 186,-.5 57,-.5"/>
<text text-anchor="middle" x="89" y="-11.3" font-family="Times,serif" font-size="14.00" fill="#0058ad">a 2413 4</text>
<polyline fill="none" stroke="#0058ad" points="121,-.5 121,-29.5 "/>
<text text-anchor="middle" x="153.5" y="-11.3" font-family="Times,serif" font-size="14.00" fill="#0058ad">r 2412 []</text>
</g>
<!-- T208981&#45;&gt;T208979 -->
<g id="edge2" class="edge">
<title>T208981:f1&#45;&gt;T208979:f0</title>
<path fill="none" stroke="#5b00c0" d="M153.5,-30C153.5,-73.0602 150.0351,-123.1109 147.6659,-152.3012"/>
<polygon fill="#5b00c0" stroke="#5b00c0" points="144.1662,-152.1524 146.821,-162.4092 151.1419,-152.7355 144.1662,-152.1524"/>
<text text-anchor="middle" x="159" y="-92.3" font-family="Times,serif" font-size="14.00" fill="#5b00c0">rw</text>
</g>
<!-- T208983&#45;&gt;T208981 -->
<g id="edge3" class="edge">
<title>T208983:f0&#45;&gt;T208981:f0</title>
<path fill="none" stroke="#5b00c0" d="M35.5,-81C35.5,-52.2685 76.4412,-59.8976 86.3567,-39.9722"/>
<polygon fill="#5b00c0" stroke="#5b00c0" points="89.8205,-40.5122 88.5,-30 82.9768,-39.0413 89.8205,-40.5122"/>
<text text-anchor="middle" x="86" y="-51.8" font-family="Times,serif" font-size="14.00" fill="#5b00c0">rw</text>
</g>
</g>
</svg>
