<?xml version="1.0" encoding="UTF-8" standalone="no"?>
<!DOCTYPE svg PUBLIC "-//W3C//DTD SVG 1.1//EN"
 "http://www.w3.org/Graphics/SVG/1.1/DTD/svg11.dtd">
<!-- Generated by graphviz version 2.40.1 (20161225.0304)
 -->
<!-- Title: a_graph Pages: 1 -->
<svg width="142pt" height="119pt"
 viewBox="0.00 0.00 142.00 119.00" xmlns="http://www.w3.org/2000/svg" xmlns:xlink="http://www.w3.org/1999/xlink">
<g id="graph0" class="graph" transform="scale(1 1) rotate(0) translate(4 115)">
<title>a_graph</title>
<polygon fill="#ffffff" stroke="transparent" points="-4,4 -4,-115 138,-115 138,4 -4,4"/>
<!-- T75891 -->
<g id="node1" class="node">
<title>T75891</title>
<polygon fill="none" stroke="#0058ad" points="0,-81.5 0,-110.5 132,-110.5 132,-81.5 0,-81.5"/>
<text text-anchor="middle" x="37.5" y="-92.3" font-family="Times,serif" font-size="14.00" fill="#0058ad">r 879 [1 3]</text>
<polyline fill="none" stroke="#0058ad" points="75,-81.5 75,-110.5 "/>
<text text-anchor="middle" x="103.5" y="-92.3" font-family="Times,serif" font-size="14.00" fill="#0058ad">a 880 2</text>
</g>
<!-- T75898 -->
<g id="node2" class="node">
<title>T75898</title>
<polygon fill="none" stroke="#0058ad" points="12,-.5 12,-29.5 134,-29.5 134,-.5 12,-.5"/>
<text text-anchor="middle" x="40.5" y="-11.3" font-family="Times,serif" font-size="14.00" fill="#0058ad">a 879 6</text>
<polyline fill="none" stroke="#0058ad" points="69,-.5 69,-29.5 "/>
<text text-anchor="middle" x="101.5" y="-11.3" font-family="Times,serif" font-size="14.00" fill="#0058ad">r 880 [1]</text>
</g>
<!-- T75891&#45;&gt;T75898 -->
<g id="edge1" class="edge">
<title>T75891:f0&#45;&gt;T75898:f0</title>
<path fill="none" stroke="#5b00c0" d="M37,-81C37,-62.1967 39.0574,-55.1325 39.7646,-40.3645"/>
<polygon fill="#5b00c0" stroke="#5b00c0" points="43.2719,-40.0769 40,-30 36.2737,-39.9179 43.2719,-40.0769"/>
<text text-anchor="middle" x="47.5" y="-51.8" font-family="Times,serif" font-size="14.00" fill="#5b00c0">rw</text>
</g>
<!-- T75898&#45;&gt;T75891 -->
<g id="edge2" class="edge">
<title>T75898:f1&#45;&gt;T75891:f1</title>
<path fill="none" stroke="#5b00c0" d="M102,-30C102,-48.7853 103.3716,-55.8762 103.8431,-70.6416"/>
<polygon fill="#5b00c0" stroke="#5b00c0" points="100.3488,-71.0542 104,-81 107.348,-70.9481 100.3488,-71.0542"/>
<text text-anchor="middle" x="110.5" y="-51.8" font-family="Times,serif" font-size="14.00" fill="#5b00c0">rw</text>
</g>
</g>
</svg>
