<?xml version="1.0" encoding="UTF-8" standalone="no"?>
<!DOCTYPE svg PUBLIC "-//W3C//DTD SVG 1.1//EN"
 "http://www.w3.org/Graphics/SVG/1.1/DTD/svg11.dtd">
<!-- Generated by graphviz version 2.40.1 (20161225.0304)
 -->
<!-- Title: a_graph Pages: 1 -->
<svg width="479pt" height="200pt"
 viewBox="0.00 0.00 479.00 200.00" xmlns="http://www.w3.org/2000/svg" xmlns:xlink="http://www.w3.org/1999/xlink">
<g id="graph0" class="graph" transform="scale(1 1) rotate(0) translate(4 196)">
<title>a_graph</title>
<polygon fill="#ffffff" stroke="transparent" points="-4,4 -4,-196 475,-196 475,4 -4,4"/>
<!-- T9749 -->
<g id="node1" class="node">
<title>T9749</title>
<polygon fill="none" stroke="#0058ad" points="79,-162.5 79,-191.5 471,-191.5 471,-162.5 79,-162.5"/>
<text text-anchor="middle" x="107.5" y="-173.3" font-family="Times,serif" font-size="14.00" fill="#0058ad">a 117 7</text>
<polyline fill="none" stroke="#0058ad" points="136,-162.5 136,-191.5 "/>
<text text-anchor="middle" x="303.5" y="-173.3" font-family="Times,serif" font-size="14.00" fill="#0058ad">r 110 [3 4 5 6 7 8 9 10 11 13 14 15 16 17 18 19 20 21 22]</text>
</g>
<!-- T9745 -->
<g id="node3" class="node">
<title>T9745</title>
<polygon fill="none" stroke="#0058ad" points="0,-81.5 0,-110.5 150,-110.5 150,-81.5 0,-81.5"/>
<text text-anchor="middle" x="32" y="-92.3" font-family="Times,serif" font-size="14.00" fill="#0058ad">a 110 23</text>
<polyline fill="none" stroke="#0058ad" points="64,-81.5 64,-110.5 "/>
<text text-anchor="middle" x="107" y="-92.3" font-family="Times,serif" font-size="14.00" fill="#0058ad">r 117 [1 3 5]</text>
</g>
<!-- T9749&#45;&gt;T9745 -->
<g id="edge1" class="edge">
<title>T9749:f1&#45;&gt;T9745:f0</title>
<path fill="none" stroke="#5b00c0" d="M304,-162C304,-160.2997 91.0756,-123.1892 42.0032,-113.3279"/>
<polygon fill="#5b00c0" stroke="#5b00c0" points="42.5331,-109.8578 32,-111 40.9464,-116.6756 42.5331,-109.8578"/>
<text text-anchor="middle" x="215.5" y="-132.8" font-family="Times,serif" font-size="14.00" fill="#5b00c0">rw</text>
</g>
<!-- T9754 -->
<g id="node2" class="node">
<title>T9754</title>
<polygon fill="none" stroke="#0058ad" points="59,-.5 59,-29.5 209,-29.5 209,-.5 59,-.5"/>
<text text-anchor="middle" x="91" y="-11.3" font-family="Times,serif" font-size="14.00" fill="#0058ad">a 110 24</text>
<polyline fill="none" stroke="#0058ad" points="123,-.5 123,-29.5 "/>
<text text-anchor="middle" x="166" y="-11.3" font-family="Times,serif" font-size="14.00" fill="#0058ad">r 117 [1 3 5]</text>
</g>
<!-- T9754&#45;&gt;T9749 -->
<g id="edge2" class="edge">
<title>T9754:f1&#45;&gt;T9749:f0</title>
<path fill="none" stroke="#5b00c0" d="M166,-30C166,-66.1342 174.2536,-78.2432 159,-111 150.2441,-129.8031 140.8635,-129.5328 126,-144 121.0507,-148.8173 115.2805,-150.1589 111.409,-152.8889"/>
<polygon fill="#5b00c0" stroke="#5b00c0" points="108.2054,-151.474 107,-162 114.5065,-154.5231 108.2054,-151.474"/>
<text text-anchor="middle" x="174.5" y="-92.3" font-family="Times,serif" font-size="14.00" fill="#5b00c0">rw</text>
</g>
<!-- T9745&#45;&gt;T9749 -->
<g id="edge4" class="edge">
<title>T9745:f1&#45;&gt;T9749:f0</title>
<path fill="none" stroke="#5b00c0" d="M107,-111C107,-129.7708 107,-136.8832 107,-151.6465"/>
<polygon fill="#5b00c0" stroke="#5b00c0" points="103.5001,-152 107,-162 110.5001,-152 103.5001,-152"/>
<text text-anchor="middle" x="114.5" y="-132.8" font-family="Times,serif" font-size="14.00" fill="#5b00c0">rw</text>
</g>
<!-- T9745&#45;&gt;T9754 -->
<g id="edge3" class="edge">
<title>T9745:f0&#45;&gt;T9754:f0</title>
<path fill="none" stroke="#c02700" d="M32,-81C32,-53.1448 28.3748,-23.2704 49.0143,-16.4436"/>
<polygon fill="#c02700" stroke="#c02700" points="49.6037,-19.8949 59,-15 48.6021,-12.9669 49.6037,-19.8949"/>
<text text-anchor="middle" x="42" y="-51.8" font-family="Times,serif" font-size="14.00" fill="#c02700">ww</text>
</g>
</g>
</svg>
