<?xml version="1.0" encoding="UTF-8" standalone="no"?>
<!DOCTYPE svg PUBLIC "-//W3C//DTD SVG 1.1//EN"
 "http://www.w3.org/Graphics/SVG/1.1/DTD/svg11.dtd">
<!-- Generated by graphviz version 2.40.1 (20161225.0304)
 -->
<!-- Title: a_graph Pages: 1 -->
<svg width="188pt" height="119pt"
 viewBox="0.00 0.00 187.50 119.00" xmlns="http://www.w3.org/2000/svg" xmlns:xlink="http://www.w3.org/1999/xlink">
<g id="graph0" class="graph" transform="scale(1 1) rotate(0) translate(4 115)">
<title>a_graph</title>
<polygon fill="#ffffff" stroke="transparent" points="-4,4 -4,-115 183.5,-115 183.5,4 -4,4"/>
<!-- T229653 -->
<g id="node1" class="node">
<title>T229653</title>
<polygon fill="none" stroke="#0058ad" points="26.5,-81.5 26.5,-110.5 179.5,-110.5 179.5,-81.5 26.5,-81.5"/>
<text text-anchor="middle" x="62" y="-92.3" font-family="Times,serif" font-size="14.00" fill="#0058ad">a 2650 11</text>
<polyline fill="none" stroke="#0058ad" points="97.5,-81.5 97.5,-110.5 "/>
<text text-anchor="middle" x="138.5" y="-92.3" font-family="Times,serif" font-size="14.00" fill="#0058ad">r 2651 [1 3]</text>
</g>
<!-- T229659 -->
<g id="node2" class="node">
<title>T229659</title>
<polygon fill="none" stroke="#0058ad" points="0,-.5 0,-29.5 174,-29.5 174,-.5 0,-.5"/>
<text text-anchor="middle" x="55" y="-11.3" font-family="Times,serif" font-size="14.00" fill="#0058ad">r 2650 [1 4 6 10]</text>
<polyline fill="none" stroke="#0058ad" points="110,-.5 110,-29.5 "/>
<text text-anchor="middle" x="142" y="-11.3" font-family="Times,serif" font-size="14.00" fill="#0058ad">a 2651 6</text>
</g>
<!-- T229653&#45;&gt;T229659 -->
<g id="edge1" class="edge">
<title>T229653:f1&#45;&gt;T229659:f1</title>
<path fill="none" stroke="#5b00c0" d="M139,-81C139,-62.1967 141.0574,-55.1325 141.7646,-40.3645"/>
<polygon fill="#5b00c0" stroke="#5b00c0" points="145.2719,-40.0769 142,-30 138.2737,-39.9179 145.2719,-40.0769"/>
<text text-anchor="middle" x="148.5" y="-51.8" font-family="Times,serif" font-size="14.00" fill="#5b00c0">rw</text>
</g>
<!-- T229659&#45;&gt;T229653 -->
<g id="edge2" class="edge">
<title>T229659:f0&#45;&gt;T229653:f0</title>
<path fill="none" stroke="#5b00c0" d="M55,-30C55,-49.1256 59.8915,-55.9262 61.4966,-71.0076"/>
<polygon fill="#5b00c0" stroke="#5b00c0" points="58.0012,-71.1888 62,-81 64.9923,-70.8365 58.0012,-71.1888"/>
<text text-anchor="middle" x="68.5" y="-51.8" font-family="Times,serif" font-size="14.00" fill="#5b00c0">rw</text>
</g>
</g>
</svg>
