<?xml version="1.0" encoding="UTF-8" standalone="no"?>
<!DOCTYPE svg PUBLIC "-//W3C//DTD SVG 1.1//EN"
 "http://www.w3.org/Graphics/SVG/1.1/DTD/svg11.dtd">
<!-- Generated by graphviz version 2.40.1 (20161225.0304)
 -->
<!-- Title: a_graph Pages: 1 -->
<svg width="241pt" height="200pt"
 viewBox="0.00 0.00 241.00 200.00" xmlns="http://www.w3.org/2000/svg" xmlns:xlink="http://www.w3.org/1999/xlink">
<g id="graph0" class="graph" transform="scale(1 1) rotate(0) translate(4 196)">
<title>a_graph</title>
<polygon fill="#ffffff" stroke="transparent" points="-4,4 -4,-196 237,-196 237,4 -4,4"/>
<!-- T125535 -->
<g id="node1" class="node">
<title>T125535</title>
<polygon fill="none" stroke="#0058ad" points="127,-162.5 127,-191.5 191,-191.5 191,-162.5 127,-162.5"/>
<text text-anchor="middle" x="159" y="-173.3" font-family="Times,serif" font-size="14.00" fill="#0058ad">a 1452 1</text>
</g>
<!-- T125541 -->
<g id="node2" class="node">
<title>T125541</title>
<polygon fill="none" stroke="#0058ad" points="0,-81.5 0,-110.5 174,-110.5 174,-81.5 0,-81.5"/>
<text text-anchor="middle" x="35.5" y="-92.3" font-family="Times,serif" font-size="14.00" fill="#0058ad">r 1452 [1]</text>
<polyline fill="none" stroke="#0058ad" points="71,-81.5 71,-110.5 "/>
<text text-anchor="middle" x="122.5" y="-92.3" font-family="Times,serif" font-size="14.00" fill="#0058ad">r 1451 [1 3 4 7]</text>
</g>
<!-- T125535&#45;&gt;T125541 -->
<g id="edge1" class="edge">
<title>T125535:f0&#45;&gt;T125541:f0</title>
<path fill="none" stroke="#c000a5" d="M128.3483,-162.3485C99.8043,-148.5212 59.2303,-128.3497 42.5773,-117.5755"/>
<polygon fill="#c000a5" stroke="#c000a5" points="44.8467,-114.9107 35,-111 40.2588,-120.1976 44.8467,-114.9107"/>
<text text-anchor="middle" x="97.5" y="-132.8" font-family="Times,serif" font-size="14.00" fill="#c000a5">wr</text>
</g>
<!-- T125543 -->
<g id="node3" class="node">
<title>T125543</title>
<polygon fill="none" stroke="#0058ad" points="97,-.5 97,-29.5 233,-29.5 233,-.5 97,-.5"/>
<text text-anchor="middle" x="132.5" y="-11.3" font-family="Times,serif" font-size="14.00" fill="#0058ad">a 1451 12</text>
<polyline fill="none" stroke="#0058ad" points="168,-.5 168,-29.5 "/>
<text text-anchor="middle" x="200.5" y="-11.3" font-family="Times,serif" font-size="14.00" fill="#0058ad">r 1452 []</text>
</g>
<!-- T125541&#45;&gt;T125543 -->
<g id="edge2" class="edge">
<title>T125541:f1&#45;&gt;T125543:f0</title>
<path fill="none" stroke="#5b00c0" d="M123,-81C123,-61.7593 129.2891,-55.1323 131.3527,-40.0305"/>
<polygon fill="#5b00c0" stroke="#5b00c0" points="134.8487,-40.2047 132,-30 127.8632,-39.7538 134.8487,-40.2047"/>
<text text-anchor="middle" x="136.5" y="-51.8" font-family="Times,serif" font-size="14.00" fill="#5b00c0">rw</text>
</g>
<!-- T125543&#45;&gt;T125535 -->
<g id="edge3" class="edge">
<title>T125543:f1&#45;&gt;T125535:f0</title>
<path fill="none" stroke="#5b00c0" d="M201,-30C201,-74.8737 182.6817,-124.5907 170.2406,-153.1822"/>
<polygon fill="#5b00c0" stroke="#5b00c0" points="167.0181,-151.8147 166.1247,-162.3718 173.4066,-154.676 167.0181,-151.8147"/>
<text text-anchor="middle" x="201.5" y="-92.3" font-family="Times,serif" font-size="14.00" fill="#5b00c0">rw</text>
</g>
</g>
</svg>
