<?xml version="1.0" encoding="UTF-8" standalone="no"?>
<!DOCTYPE svg PUBLIC "-//W3C//DTD SVG 1.1//EN"
 "http://www.w3.org/Graphics/SVG/1.1/DTD/svg11.dtd">
<!-- Generated by graphviz version 2.40.1 (20161225.0304)
 -->
<!-- Title: a_graph Pages: 1 -->
<svg width="381pt" height="200pt"
 viewBox="0.00 0.00 381.00 200.00" xmlns="http://www.w3.org/2000/svg" xmlns:xlink="http://www.w3.org/1999/xlink">
<g id="graph0" class="graph" transform="scale(1 1) rotate(0) translate(4 196)">
<title>a_graph</title>
<polygon fill="#ffffff" stroke="transparent" points="-4,4 -4,-196 377,-196 377,4 -4,4"/>
<!-- T13495 -->
<g id="node1" class="node">
<title>T13495</title>
<polygon fill="none" stroke="#0058ad" points="50,-162.5 50,-191.5 373,-191.5 373,-162.5 50,-162.5"/>
<text text-anchor="middle" x="106.5" y="-173.3" font-family="Times,serif" font-size="14.00" fill="#0058ad">r 159 [1 2 3 8 11]</text>
<polyline fill="none" stroke="#0058ad" points="163,-162.5 163,-191.5 "/>
<text text-anchor="middle" x="268" y="-173.3" font-family="Times,serif" font-size="14.00" fill="#0058ad">r 158 [1 3 6 7 8 11 12 14 20 21 22]</text>
</g>
<!-- T13503 -->
<g id="node3" class="node">
<title>T13503</title>
<polygon fill="none" stroke="#0058ad" points="0,-81.5 0,-110.5 257,-110.5 257,-81.5 0,-81.5"/>
<text text-anchor="middle" x="32" y="-92.3" font-family="Times,serif" font-size="14.00" fill="#0058ad">a 159 15</text>
<polyline fill="none" stroke="#0058ad" points="64,-81.5 64,-110.5 "/>
<text text-anchor="middle" x="160.5" y="-92.3" font-family="Times,serif" font-size="14.00" fill="#0058ad">r 158 [1 3 6 7 8 11 12 14 20 21]</text>
</g>
<!-- T13495&#45;&gt;T13503 -->
<g id="edge1" class="edge">
<title>T13495:f0&#45;&gt;T13503:f0</title>
<path fill="none" stroke="#5b00c0" d="M49.5,-177C22.4208,-177 29.2986,-148.7653 31.1271,-121.1095"/>
<polygon fill="#5b00c0" stroke="#5b00c0" points="34.6289,-121.1223 31.5,-111 27.6336,-120.8641 34.6289,-121.1223"/>
<text text-anchor="middle" x="38" y="-132.8" font-family="Times,serif" font-size="14.00" fill="#5b00c0">rw</text>
</g>
<!-- T13490 -->
<g id="node2" class="node">
<title>T13490</title>
<polygon fill="none" stroke="#0058ad" points="138,-.5 138,-29.5 259,-29.5 259,-.5 138,-.5"/>
<text text-anchor="middle" x="166.5" y="-11.3" font-family="Times,serif" font-size="14.00" fill="#0058ad">a 157 9</text>
<polyline fill="none" stroke="#0058ad" points="195,-.5 195,-29.5 "/>
<text text-anchor="middle" x="227" y="-11.3" font-family="Times,serif" font-size="14.00" fill="#0058ad">a 158 22</text>
</g>
<!-- T13490&#45;&gt;T13495 -->
<g id="edge2" class="edge">
<title>T13490:f1&#45;&gt;T13495:f1</title>
<path fill="none" stroke="#c000a5" d="M259.5,-15C321.6317,-15 273.9194,-88.4728 268.9134,-151.9166"/>
<polygon fill="#c000a5" stroke="#c000a5" points="265.4127,-151.865 268.5,-162 272.4068,-152.1518 265.4127,-151.865"/>
<text text-anchor="middle" x="292" y="-92.3" font-family="Times,serif" font-size="14.00" fill="#c000a5">wr</text>
</g>
<!-- T13503&#45;&gt;T13490 -->
<g id="edge3" class="edge">
<title>T13503:f1&#45;&gt;T13490:f1</title>
<path fill="none" stroke="#5b00c0" d="M160.5,-81C160.5,-47.5238 214.1125,-63.0746 225.4214,-39.9401"/>
<polygon fill="#5b00c0" stroke="#5b00c0" points="228.8789,-40.5047 227.5,-30 222.0271,-39.0718 228.8789,-40.5047"/>
<text text-anchor="middle" x="226" y="-51.8" font-family="Times,serif" font-size="14.00" fill="#5b00c0">rw</text>
</g>
</g>
</svg>
