<?xml version="1.0" encoding="UTF-8" standalone="no"?>
<!DOCTYPE svg PUBLIC "-//W3C//DTD SVG 1.1//EN"
 "http://www.w3.org/Graphics/SVG/1.1/DTD/svg11.dtd">
<!-- Generated by graphviz version 2.40.1 (20161225.0304)
 -->
<!-- Title: a_graph Pages: 1 -->
<svg width="416pt" height="200pt"
 viewBox="0.00 0.00 416.33 200.00" xmlns="http://www.w3.org/2000/svg" xmlns:xlink="http://www.w3.org/1999/xlink">
<g id="graph0" class="graph" transform="scale(1 1) rotate(0) translate(4 196)">
<title>a_graph</title>
<polygon fill="#ffffff" stroke="transparent" points="-4,4 -4,-196 412.3296,-196 412.3296,4 -4,4"/>
<!-- T2851 -->
<g id="node1" class="node">
<title>T2851</title>
<polygon fill="none" stroke="#0058ad" points="71.8296,-162.5 71.8296,-191.5 387.8296,-191.5 387.8296,-162.5 71.8296,-162.5"/>
<text text-anchor="middle" x="100.3296" y="-173.3" font-family="Times,serif" font-size="14.00" fill="#0058ad">a 38 12</text>
<polyline fill="none" stroke="#0058ad" points="128.8296,-162.5 128.8296,-191.5 "/>
<text text-anchor="middle" x="258.3296" y="-173.3" font-family="Times,serif" font-size="14.00" fill="#0058ad">r 35 [1 2 3 4 6 8 9 11 12 14 15 17 18 19 20]</text>
</g>
<!-- T2847 -->
<g id="node3" class="node">
<title>T2847</title>
<polygon fill="none" stroke="#0058ad" points="51.8296,-81.5 51.8296,-110.5 367.8296,-110.5 367.8296,-81.5 51.8296,-81.5"/>
<text text-anchor="middle" x="181.3296" y="-92.3" font-family="Times,serif" font-size="14.00" fill="#0058ad">r 35 [1 2 3 4 6 8 9 11 12 14 15 17 18 19 20]</text>
<polyline fill="none" stroke="#0058ad" points="310.8296,-81.5 310.8296,-110.5 "/>
<text text-anchor="middle" x="339.3296" y="-92.3" font-family="Times,serif" font-size="14.00" fill="#0058ad">a 35 22</text>
</g>
<!-- T2851&#45;&gt;T2847 -->
<g id="edge1" class="edge">
<title>T2851:f1&#45;&gt;T2847:f1</title>
<path fill="none" stroke="#5b00c0" d="M258.8296,-162C258.8296,-123.4468 325.354,-147.8244 337.8273,-121.0707"/>
<polygon fill="#5b00c0" stroke="#5b00c0" points="341.3123,-121.4906 339.8296,-111 334.4467,-120.1255 341.3123,-121.4906"/>
<text text-anchor="middle" x="336.3296" y="-132.8" font-family="Times,serif" font-size="14.00" fill="#5b00c0">rw</text>
</g>
<!-- T2849 -->
<g id="node2" class="node">
<title>T2849</title>
<polygon fill="none" stroke="#0058ad" points="43.3296,-.5 43.3296,-29.5 408.3296,-29.5 408.3296,-.5 43.3296,-.5"/>
<text text-anchor="middle" x="87.8296" y="-11.3" font-family="Times,serif" font-size="14.00" fill="#0058ad">r 38 [1 4 5 8]</text>
<polyline fill="none" stroke="#0058ad" points="132.3296,-.5 132.3296,-29.5 "/>
<text text-anchor="middle" x="270.3296" y="-11.3" font-family="Times,serif" font-size="14.00" fill="#0058ad">r 35 [1 2 3 4 6 8 9 11 12 14 15 17 18 19 20 22]</text>
</g>
<!-- T2849&#45;&gt;T2851 -->
<g id="edge2" class="edge">
<title>T2849:f0&#45;&gt;T2851:f0</title>
<path fill="none" stroke="#5b00c0" d="M42.8296,-15C-26.8863,-15 -3.8092,-162.1685 61.8406,-175.9655"/>
<polygon fill="#5b00c0" stroke="#5b00c0" points="61.5222,-179.4512 71.8296,-177 62.2434,-172.4884 61.5222,-179.4512"/>
<text text-anchor="middle" x="13.3296" y="-92.3" font-family="Times,serif" font-size="14.00" fill="#5b00c0">rw</text>
</g>
<!-- T2847&#45;&gt;T2849 -->
<g id="edge3" class="edge">
<title>T2847:f1&#45;&gt;T2849:f1</title>
<path fill="none" stroke="#c000a5" d="M339.8296,-81C339.8296,-46.8877 284.6168,-63.5095 272.9703,-40.0989"/>
<polygon fill="#c000a5" stroke="#c000a5" points="276.3273,-39.0568 270.8296,-30 269.4794,-40.5084 276.3273,-39.0568"/>
<text text-anchor="middle" x="336.3296" y="-51.8" font-family="Times,serif" font-size="14.00" fill="#c000a5">wr</text>
</g>
</g>
</svg>
