<?xml version="1.0" encoding="UTF-8" standalone="no"?>
<!DOCTYPE svg PUBLIC "-//W3C//DTD SVG 1.1//EN"
 "http://www.w3.org/Graphics/SVG/1.1/DTD/svg11.dtd">
<!-- Generated by graphviz version 2.40.1 (20161225.0304)
 -->
<!-- Title: a_graph Pages: 1 -->
<svg width="536pt" height="281pt"
 viewBox="0.00 0.00 536.00 281.00" xmlns="http://www.w3.org/2000/svg" xmlns:xlink="http://www.w3.org/1999/xlink">
<g id="graph0" class="graph" transform="scale(1 1) rotate(0) translate(4 277)">
<title>a_graph</title>
<polygon fill="#ffffff" stroke="transparent" points="-4,4 -4,-277 532,-277 532,4 -4,4"/>
<!-- T213003 -->
<g id="node1" class="node">
<title>T213003</title>
<polygon fill="none" stroke="#0058ad" points="154.5,-243.5 154.5,-272.5 338.5,-272.5 338.5,-243.5 154.5,-243.5"/>
<text text-anchor="middle" x="211" y="-254.3" font-family="Times,serif" font-size="14.00" fill="#0058ad">r 2457 [1 2 4 5 7]</text>
<polyline fill="none" stroke="#0058ad" points="267.5,-243.5 267.5,-272.5 "/>
<text text-anchor="middle" x="303" y="-254.3" font-family="Times,serif" font-size="14.00" fill="#0058ad">a 2458 27</text>
</g>
<!-- T213005 -->
<g id="node5" class="node">
<title>T213005</title>
<polygon fill="none" stroke="#0058ad" points="0,-162.5 0,-191.5 225,-191.5 225,-162.5 0,-162.5"/>
<text text-anchor="middle" x="80.5" y="-173.3" font-family="Times,serif" font-size="14.00" fill="#0058ad">r 2458 [1 4 8 12 15 18 21]</text>
<polyline fill="none" stroke="#0058ad" points="161,-162.5 161,-191.5 "/>
<text text-anchor="middle" x="193" y="-173.3" font-family="Times,serif" font-size="14.00" fill="#0058ad">a 2457 8</text>
</g>
<!-- T213003&#45;&gt;T213005 -->
<g id="edge1" class="edge">
<title>T213003:f0&#45;&gt;T213005:f1</title>
<path fill="none" stroke="#5b00c0" d="M210.5,-243C210.5,-223.0271 198.6205,-217.5041 194.7226,-202.2726"/>
<polygon fill="#5b00c0" stroke="#5b00c0" points="198.1574,-201.5163 193.5,-192 191.2064,-202.3436 198.1574,-201.5163"/>
<text text-anchor="middle" x="214" y="-213.8" font-family="Times,serif" font-size="14.00" fill="#5b00c0">rw</text>
</g>
<!-- T212993 -->
<g id="node2" class="node">
<title>T212993</title>
<polygon fill="none" stroke="#0058ad" points="38.5,-.5 38.5,-29.5 330.5,-29.5 330.5,-.5 38.5,-.5"/>
<text text-anchor="middle" x="95" y="-11.3" font-family="Times,serif" font-size="14.00" fill="#0058ad">r 2457 [1 2 4 5 7]</text>
<polyline fill="none" stroke="#0058ad" points="151.5,-.5 151.5,-29.5 "/>
<text text-anchor="middle" x="241" y="-11.3" font-family="Times,serif" font-size="14.00" fill="#0058ad">r 2458 [1 4 8 12 15 18 21 24]</text>
</g>
<!-- T212993&#45;&gt;T213003 -->
<g id="edge3" class="edge">
<title>T212993:f1&#45;&gt;T213003:f1</title>
<path fill="none" stroke="#5b00c0" d="M330.5,-15C353.8679,-15 311.7698,-184.906 304.5338,-233.0525"/>
<polygon fill="#5b00c0" stroke="#5b00c0" points="301.0525,-232.6917 303.5,-243 308.015,-233.4154 301.0525,-232.6917"/>
<text text-anchor="middle" x="332" y="-132.8" font-family="Times,serif" font-size="14.00" fill="#5b00c0">rw</text>
</g>
<!-- T212993&#45;&gt;T213005 -->
<g id="edge2" class="edge">
<title>T212993:f0&#45;&gt;T213005:f1</title>
<path fill="none" stroke="#5b00c0" d="M94.5,-30C94.5,-99.7526 184.0681,-89.8891 192.8149,-151.8667"/>
<polygon fill="#5b00c0" stroke="#5b00c0" points="189.3334,-152.2589 193.5,-162 196.3174,-151.7867 189.3334,-152.2589"/>
<text text-anchor="middle" x="174" y="-92.3" font-family="Times,serif" font-size="14.00" fill="#5b00c0">rw</text>
</g>
<!-- T212991 -->
<g id="node3" class="node">
<title>T212991</title>
<polygon fill="none" stroke="#0058ad" points="208,-81.5 208,-110.5 279,-110.5 279,-81.5 208,-81.5"/>
<text text-anchor="middle" x="243.5" y="-92.3" font-family="Times,serif" font-size="14.00" fill="#0058ad">a 2458 24</text>
</g>
<!-- T212991&#45;&gt;T213003 -->
<g id="edge5" class="edge">
<title>T212991:f0&#45;&gt;T213003:f1</title>
<path fill="none" stroke="#c02700" d="M247.4792,-110.6169C252.8763,-129.7054 263.2612,-163.9883 275.5,-192 277.4614,-196.4891 292.5299,-219.7502 299.7136,-233.5674"/>
<polygon fill="#c02700" stroke="#c02700" points="296.5267,-235.0236 303.5,-243 303.0228,-232.4159 296.5267,-235.0236"/>
<text text-anchor="middle" x="285.5" y="-173.3" font-family="Times,serif" font-size="14.00" fill="#c02700">ww</text>
</g>
<!-- T212991&#45;&gt;T212993 -->
<g id="edge6" class="edge">
<title>T212991:f0&#45;&gt;T212993:f1</title>
<path fill="none" stroke="#c000a5" d="M242.8005,-81.3242C242.3319,-70.4592 241.7662,-55.0222 241.5706,-40.1461"/>
<polygon fill="#c000a5" stroke="#c000a5" points="245.0696,-39.9754 241.5,-30 238.0698,-40.0241 245.0696,-39.9754"/>
<text text-anchor="middle" x="250" y="-51.8" font-family="Times,serif" font-size="14.00" fill="#c000a5">wr</text>
</g>
<!-- T213001 -->
<g id="node4" class="node">
<title>T213001</title>
<polygon fill="none" stroke="#0058ad" points="349,-.5 349,-29.5 528,-29.5 528,-.5 349,-.5"/>
<text text-anchor="middle" x="438.5" y="-11.3" font-family="Times,serif" font-size="14.00" fill="#0058ad">r 2458 [1 4 8 12 15 18 21 24]</text>
</g>
<!-- T212991&#45;&gt;T213001 -->
<g id="edge4" class="edge">
<title>T212991:f0&#45;&gt;T213001:f0</title>
<path fill="none" stroke="#c000a5" d="M277.3971,-81.4642C277.7666,-81.3085 278.1344,-81.1538 278.5,-81 317.1573,-64.7441 361.2182,-46.597 393.3019,-33.452"/>
<polygon fill="#c000a5" stroke="#c000a5" points="394.9269,-36.5687 402.8551,-29.5407 392.2746,-30.0907 394.9269,-36.5687"/>
<text text-anchor="middle" x="364" y="-51.8" font-family="Times,serif" font-size="14.00" fill="#c000a5">wr</text>
</g>
<!-- T213001&#45;&gt;T213003 -->
<g id="edge7" class="edge">
<title>T213001:f0&#45;&gt;T213003:f1</title>
<path fill="none" stroke="#5b00c0" d="M439.1276,-29.8349C440.479,-80.739 437.9157,-245.8183 348.6115,-257.3626"/>
<polygon fill="#5b00c0" stroke="#5b00c0" points="348.26,-253.8777 338.5,-258 348.7004,-260.8638 348.26,-253.8777"/>
<text text-anchor="middle" x="440" y="-132.8" font-family="Times,serif" font-size="14.00" fill="#5b00c0">rw</text>
</g>
<!-- T213005&#45;&gt;T212991 -->
<g id="edge8" class="edge">
<title>T213005:f0&#45;&gt;T212991:f0</title>
<path fill="none" stroke="#5b00c0" d="M80.5,-162C80.5,-104.1107 144.3108,-131.0016 200.0304,-113.9649"/>
<polygon fill="#5b00c0" stroke="#5b00c0" points="201.3672,-117.204 209.6055,-110.5421 199.0109,-110.6124 201.3672,-117.204"/>
<text text-anchor="middle" x="103" y="-132.8" font-family="Times,serif" font-size="14.00" fill="#5b00c0">rw</text>
</g>
</g>
</svg>
