<?xml version="1.0" encoding="UTF-8" standalone="no"?>
<!DOCTYPE svg PUBLIC "-//W3C//DTD SVG 1.1//EN"
 "http://www.w3.org/Graphics/SVG/1.1/DTD/svg11.dtd">
<!-- Generated by graphviz version 2.40.1 (20161225.0304)
 -->
<!-- Title: a_graph Pages: 1 -->
<svg width="258pt" height="119pt"
 viewBox="0.00 0.00 258.00 119.00" xmlns="http://www.w3.org/2000/svg" xmlns:xlink="http://www.w3.org/1999/xlink">
<g id="graph0" class="graph" transform="scale(1 1) rotate(0) translate(4 115)">
<title>a_graph</title>
<polygon fill="#ffffff" stroke="transparent" points="-4,4 -4,-115 254,-115 254,4 -4,4"/>
<!-- T70718 -->
<g id="node1" class="node">
<title>T70718</title>
<polygon fill="none" stroke="#0058ad" points="0,-81.5 0,-110.5 250,-110.5 250,-81.5 0,-81.5"/>
<text text-anchor="middle" x="96.5" y="-92.3" font-family="Times,serif" font-size="14.00" fill="#0058ad">r 820 [1 3 4 5 7 10 12 14 16 17]</text>
<polyline fill="none" stroke="#0058ad" points="193,-81.5 193,-110.5 "/>
<text text-anchor="middle" x="221.5" y="-92.3" font-family="Times,serif" font-size="14.00" fill="#0058ad">a 822 1</text>
</g>
<!-- T70717 -->
<g id="node2" class="node">
<title>T70717</title>
<polygon fill="none" stroke="#0058ad" points="99,-.5 99,-29.5 221,-29.5 221,-.5 99,-.5"/>
<text text-anchor="middle" x="128" y="-11.3" font-family="Times,serif" font-size="14.00" fill="#0058ad">r 822 []</text>
<polyline fill="none" stroke="#0058ad" points="157,-.5 157,-29.5 "/>
<text text-anchor="middle" x="189" y="-11.3" font-family="Times,serif" font-size="14.00" fill="#0058ad">a 820 18</text>
</g>
<!-- T70718&#45;&gt;T70717 -->
<g id="edge1" class="edge">
<title>T70718:f0&#45;&gt;T70717:f1</title>
<path fill="none" stroke="#5b00c0" d="M96,-81C96,-71.2405 159.7786,-50.7519 181.7024,-37.3043"/>
<polygon fill="#5b00c0" stroke="#5b00c0" points="184.4082,-39.5481 189,-30 179.4561,-34.6006 184.4082,-39.5481"/>
<text text-anchor="middle" x="166.5" y="-51.8" font-family="Times,serif" font-size="14.00" fill="#5b00c0">rw</text>
</g>
<!-- T70717&#45;&gt;T70718 -->
<g id="edge2" class="edge">
<title>T70717:f0&#45;&gt;T70718:f1</title>
<path fill="none" stroke="#5b00c0" d="M128,-30C128,-53.6184 157.2113,-36.7903 178,-48 195.9859,-57.6983 214.6484,-57.1608 220.288,-71.0025"/>
<polygon fill="#5b00c0" stroke="#5b00c0" points="216.8623,-71.7343 222,-81 223.7618,-70.5527 216.8623,-71.7343"/>
<text text-anchor="middle" x="220.5" y="-51.8" font-family="Times,serif" font-size="14.00" fill="#5b00c0">rw</text>
</g>
</g>
</svg>
