<?xml version="1.0" encoding="UTF-8" standalone="no"?>
<!DOCTYPE svg PUBLIC "-//W3C//DTD SVG 1.1//EN"
 "http://www.w3.org/Graphics/SVG/1.1/DTD/svg11.dtd">
<!-- Generated by graphviz version 2.40.1 (20161225.0304)
 -->
<!-- Title: a_graph Pages: 1 -->
<svg width="260pt" height="200pt"
 viewBox="0.00 0.00 260.00 200.00" xmlns="http://www.w3.org/2000/svg" xmlns:xlink="http://www.w3.org/1999/xlink">
<g id="graph0" class="graph" transform="scale(1 1) rotate(0) translate(4 196)">
<title>a_graph</title>
<polygon fill="#ffffff" stroke="transparent" points="-4,4 -4,-196 256,-196 256,4 -4,4"/>
<!-- T140 -->
<g id="node1" class="node">
<title>T140</title>
<polygon fill="none" stroke="#0058ad" points="48,-162.5 48,-191.5 202,-191.5 202,-162.5 48,-162.5"/>
<text text-anchor="middle" x="73" y="-173.3" font-family="Times,serif" font-size="14.00" fill="#0058ad">a 8 11</text>
<polyline fill="none" stroke="#0058ad" points="98,-162.5 98,-191.5 "/>
<text text-anchor="middle" x="150" y="-173.3" font-family="Times,serif" font-size="14.00" fill="#0058ad">r 7 [1 2 3 5 6 8]</text>
</g>
<!-- T133 -->
<g id="node3" class="node">
<title>T133</title>
<polygon fill="none" stroke="#0058ad" points="151,-81.5 151,-110.5 205,-110.5 205,-81.5 151,-81.5"/>
<text text-anchor="middle" x="178" y="-92.3" font-family="Times,serif" font-size="14.00" fill="#0058ad">a 7 10</text>
</g>
<!-- T140&#45;&gt;T133 -->
<g id="edge1" class="edge">
<title>T140:f1&#45;&gt;T133:f0</title>
<path fill="none" stroke="#5b00c0" d="M150,-162C150,-147.1698 156.0653,-131.8474 162.5501,-119.7034"/>
<polygon fill="#5b00c0" stroke="#5b00c0" points="165.7693,-121.1271 167.7328,-110.7158 159.7053,-117.6303 165.7693,-121.1271"/>
<text text-anchor="middle" x="164.5" y="-132.8" font-family="Times,serif" font-size="14.00" fill="#5b00c0">rw</text>
</g>
<!-- T137 -->
<g id="node2" class="node">
<title>T137</title>
<polygon fill="none" stroke="#0058ad" points="0,-.5 0,-29.5 252,-29.5 252,-.5 0,-.5"/>
<text text-anchor="middle" x="65.5" y="-11.3" font-family="Times,serif" font-size="14.00" fill="#0058ad">r 8 [2 3 4 5 6 7 9 10]</text>
<polyline fill="none" stroke="#0058ad" points="131,-.5 131,-29.5 "/>
<text text-anchor="middle" x="191.5" y="-11.3" font-family="Times,serif" font-size="14.00" fill="#0058ad">r 7 [1 2 3 5 6 8 10]</text>
</g>
<!-- T137&#45;&gt;T140 -->
<g id="edge2" class="edge">
<title>T137:f0&#45;&gt;T140:f0</title>
<path fill="none" stroke="#5b00c0" d="M65,-30C65,-85.2157 72.0606,-101.3132 72.9156,-151.792"/>
<polygon fill="#5b00c0" stroke="#5b00c0" points="69.4173,-152.0293 73,-162 76.4171,-151.9714 69.4173,-152.0293"/>
<text text-anchor="middle" x="77.5" y="-92.3" font-family="Times,serif" font-size="14.00" fill="#5b00c0">rw</text>
</g>
<!-- T133&#45;&gt;T137 -->
<g id="edge3" class="edge">
<title>T133:f0&#45;&gt;T137:f1</title>
<path fill="none" stroke="#c000a5" d="M182.9753,-81.2484C186.2448,-70.4807 190.1591,-55.2094 191.512,-40.2487"/>
<polygon fill="#c000a5" stroke="#c000a5" points="195.0203,-40.1552 192,-30 188.0282,-39.8222 195.0203,-40.1552"/>
<text text-anchor="middle" x="197.5" y="-51.8" font-family="Times,serif" font-size="14.00" fill="#c000a5">wr</text>
</g>
</g>
</svg>
