<?xml version="1.0" encoding="UTF-8" standalone="no"?>
<!DOCTYPE svg PUBLIC "-//W3C//DTD SVG 1.1//EN"
 "http://www.w3.org/Graphics/SVG/1.1/DTD/svg11.dtd">
<!-- Generated by graphviz version 2.40.1 (20161225.0304)
 -->
<!-- Title: a_graph Pages: 1 -->
<svg width="219pt" height="119pt"
 viewBox="0.00 0.00 218.50 119.00" xmlns="http://www.w3.org/2000/svg" xmlns:xlink="http://www.w3.org/1999/xlink">
<g id="graph0" class="graph" transform="scale(1 1) rotate(0) translate(4 115)">
<title>a_graph</title>
<polygon fill="#ffffff" stroke="transparent" points="-4,4 -4,-115 214.5,-115 214.5,4 -4,4"/>
<!-- T51257 -->
<g id="node1" class="node">
<title>T51257</title>
<polygon fill="none" stroke="#0058ad" points="0,-81.5 0,-110.5 171,-110.5 171,-81.5 0,-81.5"/>
<text text-anchor="middle" x="53.5" y="-92.3" font-family="Times,serif" font-size="14.00" fill="#0058ad">r 596 [1 2 3 5 7]</text>
<polyline fill="none" stroke="#0058ad" points="107,-81.5 107,-110.5 "/>
<text text-anchor="middle" x="139" y="-92.3" font-family="Times,serif" font-size="14.00" fill="#0058ad">a 595 19</text>
</g>
<!-- T51255 -->
<g id="node2" class="node">
<title>T51255</title>
<polygon fill="none" stroke="#0058ad" points="22.5,-.5 22.5,-29.5 210.5,-29.5 210.5,-.5 22.5,-.5"/>
<text text-anchor="middle" x="51" y="-11.3" font-family="Times,serif" font-size="14.00" fill="#0058ad">a 596 9</text>
<polyline fill="none" stroke="#0058ad" points="79.5,-.5 79.5,-29.5 "/>
<text text-anchor="middle" x="145" y="-11.3" font-family="Times,serif" font-size="14.00" fill="#0058ad">r 595 [1 2 6 7 10 15]</text>
</g>
<!-- T51257&#45;&gt;T51255 -->
<g id="edge1" class="edge">
<title>T51257:f0&#45;&gt;T51255:f0</title>
<path fill="none" stroke="#5b00c0" d="M53.5,-81C53.5,-62.1967 51.4426,-55.1325 50.7354,-40.3645"/>
<polygon fill="#5b00c0" stroke="#5b00c0" points="54.2263,-39.9179 50.5,-30 47.2281,-40.0769 54.2263,-39.9179"/>
<text text-anchor="middle" x="61" y="-51.8" font-family="Times,serif" font-size="14.00" fill="#5b00c0">rw</text>
</g>
<!-- T51255&#45;&gt;T51257 -->
<g id="edge2" class="edge">
<title>T51255:f1&#45;&gt;T51257:f1</title>
<path fill="none" stroke="#5b00c0" d="M145.5,-30C145.5,-48.9003 141.3853,-55.8205 139.9708,-70.6027"/>
<polygon fill="#5b00c0" stroke="#5b00c0" points="136.456,-70.8519 139.5,-81 143.4489,-71.1686 136.456,-70.8519"/>
<text text-anchor="middle" x="151" y="-51.8" font-family="Times,serif" font-size="14.00" fill="#5b00c0">rw</text>
</g>
</g>
</svg>
