<?xml version="1.0" encoding="UTF-8" standalone="no"?>
<!DOCTYPE svg PUBLIC "-//W3C//DTD SVG 1.1//EN"
 "http://www.w3.org/Graphics/SVG/1.1/DTD/svg11.dtd">
<!-- Generated by graphviz version 2.40.1 (20161225.0304)
 -->
<!-- Title: a_graph Pages: 1 -->
<svg width="255pt" height="200pt"
 viewBox="0.00 0.00 255.00 200.00" xmlns="http://www.w3.org/2000/svg" xmlns:xlink="http://www.w3.org/1999/xlink">
<g id="graph0" class="graph" transform="scale(1 1) rotate(0) translate(4 196)">
<title>a_graph</title>
<polygon fill="#ffffff" stroke="transparent" points="-4,4 -4,-196 251,-196 251,4 -4,4"/>
<!-- T1377 -->
<g id="node1" class="node">
<title>T1377</title>
<polygon fill="none" stroke="#0058ad" points="58,-162.5 58,-191.5 247,-191.5 247,-162.5 58,-162.5"/>
<text text-anchor="middle" x="102.5" y="-173.3" font-family="Times,serif" font-size="14.00" fill="#0058ad">r 20 [1 3 4 6]</text>
<polyline fill="none" stroke="#0058ad" points="147,-162.5 147,-191.5 "/>
<text text-anchor="middle" x="197" y="-173.3" font-family="Times,serif" font-size="14.00" fill="#0058ad">r 22 [1 2 4 5 8]</text>
</g>
<!-- T1373 -->
<g id="node3" class="node">
<title>T1373</title>
<polygon fill="none" stroke="#0058ad" points="0,-81.5 0,-110.5 139,-110.5 139,-81.5 0,-81.5"/>
<text text-anchor="middle" x="44.5" y="-92.3" font-family="Times,serif" font-size="14.00" fill="#0058ad">r 22 [1 2 4 5]</text>
<polyline fill="none" stroke="#0058ad" points="89,-81.5 89,-110.5 "/>
<text text-anchor="middle" x="114" y="-92.3" font-family="Times,serif" font-size="14.00" fill="#0058ad">a 20 7</text>
</g>
<!-- T1377&#45;&gt;T1373 -->
<g id="edge1" class="edge">
<title>T1377:f0&#45;&gt;T1373:f1</title>
<path fill="none" stroke="#5b00c0" d="M102.5,-162C102.5,-142.5346 110.8855,-136.2464 113.637,-121.1048"/>
<polygon fill="#5b00c0" stroke="#5b00c0" points="117.1362,-121.2616 114.5,-111 110.1616,-120.6659 117.1362,-121.2616"/>
<text text-anchor="middle" x="119" y="-132.8" font-family="Times,serif" font-size="14.00" fill="#5b00c0">rw</text>
</g>
<!-- T1365 -->
<g id="node2" class="node">
<title>T1365</title>
<polygon fill="none" stroke="#0058ad" points="91.5,-.5 91.5,-29.5 145.5,-29.5 145.5,-.5 91.5,-.5"/>
<text text-anchor="middle" x="118.5" y="-11.3" font-family="Times,serif" font-size="14.00" fill="#0058ad">a 22 8</text>
</g>
<!-- T1365&#45;&gt;T1377 -->
<g id="edge2" class="edge">
<title>T1365:f0&#45;&gt;T1377:f1</title>
<path fill="none" stroke="#c000a5" d="M132.9898,-29.8745C154.371,-53.3631 192.3609,-101.5728 197.0261,-151.9107"/>
<polygon fill="#c000a5" stroke="#c000a5" points="193.5346,-152.1753 197.5,-162 200.5268,-151.8468 193.5346,-152.1753"/>
<text text-anchor="middle" x="193" y="-92.3" font-family="Times,serif" font-size="14.00" fill="#c000a5">wr</text>
</g>
<!-- T1373&#45;&gt;T1365 -->
<g id="edge3" class="edge">
<title>T1373:f0&#45;&gt;T1365:f0</title>
<path fill="none" stroke="#5b00c0" d="M44.5,-81C44.5,-68.7991 67.1881,-49.8744 87.439,-35.4128"/>
<polygon fill="#5b00c0" stroke="#5b00c0" points="89.6914,-38.1092 95.8955,-29.5208 85.6897,-32.3658 89.6914,-38.1092"/>
<text text-anchor="middle" x="79" y="-51.8" font-family="Times,serif" font-size="14.00" fill="#5b00c0">rw</text>
</g>
</g>
</svg>
