<?xml version="1.0" encoding="UTF-8" standalone="no"?>
<!DOCTYPE svg PUBLIC "-//W3C//DTD SVG 1.1//EN"
 "http://www.w3.org/Graphics/SVG/1.1/DTD/svg11.dtd">
<!-- Generated by graphviz version 2.40.1 (20161225.0304)
 -->
<!-- Title: a_graph Pages: 1 -->
<svg width="382pt" height="119pt"
 viewBox="0.00 0.00 382.00 119.00" xmlns="http://www.w3.org/2000/svg" xmlns:xlink="http://www.w3.org/1999/xlink">
<g id="graph0" class="graph" transform="scale(1 1) rotate(0) translate(4 115)">
<title>a_graph</title>
<polygon fill="#ffffff" stroke="transparent" points="-4,4 -4,-115 378,-115 378,4 -4,4"/>
<!-- T123403 -->
<g id="node1" class="node">
<title>T123403</title>
<polygon fill="none" stroke="#0058ad" points="37,-81.5 37,-110.5 263,-110.5 263,-81.5 37,-81.5"/>
<text text-anchor="middle" x="72.5" y="-92.3" font-family="Times,serif" font-size="14.00" fill="#0058ad">a 1426 28</text>
<polyline fill="none" stroke="#0058ad" points="108,-81.5 108,-110.5 "/>
<text text-anchor="middle" x="185.5" y="-92.3" font-family="Times,serif" font-size="14.00" fill="#0058ad">r 1427 [1 3 5 7 10 11 13]</text>
</g>
<!-- T123409 -->
<g id="node2" class="node">
<title>T123409</title>
<polygon fill="none" stroke="#0058ad" points="0,-.5 0,-29.5 374,-29.5 374,-.5 0,-.5"/>
<text text-anchor="middle" x="35.5" y="-11.3" font-family="Times,serif" font-size="14.00" fill="#0058ad">a 1427 17</text>
<polyline fill="none" stroke="#0058ad" points="71,-.5 71,-29.5 "/>
<text text-anchor="middle" x="222.5" y="-11.3" font-family="Times,serif" font-size="14.00" fill="#0058ad">r 1426 [1 2 4 7 8 10 12 13 14 15 16 17 19 22 25 27]</text>
</g>
<!-- T123403&#45;&gt;T123409 -->
<g id="edge1" class="edge">
<title>T123403:f1&#45;&gt;T123409:f0</title>
<path fill="none" stroke="#5b00c0" d="M186,-81C186,-44.1754 144.925,-59.6745 110,-48 97.0462,-43.6699 57.1118,-45.6948 41.4229,-38.0228"/>
<polygon fill="#5b00c0" stroke="#5b00c0" points="43.982,-35.6191 35,-30 38.5175,-39.9939 43.982,-35.6191"/>
<text text-anchor="middle" x="186.5" y="-51.8" font-family="Times,serif" font-size="14.00" fill="#5b00c0">rw</text>
</g>
<!-- T123409&#45;&gt;T123403 -->
<g id="edge2" class="edge">
<title>T123409:f1&#45;&gt;T123403:f0</title>
<path fill="none" stroke="#5b00c0" d="M223,-30C223,-59.6048 115.5675,-31.4808 91,-48 80.1376,-55.3039 74.7121,-60.9263 72.8112,-70.9294"/>
<polygon fill="#5b00c0" stroke="#5b00c0" points="69.3143,-70.7512 72,-81 76.2917,-71.3133 69.3143,-70.7512"/>
<text text-anchor="middle" x="98.5" y="-51.8" font-family="Times,serif" font-size="14.00" fill="#5b00c0">rw</text>
</g>
</g>
</svg>
