<?xml version="1.0" encoding="UTF-8" standalone="no"?>
<!DOCTYPE svg PUBLIC "-//W3C//DTD SVG 1.1//EN"
 "http://www.w3.org/Graphics/SVG/1.1/DTD/svg11.dtd">
<!-- Generated by graphviz version 2.40.1 (20161225.0304)
 -->
<!-- Title: a_graph Pages: 1 -->
<svg width="504pt" height="200pt"
 viewBox="0.00 0.00 504.00 200.00" xmlns="http://www.w3.org/2000/svg" xmlns:xlink="http://www.w3.org/1999/xlink">
<g id="graph0" class="graph" transform="scale(1 1) rotate(0) translate(4 196)">
<title>a_graph</title>
<polygon fill="#ffffff" stroke="transparent" points="-4,4 -4,-196 500,-196 500,4 -4,4"/>
<!-- T198621 -->
<g id="node1" class="node">
<title>T198621</title>
<polygon fill="none" stroke="#0058ad" points="0,-162.5 0,-191.5 496,-191.5 496,-162.5 0,-162.5"/>
<text text-anchor="middle" x="91" y="-173.3" font-family="Times,serif" font-size="14.00" fill="#0058ad">r 2295 [1 2 4 6 7 10 12 13 15]</text>
<polyline fill="none" stroke="#0058ad" points="182,-162.5 182,-191.5 "/>
<text text-anchor="middle" x="339" y="-173.3" font-family="Times,serif" font-size="14.00" fill="#0058ad">r 2293 [1 2 3 4 8 9 10 11 12 13 15 16 17 19 20 23 24]</text>
</g>
<!-- T198629 -->
<g id="node3" class="node">
<title>T198629</title>
<polygon fill="none" stroke="#0058ad" points="129,-81.5 129,-110.5 365,-110.5 365,-81.5 129,-81.5"/>
<text text-anchor="middle" x="211.5" y="-92.3" font-family="Times,serif" font-size="14.00" fill="#0058ad">r 2295 [1 2 4 6 7 10 12 13]</text>
<polyline fill="none" stroke="#0058ad" points="294,-81.5 294,-110.5 "/>
<text text-anchor="middle" x="329.5" y="-92.3" font-family="Times,serif" font-size="14.00" fill="#0058ad">a 2293 25</text>
</g>
<!-- T198621&#45;&gt;T198629 -->
<g id="edge1" class="edge">
<title>T198621:f1&#45;&gt;T198629:f1</title>
<path fill="none" stroke="#5b00c0" d="M339,-162C339,-142.7593 332.7109,-136.1323 330.6473,-121.0305"/>
<polygon fill="#5b00c0" stroke="#5b00c0" points="334.1368,-120.7538 330,-111 327.1513,-121.2047 334.1368,-120.7538"/>
<text text-anchor="middle" x="343.5" y="-132.8" font-family="Times,serif" font-size="14.00" fill="#5b00c0">rw</text>
</g>
<!-- T198615 -->
<g id="node2" class="node">
<title>T198615</title>
<polygon fill="none" stroke="#0058ad" points="23,-.5 23,-29.5 165,-29.5 165,-.5 23,-.5"/>
<text text-anchor="middle" x="58.5" y="-11.3" font-family="Times,serif" font-size="14.00" fill="#0058ad">a 2280 13</text>
<polyline fill="none" stroke="#0058ad" points="94,-.5 94,-29.5 "/>
<text text-anchor="middle" x="129.5" y="-11.3" font-family="Times,serif" font-size="14.00" fill="#0058ad">a 2295 15</text>
</g>
<!-- T198615&#45;&gt;T198621 -->
<g id="edge2" class="edge">
<title>T198615:f1&#45;&gt;T198621:f0</title>
<path fill="none" stroke="#c000a5" d="M130,-30C130,-55.2435 112.7839,-56.9866 105,-81 94.8788,-112.2239 91.6435,-123.235 91.0907,-151.6443"/>
<polygon fill="#c000a5" stroke="#c000a5" points="87.5878,-151.9697 91,-162 94.5875,-152.0311 87.5878,-151.9697"/>
<text text-anchor="middle" x="112.5" y="-92.3" font-family="Times,serif" font-size="14.00" fill="#c000a5">wr</text>
</g>
<!-- T198629&#45;&gt;T198615 -->
<g id="edge3" class="edge">
<title>T198629:f0&#45;&gt;T198615:f1</title>
<path fill="none" stroke="#5b00c0" d="M211,-81C211,-48.8764 202.7303,-21.2004 175.1207,-15.91"/>
<polygon fill="#5b00c0" stroke="#5b00c0" points="175.2733,-12.4097 165,-15 174.6463,-19.3816 175.2733,-12.4097"/>
<text text-anchor="middle" x="216.5" y="-51.8" font-family="Times,serif" font-size="14.00" fill="#5b00c0">rw</text>
</g>
</g>
</svg>
