<?xml version="1.0" encoding="UTF-8" standalone="no"?>
<!DOCTYPE svg PUBLIC "-//W3C//DTD SVG 1.1//EN"
 "http://www.w3.org/Graphics/SVG/1.1/DTD/svg11.dtd">
<!-- Generated by graphviz version 2.40.1 (20161225.0304)
 -->
<!-- Title: a_graph Pages: 1 -->
<svg width="351pt" height="119pt"
 viewBox="0.00 0.00 351.00 119.00" xmlns="http://www.w3.org/2000/svg" xmlns:xlink="http://www.w3.org/1999/xlink">
<g id="graph0" class="graph" transform="scale(1 1) rotate(0) translate(4 115)">
<title>a_graph</title>
<polygon fill="#ffffff" stroke="transparent" points="-4,4 -4,-115 347,-115 347,4 -4,4"/>
<!-- T200335 -->
<g id="node1" class="node">
<title>T200335</title>
<polygon fill="none" stroke="#0058ad" points="0,-81.5 0,-110.5 343,-110.5 343,-81.5 0,-81.5"/>
<text text-anchor="middle" x="139.5" y="-92.3" font-family="Times,serif" font-size="14.00" fill="#0058ad">r 2312 [1 2 4 6 7 8 10 12 15 18 21 22 24 28 29]</text>
<polyline fill="none" stroke="#0058ad" points="279,-81.5 279,-110.5 "/>
<text text-anchor="middle" x="311" y="-92.3" font-family="Times,serif" font-size="14.00" fill="#0058ad">a 2315 6</text>
</g>
<!-- T200330 -->
<g id="node2" class="node">
<title>T200330</title>
<polygon fill="none" stroke="#0058ad" points="146,-.5 146,-29.5 299,-29.5 299,-.5 146,-.5"/>
<text text-anchor="middle" x="187" y="-11.3" font-family="Times,serif" font-size="14.00" fill="#0058ad">r 2315 [1 3]</text>
<polyline fill="none" stroke="#0058ad" points="228,-.5 228,-29.5 "/>
<text text-anchor="middle" x="263.5" y="-11.3" font-family="Times,serif" font-size="14.00" fill="#0058ad">a 2312 30</text>
</g>
<!-- T200335&#45;&gt;T200330 -->
<g id="edge1" class="edge">
<title>T200335:f0&#45;&gt;T200330:f1</title>
<path fill="none" stroke="#5b00c0" d="M139.5,-81C139.5,-54.6964 236.1404,-58.309 258.7905,-39.017"/>
<polygon fill="#5b00c0" stroke="#5b00c0" points="261.9728,-40.4842 263.5,-30 255.7681,-37.2435 261.9728,-40.4842"/>
<text text-anchor="middle" x="245" y="-51.8" font-family="Times,serif" font-size="14.00" fill="#5b00c0">rw</text>
</g>
<!-- T200330&#45;&gt;T200335 -->
<g id="edge2" class="edge">
<title>T200330:f0&#45;&gt;T200335:f1</title>
<path fill="none" stroke="#5b00c0" d="M186.5,-30C186.5,-61.693 226.2334,-35.8381 255.5,-48 278.4257,-57.5269 303.3053,-53.7156 309.8493,-70.7902"/>
<polygon fill="#5b00c0" stroke="#5b00c0" points="306.4487,-71.6868 311.5,-81 313.359,-70.5695 306.4487,-71.6868"/>
<text text-anchor="middle" x="311" y="-51.8" font-family="Times,serif" font-size="14.00" fill="#5b00c0">rw</text>
</g>
</g>
</svg>
