<?xml version="1.0" encoding="UTF-8" standalone="no"?>
<!DOCTYPE svg PUBLIC "-//W3C//DTD SVG 1.1//EN"
 "http://www.w3.org/Graphics/SVG/1.1/DTD/svg11.dtd">
<!-- Generated by graphviz version 2.40.1 (20161225.0304)
 -->
<!-- Title: a_graph Pages: 1 -->
<svg width="334pt" height="119pt"
 viewBox="0.00 0.00 334.00 119.00" xmlns="http://www.w3.org/2000/svg" xmlns:xlink="http://www.w3.org/1999/xlink">
<g id="graph0" class="graph" transform="scale(1 1) rotate(0) translate(4 115)">
<title>a_graph</title>
<polygon fill="#ffffff" stroke="transparent" points="-4,4 -4,-115 330,-115 330,4 -4,4"/>
<!-- T70158 -->
<g id="node1" class="node">
<title>T70158</title>
<polygon fill="none" stroke="#0058ad" points="0,-81.5 0,-110.5 326,-110.5 326,-81.5 0,-81.5"/>
<text text-anchor="middle" x="131" y="-92.3" font-family="Times,serif" font-size="14.00" fill="#0058ad">r 809 [1 3 5 7 9 10 11 12 13 14 16 17 19 20]</text>
<polyline fill="none" stroke="#0058ad" points="262,-81.5 262,-110.5 "/>
<text text-anchor="middle" x="294" y="-92.3" font-family="Times,serif" font-size="14.00" fill="#0058ad">a 812 31</text>
</g>
<!-- T70154 -->
<g id="node2" class="node">
<title>T70154</title>
<polygon fill="none" stroke="#0058ad" points="25.5,-.5 25.5,-29.5 316.5,-29.5 316.5,-.5 25.5,-.5"/>
<text text-anchor="middle" x="139" y="-11.3" font-family="Times,serif" font-size="14.00" fill="#0058ad">r 812 [1 3 5 7 8 11 15 19 22 24 25 28]</text>
<polyline fill="none" stroke="#0058ad" points="252.5,-.5 252.5,-29.5 "/>
<text text-anchor="middle" x="284.5" y="-11.3" font-family="Times,serif" font-size="14.00" fill="#0058ad">a 809 21</text>
</g>
<!-- T70158&#45;&gt;T70154 -->
<g id="edge1" class="edge">
<title>T70158:f0&#45;&gt;T70154:f1</title>
<path fill="none" stroke="#5b00c0" d="M131,-81C131,-36.7225 182.8948,-61.6985 225,-48 247.3382,-40.7325 274.6955,-52.7347 282.6993,-39.9395"/>
<polygon fill="#5b00c0" stroke="#5b00c0" points="286.1547,-40.5317 285,-30 279.335,-38.9531 286.1547,-40.5317"/>
<text text-anchor="middle" x="232.5" y="-51.8" font-family="Times,serif" font-size="14.00" fill="#5b00c0">rw</text>
</g>
<!-- T70154&#45;&gt;T70158 -->
<g id="edge2" class="edge">
<title>T70154:f0&#45;&gt;T70158:f1</title>
<path fill="none" stroke="#5b00c0" d="M139,-30C139,-52.7981 218.6831,-39.9164 240,-48 262.6009,-56.5705 286.2369,-54.0095 292.4376,-70.9709"/>
<polygon fill="#5b00c0" stroke="#5b00c0" points="289.0023,-71.658 294,-81 295.9189,-70.5804 289.0023,-71.658"/>
<text text-anchor="middle" x="293.5" y="-51.8" font-family="Times,serif" font-size="14.00" fill="#5b00c0">rw</text>
</g>
</g>
</svg>
