<?xml version="1.0" encoding="UTF-8" standalone="no"?>
<!DOCTYPE svg PUBLIC "-//W3C//DTD SVG 1.1//EN"
 "http://www.w3.org/Graphics/SVG/1.1/DTD/svg11.dtd">
<!-- Generated by graphviz version 2.40.1 (20161225.0304)
 -->
<!-- Title: a_graph Pages: 1 -->
<svg width="324pt" height="119pt"
 viewBox="0.00 0.00 324.00 119.00" xmlns="http://www.w3.org/2000/svg" xmlns:xlink="http://www.w3.org/1999/xlink">
<g id="graph0" class="graph" transform="scale(1 1) rotate(0) translate(4 115)">
<title>a_graph</title>
<polygon fill="#ffffff" stroke="transparent" points="-4,4 -4,-115 320,-115 320,4 -4,4"/>
<!-- T229095 -->
<g id="node1" class="node">
<title>T229095</title>
<polygon fill="none" stroke="#0058ad" points="18.5,-81.5 18.5,-110.5 261.5,-110.5 261.5,-81.5 18.5,-81.5"/>
<text text-anchor="middle" x="54" y="-92.3" font-family="Times,serif" font-size="14.00" fill="#0058ad">a 2643 32</text>
<polyline fill="none" stroke="#0058ad" points="89.5,-81.5 89.5,-110.5 "/>
<text text-anchor="middle" x="175.5" y="-92.3" font-family="Times,serif" font-size="14.00" fill="#0058ad">r 2644 [1 4 7 9 10 12 13 16]</text>
</g>
<!-- T229087 -->
<g id="node2" class="node">
<title>T229087</title>
<polygon fill="none" stroke="#0058ad" points="0,-.5 0,-29.5 316,-29.5 316,-.5 0,-.5"/>
<text text-anchor="middle" x="35.5" y="-11.3" font-family="Times,serif" font-size="14.00" fill="#0058ad">a 2644 17</text>
<polyline fill="none" stroke="#0058ad" points="71,-.5 71,-29.5 "/>
<text text-anchor="middle" x="193.5" y="-11.3" font-family="Times,serif" font-size="14.00" fill="#0058ad">r 2643 [1 2 4 5 7 8 11 15 17 20 22 25 28]</text>
</g>
<!-- T229095&#45;&gt;T229087 -->
<g id="edge1" class="edge">
<title>T229095:f1&#45;&gt;T229087:f0</title>
<path fill="none" stroke="#5b00c0" d="M176,-81C176,-41.715 131.0444,-61.0774 94,-48 72.1875,-40.2998 45.1807,-52.2967 37.2736,-39.7658"/>
<polygon fill="#5b00c0" stroke="#5b00c0" points="40.6764,-38.9459 35,-30 33.8587,-40.5332 40.6764,-38.9459"/>
<text text-anchor="middle" x="177.5" y="-51.8" font-family="Times,serif" font-size="14.00" fill="#5b00c0">rw</text>
</g>
<!-- T229087&#45;&gt;T229095 -->
<g id="edge2" class="edge">
<title>T229087:f1&#45;&gt;T229095:f0</title>
<path fill="none" stroke="#5b00c0" d="M194,-30C194,-56.7453 97.4139,-33.408 75,-48 63.7317,-55.3359 57.3317,-60.6654 55.0102,-70.7471"/>
<polygon fill="#5b00c0" stroke="#5b00c0" points="51.4974,-70.705 54,-81 58.4637,-71.3914 51.4974,-70.705"/>
<text text-anchor="middle" x="82.5" y="-51.8" font-family="Times,serif" font-size="14.00" fill="#5b00c0">rw</text>
</g>
</g>
</svg>
