<?xml version="1.0" encoding="UTF-8" standalone="no"?>
<!DOCTYPE svg PUBLIC "-//W3C//DTD SVG 1.1//EN"
 "http://www.w3.org/Graphics/SVG/1.1/DTD/svg11.dtd">
<!-- Generated by graphviz version 2.40.1 (20161225.0304)
 -->
<!-- Title: a_graph Pages: 1 -->
<svg width="449pt" height="200pt"
 viewBox="0.00 0.00 449.00 200.00" xmlns="http://www.w3.org/2000/svg" xmlns:xlink="http://www.w3.org/1999/xlink">
<g id="graph0" class="graph" transform="scale(1 1) rotate(0) translate(4 196)">
<title>a_graph</title>
<polygon fill="#ffffff" stroke="transparent" points="-4,4 -4,-196 445,-196 445,4 -4,4"/>
<!-- T76215 -->
<g id="node1" class="node">
<title>T76215</title>
<polygon fill="none" stroke="#0058ad" points="26.5,-162.5 26.5,-191.5 418.5,-191.5 418.5,-162.5 26.5,-162.5"/>
<text text-anchor="middle" x="190.5" y="-173.3" font-family="Times,serif" font-size="14.00" fill="#0058ad">r 877 [1 2 3 4 6 7 8 9 11 12 13 14 16 17 20 21 24 26 27]</text>
<polyline fill="none" stroke="#0058ad" points="354.5,-162.5 354.5,-191.5 "/>
<text text-anchor="middle" x="386.5" y="-173.3" font-family="Times,serif" font-size="14.00" fill="#0058ad">a 883 15</text>
</g>
<!-- T76203 -->
<g id="node2" class="node">
<title>T76203</title>
<polygon fill="none" stroke="#0058ad" points="78,-81.5 78,-110.5 207,-110.5 207,-81.5 78,-81.5"/>
<text text-anchor="middle" x="110.5" y="-92.3" font-family="Times,serif" font-size="14.00" fill="#0058ad">r 884 [1]</text>
<polyline fill="none" stroke="#0058ad" points="143,-81.5 143,-110.5 "/>
<text text-anchor="middle" x="175" y="-92.3" font-family="Times,serif" font-size="14.00" fill="#0058ad">a 877 28</text>
</g>
<!-- T76215&#45;&gt;T76203 -->
<g id="edge1" class="edge">
<title>T76215:f0&#45;&gt;T76203:f1</title>
<path fill="none" stroke="#5b00c0" d="M190.5,-162C190.5,-142.2495 180.0181,-136.3912 176.5788,-121.199"/>
<polygon fill="#5b00c0" stroke="#5b00c0" points="180.0325,-120.5764 175.5,-111 173.0713,-121.3127 180.0325,-120.5764"/>
<text text-anchor="middle" x="194" y="-132.8" font-family="Times,serif" font-size="14.00" fill="#5b00c0">rw</text>
</g>
<!-- T76205 -->
<g id="node3" class="node">
<title>T76205</title>
<polygon fill="none" stroke="#0058ad" points="0,-.5 0,-29.5 441,-29.5 441,-.5 0,-.5"/>
<text text-anchor="middle" x="172.5" y="-11.3" font-family="Times,serif" font-size="14.00" fill="#0058ad">r 877 [1 2 3 4 6 7 8 9 11 12 13 14 16 17 20 21 24 26 27 28]</text>
<polyline fill="none" stroke="#0058ad" points="345,-.5 345,-29.5 "/>
<text text-anchor="middle" x="393" y="-11.3" font-family="Times,serif" font-size="14.00" fill="#0058ad">r 883 [1 2 4 8]</text>
</g>
<!-- T76203&#45;&gt;T76205 -->
<g id="edge2" class="edge">
<title>T76203:f1&#45;&gt;T76205:f0</title>
<path fill="none" stroke="#c000a5" d="M175.5,-81C175.5,-62.1967 173.4426,-55.1325 172.7354,-40.3645"/>
<polygon fill="#c000a5" stroke="#c000a5" points="176.2263,-39.9179 172.5,-30 169.2281,-40.0769 176.2263,-39.9179"/>
<text text-anchor="middle" x="183" y="-51.8" font-family="Times,serif" font-size="14.00" fill="#c000a5">wr</text>
</g>
<!-- T76205&#45;&gt;T76215 -->
<g id="edge3" class="edge">
<title>T76205:f1&#45;&gt;T76215:f1</title>
<path fill="none" stroke="#5b00c0" d="M393.5,-30C393.5,-85.192 387.322,-101.3326 386.5739,-151.7958"/>
<polygon fill="#5b00c0" stroke="#5b00c0" points="383.0726,-151.9749 386.5,-162 390.0724,-152.0256 383.0726,-151.9749"/>
<text text-anchor="middle" x="399" y="-92.3" font-family="Times,serif" font-size="14.00" fill="#5b00c0">rw</text>
</g>
</g>
</svg>
