<?xml version="1.0" encoding="UTF-8" standalone="no"?>
<!DOCTYPE svg PUBLIC "-//W3C//DTD SVG 1.1//EN"
 "http://www.w3.org/Graphics/SVG/1.1/DTD/svg11.dtd">
<!-- Generated by graphviz version 2.40.1 (20161225.0304)
 -->
<!-- Title: a_graph Pages: 1 -->
<svg width="789pt" height="281pt"
 viewBox="0.00 0.00 789.00 281.00" xmlns="http://www.w3.org/2000/svg" xmlns:xlink="http://www.w3.org/1999/xlink">
<g id="graph0" class="graph" transform="scale(1 1) rotate(0) translate(4 277)">
<title>a_graph</title>
<polygon fill="#ffffff" stroke="transparent" points="-4,4 -4,-277 785,-277 785,4 -4,4"/>
<!-- T9632 -->
<g id="node1" class="node">
<title>T9632</title>
<polygon fill="none" stroke="#0058ad" points="113.5,-243.5 113.5,-272.5 473.5,-272.5 473.5,-243.5 113.5,-243.5"/>
<text text-anchor="middle" x="261.5" y="-254.3" font-family="Times,serif" font-size="14.00" fill="#0058ad">r 112 [1 2 4 5 7 10 11 14 15 16 19 21 22 23 24 25]</text>
<polyline fill="none" stroke="#0058ad" points="409.5,-243.5 409.5,-272.5 "/>
<text text-anchor="middle" x="441.5" y="-254.3" font-family="Times,serif" font-size="14.00" fill="#0058ad">a 114 23</text>
</g>
<!-- T9631 -->
<g id="node4" class="node">
<title>T9631</title>
<polygon fill="none" stroke="#0058ad" points="0,-162.5 0,-191.5 291,-191.5 291,-162.5 0,-162.5"/>
<text text-anchor="middle" x="113.5" y="-173.3" font-family="Times,serif" font-size="14.00" fill="#0058ad">r 114 [1 3 4 5 8 10 11 13 15 16 18 19]</text>
<polyline fill="none" stroke="#0058ad" points="227,-162.5 227,-191.5 "/>
<text text-anchor="middle" x="259" y="-173.3" font-family="Times,serif" font-size="14.00" fill="#0058ad">a 112 26</text>
</g>
<!-- T9632&#45;&gt;T9631 -->
<g id="edge1" class="edge">
<title>T9632:f0&#45;&gt;T9631:f1</title>
<path fill="none" stroke="#5b00c0" d="M261.5,-243C261.5,-224.2147 260.1284,-217.1238 259.6569,-202.3584"/>
<polygon fill="#5b00c0" stroke="#5b00c0" points="263.1512,-201.9458 259.5,-192 256.152,-202.0519 263.1512,-201.9458"/>
<text text-anchor="middle" x="269" y="-213.8" font-family="Times,serif" font-size="14.00" fill="#5b00c0">rw</text>
</g>
<!-- T9621 -->
<g id="node2" class="node">
<title>T9621</title>
<polygon fill="none" stroke="#0058ad" points="346.5,-81.5 346.5,-110.5 474.5,-110.5 474.5,-81.5 346.5,-81.5"/>
<text text-anchor="middle" x="378.5" y="-92.3" font-family="Times,serif" font-size="14.00" fill="#0058ad">a 114 21</text>
<polyline fill="none" stroke="#0058ad" points="410.5,-81.5 410.5,-110.5 "/>
<text text-anchor="middle" x="442.5" y="-92.3" font-family="Times,serif" font-size="14.00" fill="#0058ad">a 114 22</text>
</g>
<!-- T9621&#45;&gt;T9632 -->
<g id="edge2" class="edge">
<title>T9621:f1&#45;&gt;T9632:f1</title>
<path fill="none" stroke="#c02700" d="M442.5,-111C442.5,-166.1162 441.6174,-182.3947 441.5106,-232.8079"/>
<polygon fill="#c02700" stroke="#c02700" points="438.0105,-232.9963 441.5,-243 445.0105,-233.0037 438.0105,-232.9963"/>
<text text-anchor="middle" x="451.5" y="-173.3" font-family="Times,serif" font-size="14.00" fill="#c02700">ww</text>
</g>
<!-- T9625 -->
<g id="node3" class="node">
<title>T9625</title>
<polygon fill="none" stroke="#0058ad" points="139.5,-.5 139.5,-29.5 401.5,-29.5 401.5,-.5 139.5,-.5"/>
<text text-anchor="middle" x="270.5" y="-11.3" font-family="Times,serif" font-size="14.00" fill="#0058ad">r 114 [1 3 4 5 8 10 11 13 15 16 18 19 21 22]</text>
</g>
<!-- T9621&#45;&gt;T9625 -->
<g id="edge3" class="edge">
<title>T9621:f1&#45;&gt;T9625:f0</title>
<path fill="none" stroke="#c000a5" d="M442.5,-81C442.5,-60.1854 398.0391,-43.4754 354.3271,-32.0768"/>
<polygon fill="#c000a5" stroke="#c000a5" points="354.9941,-28.6354 344.4417,-29.5822 353.2813,-35.4227 354.9941,-28.6354"/>
<text text-anchor="middle" x="438" y="-51.8" font-family="Times,serif" font-size="14.00" fill="#c000a5">wr</text>
</g>
<!-- T9623 -->
<g id="node5" class="node">
<title>T9623</title>
<polygon fill="none" stroke="#0058ad" points="420,-.5 420,-29.5 781,-29.5 781,-.5 420,-.5"/>
<text text-anchor="middle" x="551" y="-11.3" font-family="Times,serif" font-size="14.00" fill="#0058ad">r 114 [1 3 4 5 8 10 11 13 15 16 18 19 21 22]</text>
<polyline fill="none" stroke="#0058ad" points="682,-.5 682,-29.5 "/>
<text text-anchor="middle" x="731.5" y="-11.3" font-family="Times,serif" font-size="14.00" fill="#0058ad">r 95 [12 15 16]</text>
</g>
<!-- T9621&#45;&gt;T9623 -->
<g id="edge4" class="edge">
<title>T9621:f1&#45;&gt;T9623:f0</title>
<path fill="none" stroke="#c000a5" d="M442.5,-81C442.5,-66.1659 454.6083,-61.02 447.5,-48 440.4109,-35.0151 426.5891,-42.9849 419.5,-30 418.6514,-28.4457 417.7833,-26.6588 417.0908,-24.8725"/>
<polygon fill="#c000a5" stroke="#c000a5" points="420.5294,-25.5447 419.5,-15 413.729,-23.8851 420.5294,-25.5447"/>
<text text-anchor="middle" x="457" y="-51.8" font-family="Times,serif" font-size="14.00" fill="#c000a5">wr</text>
</g>
<!-- T9625&#45;&gt;T9632 -->
<g id="edge5" class="edge">
<title>T9625:f0&#45;&gt;T9632:f1</title>
<path fill="none" stroke="#5b00c0" d="M280.455,-29.8254C293.3173,-48.8482 316.5494,-82.7621 337.5,-111 357.8389,-138.4136 427.8888,-194.7978 439.7784,-232.8063"/>
<polygon fill="#5b00c0" stroke="#5b00c0" points="436.3835,-233.7225 441.5,-243 443.2858,-232.5568 436.3835,-233.7225"/>
<text text-anchor="middle" x="375" y="-132.8" font-family="Times,serif" font-size="14.00" fill="#5b00c0">rw</text>
</g>
<!-- T9631&#45;&gt;T9621 -->
<g id="edge6" class="edge">
<title>T9631:f0&#45;&gt;T9621:f0</title>
<path fill="none" stroke="#5b00c0" d="M113.5,-162C113.5,-111.2332 272.9616,-97.5139 336.2044,-96.1226"/>
<polygon fill="#5b00c0" stroke="#5b00c0" points="336.5424,-99.6189 346.5,-96 336.459,-92.6194 336.5424,-99.6189"/>
<text text-anchor="middle" x="148" y="-132.8" font-family="Times,serif" font-size="14.00" fill="#5b00c0">rw</text>
</g>
<!-- T9623&#45;&gt;T9632 -->
<g id="edge7" class="edge">
<title>T9623:f0&#45;&gt;T9632:f1</title>
<path fill="none" stroke="#5b00c0" d="M550.5,-30C550.5,-133.4048 578.4998,-249.9775 483.7071,-257.6046"/>
<polygon fill="#5b00c0" stroke="#5b00c0" points="483.357,-254.1155 473.5,-258 483.628,-261.1102 483.357,-254.1155"/>
<text text-anchor="middle" x="561" y="-132.8" font-family="Times,serif" font-size="14.00" fill="#5b00c0">rw</text>
</g>
</g>
</svg>
