<?xml version="1.0" encoding="UTF-8" standalone="no"?>
<!DOCTYPE svg PUBLIC "-//W3C//DTD SVG 1.1//EN"
 "http://www.w3.org/Graphics/SVG/1.1/DTD/svg11.dtd">
<!-- Generated by graphviz version 2.40.1 (20161225.0304)
 -->
<!-- Title: a_graph Pages: 1 -->
<svg width="337pt" height="200pt"
 viewBox="0.00 0.00 337.03 200.00" xmlns="http://www.w3.org/2000/svg" xmlns:xlink="http://www.w3.org/1999/xlink">
<g id="graph0" class="graph" transform="scale(1 1) rotate(0) translate(4 196)">
<title>a_graph</title>
<polygon fill="#ffffff" stroke="transparent" points="-4,4 -4,-196 333.0346,-196 333.0346,4 -4,4"/>
<!-- T211929 -->
<g id="node1" class="node">
<title>T211929</title>
<polygon fill="none" stroke="#0058ad" points="29.0346,-162.5 29.0346,-191.5 293.0346,-191.5 293.0346,-162.5 29.0346,-162.5"/>
<text text-anchor="middle" x="64.5346" y="-173.3" font-family="Times,serif" font-size="14.00" fill="#0058ad">a 2447 12</text>
<polyline fill="none" stroke="#0058ad" points="100.0346,-162.5 100.0346,-191.5 "/>
<text text-anchor="middle" x="196.5346" y="-173.3" font-family="Times,serif" font-size="14.00" fill="#0058ad">r 2445 [1 3 4 5 6 8 10 12 14 15]</text>
</g>
<!-- T211925 -->
<g id="node2" class="node">
<title>T211925</title>
<polygon fill="none" stroke="#0058ad" points="65.0346,-81.5 65.0346,-110.5 329.0346,-110.5 329.0346,-81.5 65.0346,-81.5"/>
<text text-anchor="middle" x="161.5346" y="-92.3" font-family="Times,serif" font-size="14.00" fill="#0058ad">r 2443 [1 2 3 6 7 9 10 11 13 14]</text>
<polyline fill="none" stroke="#0058ad" points="258.0346,-81.5 258.0346,-110.5 "/>
<text text-anchor="middle" x="293.5346" y="-92.3" font-family="Times,serif" font-size="14.00" fill="#0058ad">a 2445 16</text>
</g>
<!-- T211929&#45;&gt;T211925 -->
<g id="edge1" class="edge">
<title>T211929:f1&#45;&gt;T211925:f1</title>
<path fill="none" stroke="#5b00c0" d="M293.0346,-177C319.048,-177 299.7145,-148.1727 295.0004,-121.188"/>
<polygon fill="#5b00c0" stroke="#5b00c0" points="298.4628,-120.625 294.0346,-111 291.4941,-121.2857 298.4628,-120.625"/>
<text text-anchor="middle" x="308.5346" y="-132.8" font-family="Times,serif" font-size="14.00" fill="#5b00c0">rw</text>
</g>
<!-- T211935 -->
<g id="node3" class="node">
<title>T211935</title>
<polygon fill="none" stroke="#0058ad" points="26.0346,-.5 26.0346,-29.5 200.0346,-29.5 200.0346,-.5 26.0346,-.5"/>
<text text-anchor="middle" x="61.5346" y="-11.3" font-family="Times,serif" font-size="14.00" fill="#0058ad">a 2445 17</text>
<polyline fill="none" stroke="#0058ad" points="97.0346,-.5 97.0346,-29.5 "/>
<text text-anchor="middle" x="148.5346" y="-11.3" font-family="Times,serif" font-size="14.00" fill="#0058ad">r 2447 [1 3 5 7]</text>
</g>
<!-- T211925&#45;&gt;T211935 -->
<g id="edge2" class="edge">
<title>T211925:f1&#45;&gt;T211935:f0</title>
<path fill="none" stroke="#c02700" d="M294.0346,-81C294.0346,21.2804 77.1294,-125.0159 61.8782,-40.2136"/>
<polygon fill="#c02700" stroke="#c02700" points="65.346,-39.6779 61.0346,-30 58.3698,-40.2542 65.346,-39.6779"/>
<text text-anchor="middle" x="299.0346" y="-51.8" font-family="Times,serif" font-size="14.00" fill="#c02700">ww</text>
</g>
<!-- T211935&#45;&gt;T211929 -->
<g id="edge3" class="edge">
<title>T211935:f1&#45;&gt;T211929:f0</title>
<path fill="none" stroke="#5b00c0" d="M149.0346,-30C149.0346,-69.9209 93.6674,-25.0049 61.0346,-48 15.8599,-79.8328 -24.4984,-165.0104 18.8562,-175.8581"/>
<polygon fill="#5b00c0" stroke="#5b00c0" points="18.7067,-179.3632 29.0346,-177 19.4871,-172.4069 18.7067,-179.3632"/>
<text text-anchor="middle" x="34.5346" y="-92.3" font-family="Times,serif" font-size="14.00" fill="#5b00c0">rw</text>
</g>
</g>
</svg>
