<?xml version="1.0" encoding="UTF-8" standalone="no"?>
<!DOCTYPE svg PUBLIC "-//W3C//DTD SVG 1.1//EN"
 "http://www.w3.org/Graphics/SVG/1.1/DTD/svg11.dtd">
<!-- Generated by graphviz version 2.40.1 (20161225.0304)
 -->
<!-- Title: a_graph Pages: 1 -->
<svg width="334pt" height="119pt"
 viewBox="0.00 0.00 334.00 119.00" xmlns="http://www.w3.org/2000/svg" xmlns:xlink="http://www.w3.org/1999/xlink">
<g id="graph0" class="graph" transform="scale(1 1) rotate(0) translate(4 115)">
<title>a_graph</title>
<polygon fill="#ffffff" stroke="transparent" points="-4,4 -4,-115 330,-115 330,4 -4,4"/>
<!-- T21446 -->
<g id="node1" class="node">
<title>T21446</title>
<polygon fill="none" stroke="#0058ad" points="156,-81.5 156,-110.5 278,-110.5 278,-81.5 156,-81.5"/>
<text text-anchor="middle" x="185" y="-92.3" font-family="Times,serif" font-size="14.00" fill="#0058ad">r 249 []</text>
<polyline fill="none" stroke="#0058ad" points="214,-81.5 214,-110.5 "/>
<text text-anchor="middle" x="246" y="-92.3" font-family="Times,serif" font-size="14.00" fill="#0058ad">a 245 22</text>
</g>
<!-- T21439 -->
<g id="node2" class="node">
<title>T21439</title>
<polygon fill="none" stroke="#0058ad" points="0,-.5 0,-29.5 326,-29.5 326,-.5 0,-.5"/>
<text text-anchor="middle" x="134.5" y="-11.3" font-family="Times,serif" font-size="14.00" fill="#0058ad">r 245 [1 4 6 8 11 12 13 14 15 16 17 18 20 21]</text>
<polyline fill="none" stroke="#0058ad" points="269,-.5 269,-29.5 "/>
<text text-anchor="middle" x="297.5" y="-11.3" font-family="Times,serif" font-size="14.00" fill="#0058ad">a 249 1</text>
</g>
<!-- T21446&#45;&gt;T21439 -->
<g id="edge1" class="edge">
<title>T21446:f0&#45;&gt;T21439:f1</title>
<path fill="none" stroke="#5b00c0" d="M185,-81C185,-64.2934 189.4942,-57.8339 203,-48 217.3846,-37.5263 273.0948,-46.7908 291.8203,-38.0822"/>
<polygon fill="#5b00c0" stroke="#5b00c0" points="294.7063,-40.0699 298,-30 289.1456,-35.8181 294.7063,-40.0699"/>
<text text-anchor="middle" x="210.5" y="-51.8" font-family="Times,serif" font-size="14.00" fill="#5b00c0">rw</text>
</g>
<!-- T21439&#45;&gt;T21446 -->
<g id="edge2" class="edge">
<title>T21439:f0&#45;&gt;T21446:f1</title>
<path fill="none" stroke="#5b00c0" d="M134,-30C134,-68.1809 185.235,-28.3981 218,-48 231.1535,-55.8692 241.1239,-59.9379 244.6316,-70.9994"/>
<polygon fill="#5b00c0" stroke="#5b00c0" points="241.1766,-71.5668 246,-81 248.112,-70.6178 241.1766,-71.5668"/>
<text text-anchor="middle" x="246.5" y="-51.8" font-family="Times,serif" font-size="14.00" fill="#5b00c0">rw</text>
</g>
</g>
</svg>
