<?xml version="1.0" encoding="UTF-8" standalone="no"?>
<!DOCTYPE svg PUBLIC "-//W3C//DTD SVG 1.1//EN"
 "http://www.w3.org/Graphics/SVG/1.1/DTD/svg11.dtd">
<!-- Generated by graphviz version 2.40.1 (20161225.0304)
 -->
<!-- Title: a_graph Pages: 1 -->
<svg width="316pt" height="119pt"
 viewBox="0.00 0.00 316.00 119.00" xmlns="http://www.w3.org/2000/svg" xmlns:xlink="http://www.w3.org/1999/xlink">
<g id="graph0" class="graph" transform="scale(1 1) rotate(0) translate(4 115)">
<title>a_graph</title>
<polygon fill="#ffffff" stroke="transparent" points="-4,4 -4,-115 312,-115 312,4 -4,4"/>
<!-- T12659 -->
<g id="node1" class="node">
<title>T12659</title>
<polygon fill="none" stroke="#0058ad" points="149,-81.5 149,-110.5 299,-110.5 299,-81.5 149,-81.5"/>
<text text-anchor="middle" x="181" y="-92.3" font-family="Times,serif" font-size="14.00" fill="#0058ad">a 139 30</text>
<polyline fill="none" stroke="#0058ad" points="213,-81.5 213,-110.5 "/>
<text text-anchor="middle" x="256" y="-92.3" font-family="Times,serif" font-size="14.00" fill="#0058ad">r 149 [2 4 8]</text>
</g>
<!-- T12648 -->
<g id="node2" class="node">
<title>T12648</title>
<polygon fill="none" stroke="#0058ad" points="0,-.5 0,-29.5 308,-29.5 308,-.5 0,-.5"/>
<text text-anchor="middle" x="122" y="-11.3" font-family="Times,serif" font-size="14.00" fill="#0058ad">r 139 [17 18 19 20 22 23 24 25 26 27 28]</text>
<polyline fill="none" stroke="#0058ad" points="244,-.5 244,-29.5 "/>
<text text-anchor="middle" x="276" y="-11.3" font-family="Times,serif" font-size="14.00" fill="#0058ad">a 149 10</text>
</g>
<!-- T12659&#45;&gt;T12648 -->
<g id="edge1" class="edge">
<title>T12659:f1&#45;&gt;T12648:f1</title>
<path fill="none" stroke="#5b00c0" d="M256,-81C256,-60.457 270.2383,-55.6059 274.6877,-39.9666"/>
<polygon fill="#5b00c0" stroke="#5b00c0" points="278.1646,-40.3713 276,-30 271.2245,-39.4575 278.1646,-40.3713"/>
<text text-anchor="middle" x="278.5" y="-51.8" font-family="Times,serif" font-size="14.00" fill="#5b00c0">rw</text>
</g>
<!-- T12648&#45;&gt;T12659 -->
<g id="edge2" class="edge">
<title>T12648:f0&#45;&gt;T12659:f0</title>
<path fill="none" stroke="#5b00c0" d="M122,-30C122,-57.8552 118.3748,-87.7296 139.0143,-94.5564"/>
<polygon fill="#5b00c0" stroke="#5b00c0" points="138.6021,-98.0331 149,-96 139.6037,-91.1051 138.6021,-98.0331"/>
<text text-anchor="middle" x="129.5" y="-51.8" font-family="Times,serif" font-size="14.00" fill="#5b00c0">rw</text>
</g>
</g>
</svg>
