<?xml version="1.0" encoding="UTF-8" standalone="no"?>
<!DOCTYPE svg PUBLIC "-//W3C//DTD SVG 1.1//EN"
 "http://www.w3.org/Graphics/SVG/1.1/DTD/svg11.dtd">
<!-- Generated by graphviz version 2.40.1 (20161225.0304)
 -->
<!-- Title: a_graph Pages: 1 -->
<svg width="382pt" height="119pt"
 viewBox="0.00 0.00 382.00 119.00" xmlns="http://www.w3.org/2000/svg" xmlns:xlink="http://www.w3.org/1999/xlink">
<g id="graph0" class="graph" transform="scale(1 1) rotate(0) translate(4 115)">
<title>a_graph</title>
<polygon fill="#ffffff" stroke="transparent" points="-4,4 -4,-115 378,-115 378,4 -4,4"/>
<!-- T123703 -->
<g id="node1" class="node">
<title>T123703</title>
<polygon fill="none" stroke="#0058ad" points="0,-81.5 0,-110.5 374,-110.5 374,-81.5 0,-81.5"/>
<text text-anchor="middle" x="35.5" y="-92.3" font-family="Times,serif" font-size="14.00" fill="#0058ad">a 1432 11</text>
<polyline fill="none" stroke="#0058ad" points="71,-81.5 71,-110.5 "/>
<text text-anchor="middle" x="222.5" y="-92.3" font-family="Times,serif" font-size="14.00" fill="#0058ad">r 1429 [1 4 6 7 9 11 12 14 15 17 18 19 20 21 22 25]</text>
</g>
<!-- T123700 -->
<g id="node2" class="node">
<title>T123700</title>
<polygon fill="none" stroke="#0058ad" points="38,-.5 38,-29.5 222,-29.5 222,-.5 38,-.5"/>
<text text-anchor="middle" x="94.5" y="-11.3" font-family="Times,serif" font-size="14.00" fill="#0058ad">r 1432 [1 2 5 7 8]</text>
<polyline fill="none" stroke="#0058ad" points="151,-.5 151,-29.5 "/>
<text text-anchor="middle" x="186.5" y="-11.3" font-family="Times,serif" font-size="14.00" fill="#0058ad">a 1429 27</text>
</g>
<!-- T123703&#45;&gt;T123700 -->
<g id="edge1" class="edge">
<title>T123703:f1&#45;&gt;T123700:f1</title>
<path fill="none" stroke="#5b00c0" d="M223,-81C223,-57.1568 196.4131,-57.1196 188.9355,-39.9718"/>
<polygon fill="#5b00c0" stroke="#5b00c0" points="192.3414,-39.1499 187,-30 185.4696,-40.4837 192.3414,-39.1499"/>
<text text-anchor="middle" x="222.5" y="-51.8" font-family="Times,serif" font-size="14.00" fill="#5b00c0">rw</text>
</g>
<!-- T123700&#45;&gt;T123703 -->
<g id="edge2" class="edge">
<title>T123700:f0&#45;&gt;T123703:f0</title>
<path fill="none" stroke="#5b00c0" d="M38,-15C11.9627,-15 29.7421,-43.8061 34.1044,-70.8048"/>
<polygon fill="#5b00c0" stroke="#5b00c0" points="30.6382,-71.3447 35,-81 37.6114,-70.732 30.6382,-71.3447"/>
<text text-anchor="middle" x="40.5" y="-51.8" font-family="Times,serif" font-size="14.00" fill="#5b00c0">rw</text>
</g>
</g>
</svg>
