<?xml version="1.0" encoding="UTF-8" standalone="no"?>
<!DOCTYPE svg PUBLIC "-//W3C//DTD SVG 1.1//EN"
 "http://www.w3.org/Graphics/SVG/1.1/DTD/svg11.dtd">
<!-- Generated by graphviz version 2.40.1 (20161225.0304)
 -->
<!-- Title: a_graph Pages: 1 -->
<svg width="275pt" height="119pt"
 viewBox="0.00 0.00 275.00 119.00" xmlns="http://www.w3.org/2000/svg" xmlns:xlink="http://www.w3.org/1999/xlink">
<g id="graph0" class="graph" transform="scale(1 1) rotate(0) translate(4 115)">
<title>a_graph</title>
<polygon fill="#ffffff" stroke="transparent" points="-4,4 -4,-115 271,-115 271,4 -4,4"/>
<!-- T56771 -->
<g id="node1" class="node">
<title>T56771</title>
<polygon fill="none" stroke="#0058ad" points="0,-81.5 0,-110.5 267,-110.5 267,-81.5 0,-81.5"/>
<text text-anchor="middle" x="101.5" y="-92.3" font-family="Times,serif" font-size="14.00" fill="#0058ad">r 657 [1 2 4 5 6 8 10 12 15 16 19]</text>
<polyline fill="none" stroke="#0058ad" points="203,-81.5 203,-110.5 "/>
<text text-anchor="middle" x="235" y="-92.3" font-family="Times,serif" font-size="14.00" fill="#0058ad">a 658 18</text>
</g>
<!-- T56769 -->
<g id="node2" class="node">
<title>T56769</title>
<polygon fill="none" stroke="#0058ad" points="34.5,-.5 34.5,-29.5 256.5,-29.5 256.5,-.5 34.5,-.5"/>
<text text-anchor="middle" x="113.5" y="-11.3" font-family="Times,serif" font-size="14.00" fill="#0058ad">r 658 [1 2 4 7 8 10 16 17]</text>
<polyline fill="none" stroke="#0058ad" points="192.5,-.5 192.5,-29.5 "/>
<text text-anchor="middle" x="224.5" y="-11.3" font-family="Times,serif" font-size="14.00" fill="#0058ad">a 657 20</text>
</g>
<!-- T56771&#45;&gt;T56769 -->
<g id="edge1" class="edge">
<title>T56771:f0&#45;&gt;T56769:f1</title>
<path fill="none" stroke="#5b00c0" d="M101.5,-81C101.5,-45.3945 141.5016,-61.3739 174.5,-48 192.2848,-40.792 214.1771,-49.006 221.7615,-39.6713"/>
<polygon fill="#5b00c0" stroke="#5b00c0" points="225.1431,-40.5753 224.5,-30 218.4079,-38.6681 225.1431,-40.5753"/>
<text text-anchor="middle" x="182" y="-51.8" font-family="Times,serif" font-size="14.00" fill="#5b00c0">rw</text>
</g>
<!-- T56769&#45;&gt;T56771 -->
<g id="edge2" class="edge">
<title>T56769:f0&#45;&gt;T56771:f1</title>
<path fill="none" stroke="#5b00c0" d="M113.5,-30C113.5,-64.7122 157.9107,-33.6106 189.5,-48 208.8198,-56.8004 228.2855,-56.3307 233.8968,-71.0828"/>
<polygon fill="#5b00c0" stroke="#5b00c0" points="230.4489,-71.6867 235.5,-81 237.3592,-70.5696 230.4489,-71.6867"/>
<text text-anchor="middle" x="235" y="-51.8" font-family="Times,serif" font-size="14.00" fill="#5b00c0">rw</text>
</g>
</g>
</svg>
