<?xml version="1.0" encoding="UTF-8" standalone="no"?>
<!DOCTYPE svg PUBLIC "-//W3C//DTD SVG 1.1//EN"
 "http://www.w3.org/Graphics/SVG/1.1/DTD/svg11.dtd">
<!-- Generated by graphviz version 2.40.1 (20161225.0304)
 -->
<!-- Title: a_graph Pages: 1 -->
<svg width="373pt" height="200pt"
 viewBox="0.00 0.00 373.00 200.00" xmlns="http://www.w3.org/2000/svg" xmlns:xlink="http://www.w3.org/1999/xlink">
<g id="graph0" class="graph" transform="scale(1 1) rotate(0) translate(4 196)">
<title>a_graph</title>
<polygon fill="#ffffff" stroke="transparent" points="-4,4 -4,-196 369,-196 369,4 -4,4"/>
<!-- T52484 -->
<g id="node1" class="node">
<title>T52484</title>
<polygon fill="none" stroke="#0058ad" points="32,-162.5 32,-191.5 341,-191.5 341,-162.5 32,-162.5"/>
<text text-anchor="middle" x="154.5" y="-173.3" font-family="Times,serif" font-size="14.00" fill="#0058ad">r 608 [2 4 5 6 9 12 13 15 17 18 21 22 24]</text>
<polyline fill="none" stroke="#0058ad" points="277,-162.5 277,-191.5 "/>
<text text-anchor="middle" x="309" y="-173.3" font-family="Times,serif" font-size="14.00" fill="#0058ad">a 610 13</text>
</g>
<!-- T52475 -->
<g id="node3" class="node">
<title>T52475</title>
<polygon fill="none" stroke="#0058ad" points="106.5,-81.5 106.5,-110.5 170.5,-110.5 170.5,-81.5 106.5,-81.5"/>
<text text-anchor="middle" x="138.5" y="-92.3" font-family="Times,serif" font-size="14.00" fill="#0058ad">a 608 25</text>
</g>
<!-- T52484&#45;&gt;T52475 -->
<g id="edge1" class="edge">
<title>T52484:f0&#45;&gt;T52475:f0</title>
<path fill="none" stroke="#5b00c0" d="M154.5,-162C154.5,-147.907 151.0118,-132.5857 147.2928,-120.2556"/>
<polygon fill="#5b00c0" stroke="#5b00c0" points="150.6051,-119.1234 144.1861,-110.6945 143.9477,-121.2866 150.6051,-119.1234"/>
<text text-anchor="middle" x="161" y="-132.8" font-family="Times,serif" font-size="14.00" fill="#5b00c0">rw</text>
</g>
<!-- T52478 -->
<g id="node2" class="node">
<title>T52478</title>
<polygon fill="none" stroke="#0058ad" points="0,-.5 0,-29.5 365,-29.5 365,-.5 0,-.5"/>
<text text-anchor="middle" x="131" y="-11.3" font-family="Times,serif" font-size="14.00" fill="#0058ad">r 608 [2 4 5 6 9 12 13 15 17 18 21 22 24 25]</text>
<polyline fill="none" stroke="#0058ad" points="262,-.5 262,-29.5 "/>
<text text-anchor="middle" x="313.5" y="-11.3" font-family="Times,serif" font-size="14.00" fill="#0058ad">r 610 [1 5 8 10]</text>
</g>
<!-- T52478&#45;&gt;T52484 -->
<g id="edge2" class="edge">
<title>T52478:f1&#45;&gt;T52484:f1</title>
<path fill="none" stroke="#5b00c0" d="M313.5,-30C313.5,-85.1399 309.9697,-101.3753 309.5422,-151.8041"/>
<polygon fill="#5b00c0" stroke="#5b00c0" points="306.0415,-151.9856 309.5,-162 313.0415,-152.0146 306.0415,-151.9856"/>
<text text-anchor="middle" x="320" y="-92.3" font-family="Times,serif" font-size="14.00" fill="#5b00c0">rw</text>
</g>
<!-- T52475&#45;&gt;T52478 -->
<g id="edge3" class="edge">
<title>T52475:f0&#45;&gt;T52478:f0</title>
<path fill="none" stroke="#c000a5" d="M135.702,-81.3819C133.8276,-70.5484 131.565,-55.1335 130.7824,-40.1997"/>
<polygon fill="#c000a5" stroke="#c000a5" points="134.2755,-39.8993 130.5,-30 127.2782,-40.0931 134.2755,-39.8993"/>
<text text-anchor="middle" x="141" y="-51.8" font-family="Times,serif" font-size="14.00" fill="#c000a5">wr</text>
</g>
</g>
</svg>
