<?xml version="1.0" encoding="UTF-8" standalone="no"?>
<!DOCTYPE svg PUBLIC "-//W3C//DTD SVG 1.1//EN"
 "http://www.w3.org/Graphics/SVG/1.1/DTD/svg11.dtd">
<!-- Generated by graphviz version 2.40.1 (20161225.0304)
 -->
<!-- Title: a_graph Pages: 1 -->
<svg width="457pt" height="362pt"
 viewBox="0.00 0.00 456.75 362.00" xmlns="http://www.w3.org/2000/svg" xmlns:xlink="http://www.w3.org/1999/xlink">
<g id="graph0" class="graph" transform="scale(1 1) rotate(0) translate(4 358)">
<title>a_graph</title>
<polygon fill="#ffffff" stroke="transparent" points="-4,4 -4,-358 452.7463,-358 452.7463,4 -4,4"/>
<!-- T226483 -->
<g id="node1" class="node">
<title>T226483</title>
<polygon fill="none" stroke="#0058ad" points="22.2463,-324.5 22.2463,-353.5 164.2463,-353.5 164.2463,-324.5 22.2463,-324.5"/>
<text text-anchor="middle" x="57.7463" y="-335.3" font-family="Times,serif" font-size="14.00" fill="#0058ad">a 2612 13</text>
<polyline fill="none" stroke="#0058ad" points="93.2463,-324.5 93.2463,-353.5 "/>
<text text-anchor="middle" x="128.7463" y="-335.3" font-family="Times,serif" font-size="14.00" fill="#0058ad">a 2615 16</text>
</g>
<!-- T226485 -->
<g id="node2" class="node">
<title>T226485</title>
<polygon fill="none" stroke="#0058ad" points="135.2463,-243.5 135.2463,-272.5 283.2463,-272.5 283.2463,-243.5 135.2463,-243.5"/>
<text text-anchor="middle" x="209.2463" y="-254.3" font-family="Times,serif" font-size="14.00" fill="#0058ad">r 2615 [1 2 3 7 9 13 16]</text>
</g>
<!-- T226483&#45;&gt;T226485 -->
<g id="edge3" class="edge">
<title>T226483:f1&#45;&gt;T226485:f0</title>
<path fill="none" stroke="#c000a5" d="M164.2463,-339C190.3109,-339 201.4083,-306.554 206.0434,-282.7325"/>
<polygon fill="#c000a5" stroke="#c000a5" points="209.4973,-283.2986 207.7042,-272.8566 202.5942,-282.1377 209.4973,-283.2986"/>
<text text-anchor="middle" x="211.7463" y="-294.8" font-family="Times,serif" font-size="14.00" fill="#c000a5">wr</text>
</g>
<!-- T226494 -->
<g id="node3" class="node">
<title>T226494</title>
<polygon fill="none" stroke="#0058ad" points="78.7463,-162.5 78.7463,-191.5 411.7463,-191.5 411.7463,-162.5 78.7463,-162.5"/>
<text text-anchor="middle" x="209.7463" y="-173.3" font-family="Times,serif" font-size="14.00" fill="#0058ad">r 2614 [1 3 4 5 6 8 10 11 14 18 19 21 23 24]</text>
<polyline fill="none" stroke="#0058ad" points="340.7463,-162.5 340.7463,-191.5 "/>
<text text-anchor="middle" x="376.2463" y="-173.3" font-family="Times,serif" font-size="14.00" fill="#0058ad">a 2615 18</text>
</g>
<!-- T226483&#45;&gt;T226494 -->
<g id="edge1" class="edge">
<title>T226483:f1&#45;&gt;T226494:f1</title>
<path fill="none" stroke="#c02700" d="M164.2463,-339C275.4324,-339 370.3366,-308.5858 375.9809,-202.1883"/>
<polygon fill="#c02700" stroke="#c02700" points="379.4846,-202.0878 376.2463,-192 372.487,-201.9054 379.4846,-202.0878"/>
<text text-anchor="middle" x="378.2463" y="-254.3" font-family="Times,serif" font-size="14.00" fill="#c02700">ww</text>
</g>
<!-- T226489 -->
<g id="node5" class="node">
<title>T226489</title>
<polygon fill="none" stroke="#0058ad" points="21.7463,-.5 21.7463,-29.5 448.7463,-29.5 448.7463,-.5 21.7463,-.5"/>
<text text-anchor="middle" x="95.7463" y="-11.3" font-family="Times,serif" font-size="14.00" fill="#0058ad">r 2615 [1 2 3 7 9 13 16]</text>
<polyline fill="none" stroke="#0058ad" points="169.7463,-.5 169.7463,-29.5 "/>
<text text-anchor="middle" x="309.2463" y="-11.3" font-family="Times,serif" font-size="14.00" fill="#0058ad">r 2614 [1 3 4 5 6 8 10 11 14 18 19 21 23 24 25]</text>
</g>
<!-- T226483&#45;&gt;T226489 -->
<g id="edge2" class="edge">
<title>T226483:f1&#45;&gt;T226489:f0</title>
<path fill="none" stroke="#c000a5" d="M129.2463,-324C129.2463,-293.1759 7.2463,-288.8241 7.2463,-258 7.2463,-258 7.2463,-258 7.2463,-96 7.2463,-63.4621 -10.6278,-24.6321 11.2718,-16.5273"/>
<polygon fill="#c000a5" stroke="#c000a5" points="11.8913,-19.9733 21.2463,-15 10.8318,-13.0539 11.8913,-19.9733"/>
<text text-anchor="middle" x="14.7463" y="-173.3" font-family="Times,serif" font-size="14.00" fill="#c000a5">wr</text>
</g>
<!-- T226485&#45;&gt;T226494 -->
<g id="edge4" class="edge">
<title>T226485:f0&#45;&gt;T226494:f1</title>
<path fill="none" stroke="#5b00c0" d="M239.869,-243.3947C261.5045,-233.3534 291.3259,-220.0674 318.2463,-210 339.3794,-202.0969 365.7105,-213.6894 373.7816,-201.9394"/>
<polygon fill="#5b00c0" stroke="#5b00c0" points="377.2365,-202.5485 376.2463,-192 370.4423,-200.8636 377.2365,-202.5485"/>
<text text-anchor="middle" x="325.7463" y="-213.8" font-family="Times,serif" font-size="14.00" fill="#5b00c0">rw</text>
</g>
<!-- T226487 -->
<g id="node4" class="node">
<title>T226487</title>
<polygon fill="none" stroke="#0058ad" points="38.2463,-81.5 38.2463,-110.5 240.2463,-110.5 240.2463,-81.5 38.2463,-81.5"/>
<text text-anchor="middle" x="103.7463" y="-92.3" font-family="Times,serif" font-size="14.00" fill="#0058ad">r 2615 [1 2 3 7 9 13]</text>
<polyline fill="none" stroke="#0058ad" points="169.2463,-81.5 169.2463,-110.5 "/>
<text text-anchor="middle" x="204.7463" y="-92.3" font-family="Times,serif" font-size="14.00" fill="#0058ad">a 2614 25</text>
</g>
<!-- T226494&#45;&gt;T226487 -->
<g id="edge5" class="edge">
<title>T226494:f0&#45;&gt;T226487:f1</title>
<path fill="none" stroke="#5b00c0" d="M209.2463,-162C209.2463,-143.1715 206.5032,-136.1447 205.5602,-121.373"/>
<polygon fill="#5b00c0" stroke="#5b00c0" points="209.0473,-120.8895 205.2463,-111 202.0505,-121.1013 209.0473,-120.8895"/>
<text text-anchor="middle" x="215.7463" y="-132.8" font-family="Times,serif" font-size="14.00" fill="#5b00c0">rw</text>
</g>
<!-- T226487&#45;&gt;T226483 -->
<g id="edge7" class="edge">
<title>T226487:f0&#45;&gt;T226483:f1</title>
<path fill="none" stroke="#5b00c0" d="M38.2463,-96C-13.3235,-96 113.9249,-250.9948 127.9969,-314.0309"/>
<polygon fill="#5b00c0" stroke="#5b00c0" points="124.5299,-314.5129 129.2463,-324 131.4755,-313.6423 124.5299,-314.5129"/>
<text text-anchor="middle" x="92.7463" y="-213.8" font-family="Times,serif" font-size="14.00" fill="#5b00c0">rw</text>
</g>
<!-- T226487&#45;&gt;T226489 -->
<g id="edge6" class="edge">
<title>T226487:f1&#45;&gt;T226489:f1</title>
<path fill="none" stroke="#c000a5" d="M240.2463,-96C249.3656,-96 247.7876,-87.4378 254.2463,-81 275.09,-60.2239 301.9962,-62.3643 308.0161,-40.2149"/>
<polygon fill="#c000a5" stroke="#c000a5" points="311.5255,-40.3468 309.2463,-30 304.5757,-39.5098 311.5255,-40.3468"/>
<text text-anchor="middle" x="312.7463" y="-51.8" font-family="Times,serif" font-size="14.00" fill="#c000a5">wr</text>
</g>
<!-- T226489&#45;&gt;T226494 -->
<g id="edge8" class="edge">
<title>T226489:f0&#45;&gt;T226494:f1</title>
<path fill="none" stroke="#5b00c0" d="M95.2463,-30C95.2463,-102.1001 184.13,-50.0437 249.2463,-81 306.4026,-108.1721 368.987,-96.5294 375.6612,-151.7284"/>
<polygon fill="#5b00c0" stroke="#5b00c0" points="372.1832,-152.2153 376.2463,-162 379.1718,-151.8171 372.1832,-152.2153"/>
<text text-anchor="middle" x="352.7463" y="-92.3" font-family="Times,serif" font-size="14.00" fill="#5b00c0">rw</text>
</g>
</g>
</svg>
