<?xml version="1.0" encoding="UTF-8" standalone="no"?>
<!DOCTYPE svg PUBLIC "-//W3C//DTD SVG 1.1//EN"
 "http://www.w3.org/Graphics/SVG/1.1/DTD/svg11.dtd">
<!-- Generated by graphviz version 2.40.1 (20161225.0304)
 -->
<!-- Title: a_graph Pages: 1 -->
<svg width="301pt" height="200pt"
 viewBox="0.00 0.00 301.00 200.00" xmlns="http://www.w3.org/2000/svg" xmlns:xlink="http://www.w3.org/1999/xlink">
<g id="graph0" class="graph" transform="scale(1 1) rotate(0) translate(4 196)">
<title>a_graph</title>
<polygon fill="#ffffff" stroke="transparent" points="-4,4 -4,-196 297,-196 297,4 -4,4"/>
<!-- T215443 -->
<g id="node1" class="node">
<title>T215443</title>
<polygon fill="none" stroke="#0058ad" points="47.5,-162.5 47.5,-191.5 221.5,-191.5 221.5,-162.5 47.5,-162.5"/>
<text text-anchor="middle" x="83" y="-173.3" font-family="Times,serif" font-size="14.00" fill="#0058ad">a 2485 16</text>
<polyline fill="none" stroke="#0058ad" points="118.5,-162.5 118.5,-191.5 "/>
<text text-anchor="middle" x="170" y="-173.3" font-family="Times,serif" font-size="14.00" fill="#0058ad">r 2487 [1 4 7 9]</text>
</g>
<!-- T215431 -->
<g id="node3" class="node">
<title>T215431</title>
<polygon fill="none" stroke="#0058ad" points="130,-81.5 130,-110.5 293,-110.5 293,-81.5 130,-81.5"/>
<text text-anchor="middle" x="165.5" y="-92.3" font-family="Times,serif" font-size="14.00" fill="#0058ad">a 2487 11</text>
<polyline fill="none" stroke="#0058ad" points="201,-81.5 201,-110.5 "/>
<text text-anchor="middle" x="247" y="-92.3" font-family="Times,serif" font-size="14.00" fill="#0058ad">r 2486 [2 3 4]</text>
</g>
<!-- T215443&#45;&gt;T215431 -->
<g id="edge1" class="edge">
<title>T215443:f1&#45;&gt;T215431:f0</title>
<path fill="none" stroke="#5b00c0" d="M170.5,-162C170.5,-143.1392 167.071,-136.1604 165.8923,-121.384"/>
<polygon fill="#5b00c0" stroke="#5b00c0" points="169.3752,-120.8607 165.5,-111 162.3802,-121.125 169.3752,-120.8607"/>
<text text-anchor="middle" x="176" y="-132.8" font-family="Times,serif" font-size="14.00" fill="#5b00c0">rw</text>
</g>
<!-- T215437 -->
<g id="node2" class="node">
<title>T215437</title>
<polygon fill="none" stroke="#0058ad" points="0,-.5 0,-29.5 275,-29.5 275,-.5 0,-.5"/>
<text text-anchor="middle" x="60" y="-11.3" font-family="Times,serif" font-size="14.00" fill="#0058ad">r 2487 [1 4 7 9 11]</text>
<polyline fill="none" stroke="#0058ad" points="120,-.5 120,-29.5 "/>
<text text-anchor="middle" x="197.5" y="-11.3" font-family="Times,serif" font-size="14.00" fill="#0058ad">r 2485 [4 5 6 9 10 12 14]</text>
</g>
<!-- T215437&#45;&gt;T215443 -->
<g id="edge2" class="edge">
<title>T215437:f1&#45;&gt;T215443:f0</title>
<path fill="none" stroke="#5b00c0" d="M197.5,-30C197.5,-71.6641 135.0473,-18.6256 105.5,-48 71.35,-81.9501 80.8681,-106.726 82.329,-151.7503"/>
<polygon fill="#5b00c0" stroke="#5b00c0" points="78.8336,-152.0598 82.5,-162 85.8326,-151.943 78.8336,-152.0598"/>
<text text-anchor="middle" x="91" y="-92.3" font-family="Times,serif" font-size="14.00" fill="#5b00c0">rw</text>
</g>
<!-- T215431&#45;&gt;T215437 -->
<g id="edge3" class="edge">
<title>T215431:f0&#45;&gt;T215437:f0</title>
<path fill="none" stroke="#c000a5" d="M165.5,-81C165.5,-50.5661 133.0621,-60.9056 105.5,-48 89.9669,-40.7269 70.6281,-47.2313 62.9107,-39.9566"/>
<polygon fill="#c000a5" stroke="#c000a5" points="66.0519,-38.3261 59.5,-30 59.4296,-40.5946 66.0519,-38.3261"/>
<text text-anchor="middle" x="165" y="-51.8" font-family="Times,serif" font-size="14.00" fill="#c000a5">wr</text>
</g>
</g>
</svg>
