<?xml version="1.0" encoding="UTF-8" standalone="no"?>
<!DOCTYPE svg PUBLIC "-//W3C//DTD SVG 1.1//EN"
 "http://www.w3.org/Graphics/SVG/1.1/DTD/svg11.dtd">
<!-- Generated by graphviz version 2.40.1 (20161225.0304)
 -->
<!-- Title: a_graph Pages: 1 -->
<svg width="168pt" height="119pt"
 viewBox="0.00 0.00 168.00 119.00" xmlns="http://www.w3.org/2000/svg" xmlns:xlink="http://www.w3.org/1999/xlink">
<g id="graph0" class="graph" transform="scale(1 1) rotate(0) translate(4 115)">
<title>a_graph</title>
<polygon fill="#ffffff" stroke="transparent" points="-4,4 -4,-115 164,-115 164,4 -4,4"/>
<!-- T75145 -->
<g id="node1" class="node">
<title>T75145</title>
<polygon fill="none" stroke="#0058ad" points="6.5,-81.5 6.5,-110.5 141.5,-110.5 141.5,-81.5 6.5,-81.5"/>
<text text-anchor="middle" x="38.5" y="-92.3" font-family="Times,serif" font-size="14.00" fill="#0058ad">a 869 13</text>
<polyline fill="none" stroke="#0058ad" points="70.5,-81.5 70.5,-110.5 "/>
<text text-anchor="middle" x="106" y="-92.3" font-family="Times,serif" font-size="14.00" fill="#0058ad">r 866 [13]</text>
</g>
<!-- T75143 -->
<g id="node2" class="node">
<title>T75143</title>
<polygon fill="none" stroke="#0058ad" points="0,-.5 0,-29.5 160,-29.5 160,-.5 0,-.5"/>
<text text-anchor="middle" x="32" y="-11.3" font-family="Times,serif" font-size="14.00" fill="#0058ad">a 866 14</text>
<polyline fill="none" stroke="#0058ad" points="64,-.5 64,-29.5 "/>
<text text-anchor="middle" x="112" y="-11.3" font-family="Times,serif" font-size="14.00" fill="#0058ad">r 869 [1 3 5 9]</text>
</g>
<!-- T75145&#45;&gt;T75143 -->
<g id="edge1" class="edge">
<title>T75145:f1&#45;&gt;T75143:f0</title>
<path fill="none" stroke="#5b00c0" d="M106,-81C106,-57.6085 84.4561,-60.9855 65,-48 55.0123,-41.334 42.3341,-43.5822 35.9926,-39.1708"/>
<polygon fill="#5b00c0" stroke="#5b00c0" points="39.2008,-37.7717 32,-30 32.7827,-40.5659 39.2008,-37.7717"/>
<text text-anchor="middle" x="103.5" y="-51.8" font-family="Times,serif" font-size="14.00" fill="#5b00c0">rw</text>
</g>
<!-- T75143&#45;&gt;T75145 -->
<g id="edge2" class="edge">
<title>T75143:f1&#45;&gt;T75145:f0</title>
<path fill="none" stroke="#5b00c0" d="M112,-30C112,-60.4047 67.1917,-26.1974 46,-48 38.111,-56.1164 37.5555,-62.1317 37.7708,-70.9988"/>
<polygon fill="#5b00c0" stroke="#5b00c0" points="34.2717,-71.0828 38,-81 41.2699,-70.9224 34.2717,-71.0828"/>
<text text-anchor="middle" x="53.5" y="-51.8" font-family="Times,serif" font-size="14.00" fill="#5b00c0">rw</text>
</g>
</g>
</svg>
