<?xml version="1.0" encoding="UTF-8" standalone="no"?>
<!DOCTYPE svg PUBLIC "-//W3C//DTD SVG 1.1//EN"
 "http://www.w3.org/Graphics/SVG/1.1/DTD/svg11.dtd">
<!-- Generated by graphviz version 2.40.1 (20161225.0304)
 -->
<!-- Title: a_graph Pages: 1 -->
<svg width="286pt" height="119pt"
 viewBox="0.00 0.00 286.00 119.00" xmlns="http://www.w3.org/2000/svg" xmlns:xlink="http://www.w3.org/1999/xlink">
<g id="graph0" class="graph" transform="scale(1 1) rotate(0) translate(4 115)">
<title>a_graph</title>
<polygon fill="#ffffff" stroke="transparent" points="-4,4 -4,-115 282,-115 282,4 -4,4"/>
<!-- T124016 -->
<g id="node1" class="node">
<title>T124016</title>
<polygon fill="none" stroke="#0058ad" points="97.5,-81.5 97.5,-110.5 250.5,-110.5 250.5,-81.5 97.5,-81.5"/>
<text text-anchor="middle" x="138.5" y="-92.3" font-family="Times,serif" font-size="14.00" fill="#0058ad">r 1435 [2 4]</text>
<polyline fill="none" stroke="#0058ad" points="179.5,-81.5 179.5,-110.5 "/>
<text text-anchor="middle" x="215" y="-92.3" font-family="Times,serif" font-size="14.00" fill="#0058ad">a 1433 18</text>
</g>
<!-- T124020 -->
<g id="node2" class="node">
<title>T124020</title>
<polygon fill="none" stroke="#0058ad" points="0,-.5 0,-29.5 278,-29.5 278,-.5 0,-.5"/>
<text text-anchor="middle" x="107" y="-11.3" font-family="Times,serif" font-size="14.00" fill="#0058ad">r 1433 [1 2 3 4 5 6 7 8 10 12 15 17]</text>
<polyline fill="none" stroke="#0058ad" points="214,-.5 214,-29.5 "/>
<text text-anchor="middle" x="246" y="-11.3" font-family="Times,serif" font-size="14.00" fill="#0058ad">a 1435 6</text>
</g>
<!-- T124016&#45;&gt;T124020 -->
<g id="edge1" class="edge">
<title>T124016:f0&#45;&gt;T124020:f1</title>
<path fill="none" stroke="#5b00c0" d="M138,-81C138,-61.1786 150.8968,-58.0185 168,-48 194.8614,-32.2654 234.4341,-57.5243 243.9076,-40.2506"/>
<polygon fill="#5b00c0" stroke="#5b00c0" points="247.4292,-40.498 246,-30 240.5706,-39.0979 247.4292,-40.498"/>
<text text-anchor="middle" x="175.5" y="-51.8" font-family="Times,serif" font-size="14.00" fill="#5b00c0">rw</text>
</g>
<!-- T124020&#45;&gt;T124016 -->
<g id="edge2" class="edge">
<title>T124020:f0&#45;&gt;T124016:f1</title>
<path fill="none" stroke="#5b00c0" d="M107,-30C107,-64.7122 152.8188,-30.8526 183,-48 197.2938,-56.121 209.3042,-59.3117 213.4505,-70.8933"/>
<polygon fill="#5b00c0" stroke="#5b00c0" points="210.0249,-71.6459 215,-81 216.9441,-70.5851 210.0249,-71.6459"/>
<text text-anchor="middle" x="215.5" y="-51.8" font-family="Times,serif" font-size="14.00" fill="#5b00c0">rw</text>
</g>
</g>
</svg>
