<?xml version="1.0" encoding="UTF-8" standalone="no"?>
<!DOCTYPE svg PUBLIC "-//W3C//DTD SVG 1.1//EN"
 "http://www.w3.org/Graphics/SVG/1.1/DTD/svg11.dtd">
<!-- Generated by graphviz version 2.40.1 (20161225.0304)
 -->
<!-- Title: a_graph Pages: 1 -->
<svg width="314pt" height="119pt"
 viewBox="0.00 0.00 314.00 119.00" xmlns="http://www.w3.org/2000/svg" xmlns:xlink="http://www.w3.org/1999/xlink">
<g id="graph0" class="graph" transform="scale(1 1) rotate(0) translate(4 115)">
<title>a_graph</title>
<polygon fill="#ffffff" stroke="transparent" points="-4,4 -4,-115 310,-115 310,4 -4,4"/>
<!-- T77107 -->
<g id="node1" class="node">
<title>T77107</title>
<polygon fill="none" stroke="#0058ad" points="0,-81.5 0,-110.5 306,-110.5 306,-81.5 0,-81.5"/>
<text text-anchor="middle" x="121" y="-92.3" font-family="Times,serif" font-size="14.00" fill="#0058ad">r 892 [1 2 3 4 5 6 7 9 12 15 17 19 20 21]</text>
<polyline fill="none" stroke="#0058ad" points="242,-81.5 242,-110.5 "/>
<text text-anchor="middle" x="274" y="-92.3" font-family="Times,serif" font-size="14.00" fill="#0058ad">a 893 26</text>
</g>
<!-- T77111 -->
<g id="node2" class="node">
<title>T77111</title>
<polygon fill="none" stroke="#0058ad" points="45,-.5 45,-29.5 291,-29.5 291,-.5 45,-.5"/>
<text text-anchor="middle" x="136" y="-11.3" font-family="Times,serif" font-size="14.00" fill="#0058ad">r 893 [1 5 8 9 10 15 17 19 23]</text>
<polyline fill="none" stroke="#0058ad" points="227,-.5 227,-29.5 "/>
<text text-anchor="middle" x="259" y="-11.3" font-family="Times,serif" font-size="14.00" fill="#0058ad">a 892 22</text>
</g>
<!-- T77107&#45;&gt;T77111 -->
<g id="edge1" class="edge">
<title>T77107:f0&#45;&gt;T77111:f1</title>
<path fill="none" stroke="#5b00c0" d="M121,-81C121,-39.6452 169.1654,-62.2162 208,-48 226.3399,-41.2863 248.5454,-49.4677 256.2277,-39.8789"/>
<polygon fill="#5b00c0" stroke="#5b00c0" points="259.6679,-40.5738 259,-30 252.9282,-38.6824 259.6679,-40.5738"/>
<text text-anchor="middle" x="215.5" y="-51.8" font-family="Times,serif" font-size="14.00" fill="#5b00c0">rw</text>
</g>
<!-- T77111&#45;&gt;T77107 -->
<g id="edge2" class="edge">
<title>T77111:f0&#45;&gt;T77107:f1</title>
<path fill="none" stroke="#5b00c0" d="M136,-30C136,-49.7428 204.7334,-40.5093 223,-48 244.2714,-56.7229 266.298,-54.942 272.3685,-70.8929"/>
<polygon fill="#5b00c0" stroke="#5b00c0" points="268.9511,-71.6856 274,-81 275.8616,-70.57 268.9511,-71.6856"/>
<text text-anchor="middle" x="273.5" y="-51.8" font-family="Times,serif" font-size="14.00" fill="#5b00c0">rw</text>
</g>
</g>
</svg>
