<?xml version="1.0" encoding="UTF-8" standalone="no"?>
<!DOCTYPE svg PUBLIC "-//W3C//DTD SVG 1.1//EN"
 "http://www.w3.org/Graphics/SVG/1.1/DTD/svg11.dtd">
<!-- Generated by graphviz version 2.40.1 (20161225.0304)
 -->
<!-- Title: a_graph Pages: 1 -->
<svg width="473pt" height="200pt"
 viewBox="0.00 0.00 473.00 200.00" xmlns="http://www.w3.org/2000/svg" xmlns:xlink="http://www.w3.org/1999/xlink">
<g id="graph0" class="graph" transform="scale(1 1) rotate(0) translate(4 196)">
<title>a_graph</title>
<polygon fill="#ffffff" stroke="transparent" points="-4,4 -4,-196 469,-196 469,4 -4,4"/>
<!-- T3547 -->
<g id="node1" class="node">
<title>T3547</title>
<polygon fill="none" stroke="#0058ad" points="0,-162.5 0,-191.5 465,-191.5 465,-162.5 0,-162.5"/>
<text text-anchor="middle" x="119" y="-173.3" font-family="Times,serif" font-size="14.00" fill="#0058ad">r 45 [1 3 5 7 8 10 11 13 14 15 17 18 20]</text>
<polyline fill="none" stroke="#0058ad" points="238,-162.5 238,-191.5 "/>
<text text-anchor="middle" x="351.5" y="-173.3" font-family="Times,serif" font-size="14.00" fill="#0058ad">r 46 [2 4 5 8 10 13 16 17 19 21 26 28]</text>
</g>
<!-- T3553 -->
<g id="node2" class="node">
<title>T3553</title>
<polygon fill="none" stroke="#0058ad" points="58,-81.5 58,-110.5 325,-110.5 325,-81.5 58,-81.5"/>
<text text-anchor="middle" x="86.5" y="-92.3" font-family="Times,serif" font-size="14.00" fill="#0058ad">a 45 23</text>
<polyline fill="none" stroke="#0058ad" points="115,-81.5 115,-110.5 "/>
<text text-anchor="middle" x="220" y="-92.3" font-family="Times,serif" font-size="14.00" fill="#0058ad">r 46 [2 4 5 8 10 13 16 17 19 21 26]</text>
</g>
<!-- T3547&#45;&gt;T3553 -->
<g id="edge1" class="edge">
<title>T3547:f0&#45;&gt;T3553:f0</title>
<path fill="none" stroke="#5b00c0" d="M118.5,-162C118.5,-139.213 95.2949,-137.6566 88.4059,-121.1724"/>
<polygon fill="#5b00c0" stroke="#5b00c0" points="91.7818,-120.1844 86.5,-111 84.9015,-121.4735 91.7818,-120.1844"/>
<text text-anchor="middle" x="119" y="-132.8" font-family="Times,serif" font-size="14.00" fill="#5b00c0">rw</text>
</g>
<!-- T3544 -->
<g id="node3" class="node">
<title>T3544</title>
<polygon fill="none" stroke="#0058ad" points="263,-.5 263,-29.5 320,-29.5 320,-.5 263,-.5"/>
<text text-anchor="middle" x="291.5" y="-11.3" font-family="Times,serif" font-size="14.00" fill="#0058ad">a 46 28</text>
</g>
<!-- T3553&#45;&gt;T3544 -->
<g id="edge2" class="edge">
<title>T3553:f1&#45;&gt;T3544:f0</title>
<path fill="none" stroke="#5b00c0" d="M325.5,-96C350.8752,-96 328.904,-61.7846 310.4116,-37.8292"/>
<polygon fill="#5b00c0" stroke="#5b00c0" points="313.0507,-35.5239 304.099,-29.8566 307.5627,-39.8693 313.0507,-35.5239"/>
<text text-anchor="middle" x="336" y="-51.8" font-family="Times,serif" font-size="14.00" fill="#5b00c0">rw</text>
</g>
<!-- T3544&#45;&gt;T3547 -->
<g id="edge3" class="edge">
<title>T3544:f0&#45;&gt;T3547:f1</title>
<path fill="none" stroke="#c000a5" d="M317.5178,-29.6005C331.6891,-37.6761 346.548,-46.3998 347.5,-48 371.5986,-88.5067 354.3461,-108.4095 351.8009,-151.7461"/>
<polygon fill="#c000a5" stroke="#c000a5" points="348.2949,-151.9016 351.5,-162 355.2919,-152.107 348.2949,-151.9016"/>
<text text-anchor="middle" x="368" y="-92.3" font-family="Times,serif" font-size="14.00" fill="#c000a5">wr</text>
</g>
</g>
</svg>
