<?xml version="1.0" encoding="UTF-8" standalone="no"?>
<!DOCTYPE svg PUBLIC "-//W3C//DTD SVG 1.1//EN"
 "http://www.w3.org/Graphics/SVG/1.1/DTD/svg11.dtd">
<!-- Generated by graphviz version 2.40.1 (20161225.0304)
 -->
<!-- Title: a_graph Pages: 1 -->
<svg width="451pt" height="119pt"
 viewBox="0.00 0.00 451.00 119.00" xmlns="http://www.w3.org/2000/svg" xmlns:xlink="http://www.w3.org/1999/xlink">
<g id="graph0" class="graph" transform="scale(1 1) rotate(0) translate(4 115)">
<title>a_graph</title>
<polygon fill="#ffffff" stroke="transparent" points="-4,4 -4,-115 447,-115 447,4 -4,4"/>
<!-- T9789 -->
<g id="node1" class="node">
<title>T9789</title>
<polygon fill="none" stroke="#0058ad" points="0,-81.5 0,-110.5 443,-110.5 443,-81.5 0,-81.5"/>
<text text-anchor="middle" x="193" y="-92.3" font-family="Times,serif" font-size="14.00" fill="#0058ad">r 110 [3 4 5 6 7 8 9 10 11 13 14 15 16 17 18 19 20 21 22 23 24 27]</text>
<polyline fill="none" stroke="#0058ad" points="386,-81.5 386,-110.5 "/>
<text text-anchor="middle" x="414.5" y="-92.3" font-family="Times,serif" font-size="14.00" fill="#0058ad">a 95 18</text>
</g>
<!-- T9793 -->
<g id="node2" class="node">
<title>T9793</title>
<polygon fill="none" stroke="#0058ad" points="266,-.5 266,-29.5 429,-29.5 429,-.5 266,-.5"/>
<text text-anchor="middle" x="298" y="-11.3" font-family="Times,serif" font-size="14.00" fill="#0058ad">a 110 28</text>
<polyline fill="none" stroke="#0058ad" points="330,-.5 330,-29.5 "/>
<text text-anchor="middle" x="379.5" y="-11.3" font-family="Times,serif" font-size="14.00" fill="#0058ad">r 95 [12 15 16]</text>
</g>
<!-- T9789&#45;&gt;T9793 -->
<g id="edge1" class="edge">
<title>T9789:f0&#45;&gt;T9793:f0</title>
<path fill="none" stroke="#5b00c0" d="M192.5,-81C192.5,-40.8491 217.1574,-18.7967 255.0366,-15.449"/>
<polygon fill="#5b00c0" stroke="#5b00c0" points="255.6593,-18.9256 265.5,-15 255.3591,-11.932 255.6593,-18.9256"/>
<text text-anchor="middle" x="207" y="-51.8" font-family="Times,serif" font-size="14.00" fill="#5b00c0">rw</text>
</g>
<!-- T9793&#45;&gt;T9789 -->
<g id="edge2" class="edge">
<title>T9793:f1&#45;&gt;T9789:f1</title>
<path fill="none" stroke="#5b00c0" d="M379.5,-30C379.5,-53.625 405.3484,-54.0066 412.6182,-71.0944"/>
<polygon fill="#5b00c0" stroke="#5b00c0" points="409.1951,-71.8289 414.5,-81 416.0721,-70.5225 409.1951,-71.8289"/>
<text text-anchor="middle" x="413" y="-51.8" font-family="Times,serif" font-size="14.00" fill="#5b00c0">rw</text>
</g>
</g>
</svg>
