<?xml version="1.0" encoding="UTF-8" standalone="no"?>
<!DOCTYPE svg PUBLIC "-//W3C//DTD SVG 1.1//EN"
 "http://www.w3.org/Graphics/SVG/1.1/DTD/svg11.dtd">
<!-- Generated by graphviz version 2.40.1 (20161225.0304)
 -->
<!-- Title: a_graph Pages: 1 -->
<svg width="230pt" height="119pt"
 viewBox="0.00 0.00 230.00 119.00" xmlns="http://www.w3.org/2000/svg" xmlns:xlink="http://www.w3.org/1999/xlink">
<g id="graph0" class="graph" transform="scale(1 1) rotate(0) translate(4 115)">
<title>a_graph</title>
<polygon fill="#ffffff" stroke="transparent" points="-4,4 -4,-115 226,-115 226,4 -4,4"/>
<!-- T51553 -->
<g id="node1" class="node">
<title>T51553</title>
<polygon fill="none" stroke="#0058ad" points="9,-81.5 9,-110.5 197,-110.5 197,-81.5 9,-81.5"/>
<text text-anchor="middle" x="41" y="-92.3" font-family="Times,serif" font-size="14.00" fill="#0058ad">a 599 15</text>
<polyline fill="none" stroke="#0058ad" points="73,-81.5 73,-110.5 "/>
<text text-anchor="middle" x="135" y="-92.3" font-family="Times,serif" font-size="14.00" fill="#0058ad">r 600 [1 2 4 8 9 10]</text>
</g>
<!-- T51555 -->
<g id="node2" class="node">
<title>T51555</title>
<polygon fill="none" stroke="#0058ad" points="0,-.5 0,-29.5 222,-29.5 222,-.5 0,-.5"/>
<text text-anchor="middle" x="32" y="-11.3" font-family="Times,serif" font-size="14.00" fill="#0058ad">a 600 11</text>
<polyline fill="none" stroke="#0058ad" points="64,-.5 64,-29.5 "/>
<text text-anchor="middle" x="143" y="-11.3" font-family="Times,serif" font-size="14.00" fill="#0058ad">r 599 [1 3 4 6 8 11 12 14]</text>
</g>
<!-- T51553&#45;&gt;T51555 -->
<g id="edge1" class="edge">
<title>T51553:f1&#45;&gt;T51555:f0</title>
<path fill="none" stroke="#5b00c0" d="M135,-81C135,-50.1759 101.7502,-61.4183 74,-48 60.0017,-41.2313 42.8187,-46.1805 35.5331,-39.7578"/>
<polygon fill="#5b00c0" stroke="#5b00c0" points="38.6955,-38.211 32,-30 32.1136,-40.5942 38.6955,-38.211"/>
<text text-anchor="middle" x="134.5" y="-51.8" font-family="Times,serif" font-size="14.00" fill="#5b00c0">rw</text>
</g>
<!-- T51555&#45;&gt;T51553 -->
<g id="edge2" class="edge">
<title>T51555:f1&#45;&gt;T51553:f0</title>
<path fill="none" stroke="#5b00c0" d="M143,-30C143,-69.9209 85.8987,-22.7226 55,-48 45.6552,-55.6448 42.4337,-61.5048 41.4214,-70.8283"/>
<polygon fill="#5b00c0" stroke="#5b00c0" points="37.917,-70.8637 41,-81 44.911,-71.1535 37.917,-70.8637"/>
<text text-anchor="middle" x="62.5" y="-51.8" font-family="Times,serif" font-size="14.00" fill="#5b00c0">rw</text>
</g>
</g>
</svg>
