<?xml version="1.0" encoding="UTF-8" standalone="no"?>
<!DOCTYPE svg PUBLIC "-//W3C//DTD SVG 1.1//EN"
 "http://www.w3.org/Graphics/SVG/1.1/DTD/svg11.dtd">
<!-- Generated by graphviz version 2.40.1 (20161225.0304)
 -->
<!-- Title: a_graph Pages: 1 -->
<svg width="552pt" height="200pt"
 viewBox="0.00 0.00 551.50 200.00" xmlns="http://www.w3.org/2000/svg" xmlns:xlink="http://www.w3.org/1999/xlink">
<g id="graph0" class="graph" transform="scale(1 1) rotate(0) translate(4 196)">
<title>a_graph</title>
<polygon fill="#ffffff" stroke="transparent" points="-4,4 -4,-196 547.5,-196 547.5,4 -4,4"/>
<!-- T208845 -->
<g id="node1" class="node">
<title>T208845</title>
<polygon fill="none" stroke="#0058ad" points="0,-162.5 0,-191.5 427,-191.5 427,-162.5 0,-162.5"/>
<text text-anchor="middle" x="134.5" y="-173.3" font-family="Times,serif" font-size="14.00" fill="#0058ad">r 2408 [1 2 3 6 8 10 12 13 17 18 21 22 23 24]</text>
<polyline fill="none" stroke="#0058ad" points="269,-162.5 269,-191.5 "/>
<text text-anchor="middle" x="348" y="-173.3" font-family="Times,serif" font-size="14.00" fill="#0058ad">r 2410 [1 2 3 5 6 8 10 12]</text>
</g>
<!-- T208851 -->
<g id="node2" class="node">
<title>T208851</title>
<polygon fill="none" stroke="#0058ad" points="221.5,-81.5 221.5,-110.5 543.5,-110.5 543.5,-81.5 221.5,-81.5"/>
<text text-anchor="middle" x="257" y="-92.3" font-family="Times,serif" font-size="14.00" fill="#0058ad">a 2410 14</text>
<polyline fill="none" stroke="#0058ad" points="292.5,-81.5 292.5,-110.5 "/>
<text text-anchor="middle" x="418" y="-92.3" font-family="Times,serif" font-size="14.00" fill="#0058ad">r 2408 [1 2 3 6 8 10 12 13 17 18 21 22 23]</text>
</g>
<!-- T208845&#45;&gt;T208851 -->
<g id="edge1" class="edge">
<title>T208845:f1&#45;&gt;T208851:f0</title>
<path fill="none" stroke="#5b00c0" d="M348.5,-162C348.5,-119.2664 271.6331,-151.1053 258.4216,-121.1889"/>
<polygon fill="#5b00c0" stroke="#5b00c0" points="261.7927,-120.1781 256.5,-111 254.914,-121.4754 261.7927,-120.1781"/>
<text text-anchor="middle" x="346" y="-132.8" font-family="Times,serif" font-size="14.00" fill="#5b00c0">rw</text>
</g>
<!-- T208843 -->
<g id="node3" class="node">
<title>T208843</title>
<polygon fill="none" stroke="#0058ad" points="182.5,-.5 182.5,-29.5 522.5,-29.5 522.5,-.5 182.5,-.5"/>
<text text-anchor="middle" x="218" y="-11.3" font-family="Times,serif" font-size="14.00" fill="#0058ad">a 2408 24</text>
<polyline fill="none" stroke="#0058ad" points="253.5,-.5 253.5,-29.5 "/>
<text text-anchor="middle" x="388" y="-11.3" font-family="Times,serif" font-size="14.00" fill="#0058ad">r 2408 [1 2 3 6 8 10 12 13 17 18 21 22 23 24]</text>
</g>
<!-- T208851&#45;&gt;T208843 -->
<g id="edge2" class="edge">
<title>T208851:f1&#45;&gt;T208843:f0</title>
<path fill="none" stroke="#5b00c0" d="M418.5,-81C418.5,7.3839 233.6501,-111.6064 218.4867,-40.2336"/>
<polygon fill="#5b00c0" stroke="#5b00c0" points="221.9436,-39.6179 217.5,-30 214.9759,-40.2898 221.9436,-39.6179"/>
<text text-anchor="middle" x="422" y="-51.8" font-family="Times,serif" font-size="14.00" fill="#5b00c0">rw</text>
</g>
<!-- T208843&#45;&gt;T208845 -->
<g id="edge3" class="edge">
<title>T208843:f0&#45;&gt;T208845:f0</title>
<path fill="none" stroke="#c000a5" d="M182.5,-15C117.1277,-15 132.689,-85.8147 134.3646,-151.8744"/>
<polygon fill="#c000a5" stroke="#c000a5" points="130.8665,-152.0477 134.5,-162 137.8658,-151.9541 130.8665,-152.0477"/>
<text text-anchor="middle" x="140" y="-92.3" font-family="Times,serif" font-size="14.00" fill="#c000a5">wr</text>
</g>
</g>
</svg>
