<?xml version="1.0" encoding="UTF-8" standalone="no"?>
<!DOCTYPE svg PUBLIC "-//W3C//DTD SVG 1.1//EN"
 "http://www.w3.org/Graphics/SVG/1.1/DTD/svg11.dtd">
<!-- Generated by graphviz version 2.40.1 (20161225.0304)
 -->
<!-- Title: a_graph Pages: 1 -->
<svg width="237pt" height="119pt"
 viewBox="0.00 0.00 237.00 119.00" xmlns="http://www.w3.org/2000/svg" xmlns:xlink="http://www.w3.org/1999/xlink">
<g id="graph0" class="graph" transform="scale(1 1) rotate(0) translate(4 115)">
<title>a_graph</title>
<polygon fill="#ffffff" stroke="transparent" points="-4,4 -4,-115 233,-115 233,4 -4,4"/>
<!-- T207857 -->
<g id="node1" class="node">
<title>T207857</title>
<polygon fill="none" stroke="#0058ad" points="0,-81.5 0,-110.5 229,-110.5 229,-81.5 0,-81.5"/>
<text text-anchor="middle" x="32" y="-92.3" font-family="Times,serif" font-size="14.00" fill="#0058ad">a 2400 7</text>
<polyline fill="none" stroke="#0058ad" points="64,-81.5 64,-110.5 "/>
<text text-anchor="middle" x="146.5" y="-92.3" font-family="Times,serif" font-size="14.00" fill="#0058ad">r 2398 [1 2 6 8 9 13 17 21]</text>
</g>
<!-- T207866 -->
<g id="node2" class="node">
<title>T207866</title>
<polygon fill="none" stroke="#0058ad" points="7.5,-.5 7.5,-29.5 191.5,-29.5 191.5,-.5 7.5,-.5"/>
<text text-anchor="middle" x="43" y="-11.3" font-family="Times,serif" font-size="14.00" fill="#0058ad">a 2398 28</text>
<polyline fill="none" stroke="#0058ad" points="78.5,-.5 78.5,-29.5 "/>
<text text-anchor="middle" x="135" y="-11.3" font-family="Times,serif" font-size="14.00" fill="#0058ad">r 2400 [1 3 4 5 6]</text>
</g>
<!-- T207857&#45;&gt;T207866 -->
<g id="edge1" class="edge">
<title>T207857:f1&#45;&gt;T207866:f0</title>
<path fill="none" stroke="#5b00c0" d="M146.5,-81C146.5,-70.191 73.1449,-50.6434 49.6483,-37.0353"/>
<polygon fill="#5b00c0" stroke="#5b00c0" points="52.0823,-34.52 42.5,-30 47.1721,-39.509 52.0823,-34.52"/>
<text text-anchor="middle" x="120" y="-51.8" font-family="Times,serif" font-size="14.00" fill="#5b00c0">rw</text>
</g>
<!-- T207866&#45;&gt;T207857 -->
<g id="edge2" class="edge">
<title>T207866:f1&#45;&gt;T207857:f0</title>
<path fill="none" stroke="#5b00c0" d="M135.5,-30C135.5,-66.011 86.7545,-28.4691 56.5,-48 44.302,-55.8745 35.7885,-60.4122 32.7396,-71.0159"/>
<polygon fill="#5b00c0" stroke="#5b00c0" points="29.2588,-70.6449 31.5,-81 36.2055,-71.5075 29.2588,-70.6449"/>
<text text-anchor="middle" x="64" y="-51.8" font-family="Times,serif" font-size="14.00" fill="#5b00c0">rw</text>
</g>
</g>
</svg>
