<?xml version="1.0" encoding="UTF-8" standalone="no"?>
<!DOCTYPE svg PUBLIC "-//W3C//DTD SVG 1.1//EN"
 "http://www.w3.org/Graphics/SVG/1.1/DTD/svg11.dtd">
<!-- Generated by graphviz version 2.40.1 (20161225.0304)
 -->
<!-- Title: a_graph Pages: 1 -->
<svg width="213pt" height="200pt"
 viewBox="0.00 0.00 213.00 200.00" xmlns="http://www.w3.org/2000/svg" xmlns:xlink="http://www.w3.org/1999/xlink">
<g id="graph0" class="graph" transform="scale(1 1) rotate(0) translate(4 196)">
<title>a_graph</title>
<polygon fill="#ffffff" stroke="transparent" points="-4,4 -4,-196 209,-196 209,4 -4,4"/>
<!-- T1015 -->
<g id="node1" class="node">
<title>T1015</title>
<polygon fill="none" stroke="#0058ad" points="60,-162.5 60,-191.5 175,-191.5 175,-162.5 60,-162.5"/>
<text text-anchor="middle" x="88.5" y="-173.3" font-family="Times,serif" font-size="14.00" fill="#0058ad">a 17 13</text>
<polyline fill="none" stroke="#0058ad" points="117,-162.5 117,-191.5 "/>
<text text-anchor="middle" x="146" y="-173.3" font-family="Times,serif" font-size="14.00" fill="#0058ad">r 18 [1]</text>
</g>
<!-- T1013 -->
<g id="node3" class="node">
<title>T1013</title>
<polygon fill="none" stroke="#0058ad" points="126.5,-81.5 126.5,-110.5 180.5,-110.5 180.5,-81.5 126.5,-81.5"/>
<text text-anchor="middle" x="153.5" y="-92.3" font-family="Times,serif" font-size="14.00" fill="#0058ad">a 18 2</text>
</g>
<!-- T1015&#45;&gt;T1013 -->
<g id="edge1" class="edge">
<title>T1015:f1&#45;&gt;T1013:f0</title>
<path fill="none" stroke="#5b00c0" d="M146.5,-162C146.5,-148.2755 148.0153,-133.0347 149.6359,-120.6597"/>
<polygon fill="#5b00c0" stroke="#5b00c0" points="153.1192,-121.0237 151.0517,-110.6325 146.1879,-120.0449 153.1192,-121.0237"/>
<text text-anchor="middle" x="156" y="-132.8" font-family="Times,serif" font-size="14.00" fill="#5b00c0">rw</text>
</g>
<!-- T1021 -->
<g id="node2" class="node">
<title>T1021</title>
<polygon fill="none" stroke="#0058ad" points="0,-.5 0,-29.5 205,-29.5 205,-.5 0,-.5"/>
<text text-anchor="middle" x="77.5" y="-11.3" font-family="Times,serif" font-size="14.00" fill="#0058ad">r 17 [1 3 4 6 7 8 9 11 12]</text>
<polyline fill="none" stroke="#0058ad" points="155,-.5 155,-29.5 "/>
<text text-anchor="middle" x="180" y="-11.3" font-family="Times,serif" font-size="14.00" fill="#0058ad">a 18 6</text>
</g>
<!-- T1021&#45;&gt;T1015 -->
<g id="edge2" class="edge">
<title>T1021:f0&#45;&gt;T1015:f0</title>
<path fill="none" stroke="#5b00c0" d="M77.5,-30C77.5,-85.3056 87.2083,-101.2397 88.3839,-151.7776"/>
<polygon fill="#5b00c0" stroke="#5b00c0" points="84.8866,-152.0404 88.5,-162 91.8861,-151.9609 84.8866,-152.0404"/>
<text text-anchor="middle" x="93" y="-92.3" font-family="Times,serif" font-size="14.00" fill="#5b00c0">rw</text>
</g>
<!-- T1013&#45;&gt;T1021 -->
<g id="edge3" class="edge">
<title>T1013:f0&#45;&gt;T1021:f1</title>
<path fill="none" stroke="#c02700" d="M163.2476,-81.4895C169.5918,-70.8808 177.1369,-55.6917 179.6436,-40.1883"/>
<polygon fill="#c02700" stroke="#c02700" points="183.15,-40.2581 180.5,-30 176.1746,-39.6717 183.15,-40.2581"/>
<text text-anchor="middle" x="187.5" y="-51.8" font-family="Times,serif" font-size="14.00" fill="#c02700">ww</text>
</g>
</g>
</svg>
