<?xml version="1.0" encoding="UTF-8" standalone="no"?>
<!DOCTYPE svg PUBLIC "-//W3C//DTD SVG 1.1//EN"
 "http://www.w3.org/Graphics/SVG/1.1/DTD/svg11.dtd">
<!-- Generated by graphviz version 2.40.1 (20161225.0304)
 -->
<!-- Title: a_graph Pages: 1 -->
<svg width="507pt" height="281pt"
 viewBox="0.00 0.00 506.50 281.00" xmlns="http://www.w3.org/2000/svg" xmlns:xlink="http://www.w3.org/1999/xlink">
<g id="graph0" class="graph" transform="scale(1 1) rotate(0) translate(4 277)">
<title>a_graph</title>
<polygon fill="#ffffff" stroke="transparent" points="-4,4 -4,-277 502.5,-277 502.5,4 -4,4"/>
<!-- T213157 -->
<g id="node1" class="node">
<title>T213157</title>
<polygon fill="none" stroke="#0058ad" points="154.5,-243.5 154.5,-272.5 397.5,-272.5 397.5,-243.5 154.5,-243.5"/>
<text text-anchor="middle" x="240.5" y="-254.3" font-family="Times,serif" font-size="14.00" fill="#0058ad">r 2460 [1 3 4 8 13 14 16 17]</text>
<polyline fill="none" stroke="#0058ad" points="326.5,-243.5 326.5,-272.5 "/>
<text text-anchor="middle" x="362" y="-254.3" font-family="Times,serif" font-size="14.00" fill="#0058ad">a 2457 24</text>
</g>
<!-- T213149 -->
<g id="node3" class="node">
<title>T213149</title>
<polygon fill="none" stroke="#0058ad" points="0,-162.5 0,-191.5 326,-191.5 326,-162.5 0,-162.5"/>
<text text-anchor="middle" x="35.5" y="-173.3" font-family="Times,serif" font-size="14.00" fill="#0058ad">a 2460 19</text>
<polyline fill="none" stroke="#0058ad" points="71,-162.5 71,-191.5 "/>
<text text-anchor="middle" x="198.5" y="-173.3" font-family="Times,serif" font-size="14.00" fill="#0058ad">r 2457 [1 2 4 5 7 8 9 10 11 13 15 17 19 21]</text>
</g>
<!-- T213157&#45;&gt;T213149 -->
<g id="edge1" class="edge">
<title>T213157:f0&#45;&gt;T213149:f0</title>
<path fill="none" stroke="#5b00c0" d="M154,-258C97.0649,-258 41.8647,-253.1068 35.5914,-202.0749"/>
<polygon fill="#5b00c0" stroke="#5b00c0" points="39.08,-201.7777 35,-192 32.0921,-202.1879 39.08,-201.7777"/>
<text text-anchor="middle" x="50.5" y="-213.8" font-family="Times,serif" font-size="14.00" fill="#5b00c0">rw</text>
</g>
<!-- T213145 -->
<g id="node2" class="node">
<title>T213145</title>
<polygon fill="none" stroke="#0058ad" points="107.5,-81.5 107.5,-110.5 350.5,-110.5 350.5,-81.5 107.5,-81.5"/>
<text text-anchor="middle" x="193.5" y="-92.3" font-family="Times,serif" font-size="14.00" fill="#0058ad">r 2460 [1 3 4 8 13 14 16 17]</text>
<polyline fill="none" stroke="#0058ad" points="279.5,-81.5 279.5,-110.5 "/>
<text text-anchor="middle" x="315" y="-92.3" font-family="Times,serif" font-size="14.00" fill="#0058ad">a 2457 23</text>
</g>
<!-- T213145&#45;&gt;T213157 -->
<g id="edge2" class="edge">
<title>T213145:f1&#45;&gt;T213157:f1</title>
<path fill="none" stroke="#c02700" d="M351,-96C380.9429,-96 365.337,-191.4504 362.4337,-232.8735"/>
<polygon fill="#c02700" stroke="#c02700" points="358.9311,-232.8594 362,-243 365.9247,-233.1589 358.9311,-232.8594"/>
<text text-anchor="middle" x="378" y="-173.3" font-family="Times,serif" font-size="14.00" fill="#c02700">ww</text>
</g>
<!-- T213145&#45;&gt;T213149 -->
<g id="edge3" class="edge">
<title>T213145:f0&#45;&gt;T213149:f0</title>
<path fill="none" stroke="#5b00c0" d="M107,-96C67.1508,-96 39.7902,-115.0357 35.5696,-151.7383"/>
<polygon fill="#5b00c0" stroke="#5b00c0" points="32.0596,-151.8214 35,-162 39.0489,-152.2094 32.0596,-151.8214"/>
<text text-anchor="middle" x="49.5" y="-132.8" font-family="Times,serif" font-size="14.00" fill="#5b00c0">rw</text>
</g>
<!-- T213163 -->
<g id="node4" class="node">
<title>T213163</title>
<polygon fill="none" stroke="#0058ad" points="155.5,-.5 155.5,-29.5 498.5,-29.5 498.5,-.5 155.5,-.5"/>
<text text-anchor="middle" x="191" y="-11.3" font-family="Times,serif" font-size="14.00" fill="#0058ad">a 2459 18</text>
<polyline fill="none" stroke="#0058ad" points="226.5,-.5 226.5,-29.5 "/>
<text text-anchor="middle" x="362.5" y="-11.3" font-family="Times,serif" font-size="14.00" fill="#0058ad">r 2457 [1 2 4 5 7 8 9 10 11 13 15 17 19 21 23]</text>
</g>
<!-- T213145&#45;&gt;T213163 -->
<g id="edge4" class="edge">
<title>T213145:f1&#45;&gt;T213163:f1</title>
<path fill="none" stroke="#c000a5" d="M351,-96C377.4368,-96 366.4248,-67.5482 363.5907,-40.3156"/>
<polygon fill="#c000a5" stroke="#c000a5" points="367.066,-39.7835 363,-30 360.0775,-40.1838 367.066,-39.7835"/>
<text text-anchor="middle" x="373.5" y="-51.8" font-family="Times,serif" font-size="14.00" fill="#c000a5">wr</text>
</g>
<!-- T213149&#45;&gt;T213145 -->
<g id="edge5" class="edge">
<title>T213149:f1&#45;&gt;T213145:f1</title>
<path fill="none" stroke="#5b00c0" d="M199,-162C199,-109.6416 299.261,-159.2338 313.3602,-121.2122"/>
<polygon fill="#5b00c0" stroke="#5b00c0" points="316.8702,-121.4285 315,-111 309.9588,-120.3186 316.8702,-121.4285"/>
<text text-anchor="middle" x="314.5" y="-132.8" font-family="Times,serif" font-size="14.00" fill="#5b00c0">rw</text>
</g>
<!-- T213163&#45;&gt;T213157 -->
<g id="edge6" class="edge">
<title>T213163:f1&#45;&gt;T213157:f1</title>
<path fill="none" stroke="#5b00c0" d="M363,-30C363,-42.6335 379.213,-36.7699 385,-48 443.9091,-162.3187 419.4592,-229.5023 405.1431,-250.6772"/>
<polygon fill="#5b00c0" stroke="#5b00c0" points="402.4773,-248.3977 398,-258 407.4882,-253.2856 402.4773,-248.3977"/>
<text text-anchor="middle" x="426.5" y="-132.8" font-family="Times,serif" font-size="14.00" fill="#5b00c0">rw</text>
</g>
</g>
</svg>
