<?xml version="1.0" encoding="UTF-8" standalone="no"?>
<!DOCTYPE svg PUBLIC "-//W3C//DTD SVG 1.1//EN"
 "http://www.w3.org/Graphics/SVG/1.1/DTD/svg11.dtd">
<!-- Generated by graphviz version 2.40.1 (20161225.0304)
 -->
<!-- Title: a_graph Pages: 1 -->
<svg width="337pt" height="119pt"
 viewBox="0.00 0.00 337.00 119.00" xmlns="http://www.w3.org/2000/svg" xmlns:xlink="http://www.w3.org/1999/xlink">
<g id="graph0" class="graph" transform="scale(1 1) rotate(0) translate(4 115)">
<title>a_graph</title>
<polygon fill="#ffffff" stroke="transparent" points="-4,4 -4,-115 333,-115 333,4 -4,4"/>
<!-- T225997 -->
<g id="node1" class="node">
<title>T225997</title>
<polygon fill="none" stroke="#0058ad" points="0,-81.5 0,-110.5 329,-110.5 329,-81.5 0,-81.5"/>
<text text-anchor="middle" x="35.5" y="-92.3" font-family="Times,serif" font-size="14.00" fill="#0058ad">a 2604 21</text>
<polyline fill="none" stroke="#0058ad" points="71,-81.5 71,-110.5 "/>
<text text-anchor="middle" x="200" y="-92.3" font-family="Times,serif" font-size="14.00" fill="#0058ad">r 2608 [1 3 4 9 11 12 15 16 17 19 21 22 25]</text>
</g>
<!-- T226001 -->
<g id="node2" class="node">
<title>T226001</title>
<polygon fill="none" stroke="#0058ad" points="16,-.5 16,-29.5 279,-29.5 279,-.5 16,-.5"/>
<text text-anchor="middle" x="51.5" y="-11.3" font-family="Times,serif" font-size="14.00" fill="#0058ad">a 2608 27</text>
<polyline fill="none" stroke="#0058ad" points="87,-.5 87,-29.5 "/>
<text text-anchor="middle" x="183" y="-11.3" font-family="Times,serif" font-size="14.00" fill="#0058ad">r 2604 [9 10 12 13 15 18 19 20]</text>
</g>
<!-- T225997&#45;&gt;T226001 -->
<g id="edge1" class="edge">
<title>T225997:f1&#45;&gt;T226001:f0</title>
<path fill="none" stroke="#5b00c0" d="M200.5,-81C200.5,-65.8939 89.4571,-51.9023 59.0938,-37.1009"/>
<polygon fill="#5b00c0" stroke="#5b00c0" points="61.1947,-34.2736 51.5,-30 56.4136,-39.3865 61.1947,-34.2736"/>
<text text-anchor="middle" x="163" y="-51.8" font-family="Times,serif" font-size="14.00" fill="#5b00c0">rw</text>
</g>
<!-- T226001&#45;&gt;T225997 -->
<g id="edge2" class="edge">
<title>T226001:f1&#45;&gt;T225997:f0</title>
<path fill="none" stroke="#5b00c0" d="M183.5,-30C183.5,-54.1119 98.4947,-38.12 76.5,-48 58.8298,-55.9374 42.3084,-57.3179 37.1512,-70.8425"/>
<polygon fill="#5b00c0" stroke="#5b00c0" points="33.65,-70.5679 35.5,-81 40.5593,-71.6912 33.65,-70.5679"/>
<text text-anchor="middle" x="84" y="-51.8" font-family="Times,serif" font-size="14.00" fill="#5b00c0">rw</text>
</g>
</g>
</svg>
