<?xml version="1.0" encoding="UTF-8" standalone="no"?>
<!DOCTYPE svg PUBLIC "-//W3C//DTD SVG 1.1//EN"
 "http://www.w3.org/Graphics/SVG/1.1/DTD/svg11.dtd">
<!-- Generated by graphviz version 2.40.1 (20161225.0304)
 -->
<!-- Title: a_graph Pages: 1 -->
<svg width="303pt" height="119pt"
 viewBox="0.00 0.00 302.50 119.00" xmlns="http://www.w3.org/2000/svg" xmlns:xlink="http://www.w3.org/1999/xlink">
<g id="graph0" class="graph" transform="scale(1 1) rotate(0) translate(4 115)">
<title>a_graph</title>
<polygon fill="#ffffff" stroke="transparent" points="-4,4 -4,-115 298.5,-115 298.5,4 -4,4"/>
<!-- T70012 -->
<g id="node1" class="node">
<title>T70012</title>
<polygon fill="none" stroke="#0058ad" points="0,-81.5 0,-110.5 264,-110.5 264,-81.5 0,-81.5"/>
<text text-anchor="middle" x="100" y="-92.3" font-family="Times,serif" font-size="14.00" fill="#0058ad">r 810 [1 3 5 7 10 11 13 16 18 19]</text>
<polyline fill="none" stroke="#0058ad" points="200,-81.5 200,-110.5 "/>
<text text-anchor="middle" x="232" y="-92.3" font-family="Times,serif" font-size="14.00" fill="#0058ad">a 809 12</text>
</g>
<!-- T70013 -->
<g id="node2" class="node">
<title>T70013</title>
<polygon fill="none" stroke="#0058ad" points="89.5,-.5 89.5,-29.5 294.5,-29.5 294.5,-.5 89.5,-.5"/>
<text text-anchor="middle" x="121.5" y="-11.3" font-family="Times,serif" font-size="14.00" fill="#0058ad">a 810 20</text>
<polyline fill="none" stroke="#0058ad" points="153.5,-.5 153.5,-29.5 "/>
<text text-anchor="middle" x="224" y="-11.3" font-family="Times,serif" font-size="14.00" fill="#0058ad">r 809 [1 3 5 7 9 10 11]</text>
</g>
<!-- T70012&#45;&gt;T70013 -->
<g id="edge1" class="edge">
<title>T70012:f0&#45;&gt;T70013:f0</title>
<path fill="none" stroke="#5b00c0" d="M100,-81C100,-60.3171 114.9502,-55.6802 119.6221,-40.0116"/>
<polygon fill="#5b00c0" stroke="#5b00c0" points="123.1038,-40.3838 121,-30 116.1692,-39.4294 123.1038,-40.3838"/>
<text text-anchor="middle" x="123.5" y="-51.8" font-family="Times,serif" font-size="14.00" fill="#5b00c0">rw</text>
</g>
<!-- T70013&#45;&gt;T70012 -->
<g id="edge2" class="edge">
<title>T70013:f1&#45;&gt;T70012:f1</title>
<path fill="none" stroke="#5b00c0" d="M224,-30C224,-49.1796 229.5903,-55.8987 231.4247,-70.9897"/>
<polygon fill="#5b00c0" stroke="#5b00c0" points="227.9319,-71.2173 232,-81 234.9203,-70.8156 227.9319,-71.2173"/>
<text text-anchor="middle" x="236.5" y="-51.8" font-family="Times,serif" font-size="14.00" fill="#5b00c0">rw</text>
</g>
</g>
</svg>
