<?xml version="1.0" encoding="UTF-8" standalone="no"?>
<!DOCTYPE svg PUBLIC "-//W3C//DTD SVG 1.1//EN"
 "http://www.w3.org/Graphics/SVG/1.1/DTD/svg11.dtd">
<!-- Generated by graphviz version 2.40.1 (20161225.0304)
 -->
<!-- Title: a_graph Pages: 1 -->
<svg width="154pt" height="119pt"
 viewBox="0.00 0.00 154.00 119.00" xmlns="http://www.w3.org/2000/svg" xmlns:xlink="http://www.w3.org/1999/xlink">
<g id="graph0" class="graph" transform="scale(1 1) rotate(0) translate(4 115)">
<title>a_graph</title>
<polygon fill="#ffffff" stroke="transparent" points="-4,4 -4,-115 150,-115 150,4 -4,4"/>
<!-- T227983 -->
<g id="node1" class="node">
<title>T227983</title>
<polygon fill="none" stroke="#0058ad" points="12.5,-81.5 12.5,-110.5 141.5,-110.5 141.5,-81.5 12.5,-81.5"/>
<text text-anchor="middle" x="45" y="-92.3" font-family="Times,serif" font-size="14.00" fill="#0058ad">r 2633 []</text>
<polyline fill="none" stroke="#0058ad" points="77.5,-81.5 77.5,-110.5 "/>
<text text-anchor="middle" x="109.5" y="-92.3" font-family="Times,serif" font-size="14.00" fill="#0058ad">a 2632 4</text>
</g>
<!-- T227989 -->
<g id="node2" class="node">
<title>T227989</title>
<polygon fill="none" stroke="#0058ad" points="0,-.5 0,-29.5 146,-29.5 146,-.5 0,-.5"/>
<text text-anchor="middle" x="41" y="-11.3" font-family="Times,serif" font-size="14.00" fill="#0058ad">r 2632 [1 3]</text>
<polyline fill="none" stroke="#0058ad" points="82,-.5 82,-29.5 "/>
<text text-anchor="middle" x="114" y="-11.3" font-family="Times,serif" font-size="14.00" fill="#0058ad">a 2633 1</text>
</g>
<!-- T227983&#45;&gt;T227989 -->
<g id="edge1" class="edge">
<title>T227983:f0&#45;&gt;T227989:f1</title>
<path fill="none" stroke="#5b00c0" d="M45,-81C45,-63.6155 52.4978,-58.9504 66,-48 79.9632,-36.6757 101.7764,-46.2012 110.3576,-39.5302"/>
<polygon fill="#5b00c0" stroke="#5b00c0" points="113.6992,-40.5906 114,-30 107.1605,-38.0915 113.6992,-40.5906"/>
<text text-anchor="middle" x="73.5" y="-51.8" font-family="Times,serif" font-size="14.00" fill="#5b00c0">rw</text>
</g>
<!-- T227989&#45;&gt;T227983 -->
<g id="edge2" class="edge">
<title>T227989:f0&#45;&gt;T227983:f1</title>
<path fill="none" stroke="#5b00c0" d="M41,-30C41,-49.4949 65.3207,-36.4151 81,-48 93.5139,-57.2461 104.499,-60.3128 108.4455,-71.0574"/>
<polygon fill="#5b00c0" stroke="#5b00c0" points="104.9972,-71.6607 110,-81 111.9131,-70.5793 104.9972,-71.6607"/>
<text text-anchor="middle" x="110.5" y="-51.8" font-family="Times,serif" font-size="14.00" fill="#5b00c0">rw</text>
</g>
</g>
</svg>
