<?xml version="1.0" encoding="UTF-8" standalone="no"?>
<!DOCTYPE svg PUBLIC "-//W3C//DTD SVG 1.1//EN"
 "http://www.w3.org/Graphics/SVG/1.1/DTD/svg11.dtd">
<!-- Generated by graphviz version 2.40.1 (20161225.0304)
 -->
<!-- Title: a_graph Pages: 1 -->
<svg width="567pt" height="200pt"
 viewBox="0.00 0.00 567.00 200.00" xmlns="http://www.w3.org/2000/svg" xmlns:xlink="http://www.w3.org/1999/xlink">
<g id="graph0" class="graph" transform="scale(1 1) rotate(0) translate(4 196)">
<title>a_graph</title>
<polygon fill="#ffffff" stroke="transparent" points="-4,4 -4,-196 563,-196 563,4 -4,4"/>
<!-- T12907 -->
<g id="node1" class="node">
<title>T12907</title>
<polygon fill="none" stroke="#0058ad" points="229,-162.5 229,-191.5 559,-191.5 559,-162.5 229,-162.5"/>
<text text-anchor="middle" x="258" y="-173.3" font-family="Times,serif" font-size="14.00" fill="#0058ad">r 153 []</text>
<polyline fill="none" stroke="#0058ad" points="287,-162.5 287,-191.5 "/>
<text text-anchor="middle" x="423" y="-173.3" font-family="Times,serif" font-size="14.00" fill="#0058ad">r 150 [1 2 3 6 7 9 11 17 18 22 23 24 25 26 27]</text>
</g>
<!-- T12904 -->
<g id="node3" class="node">
<title>T12904</title>
<polygon fill="none" stroke="#0058ad" points="0,-81.5 0,-110.5 312,-110.5 312,-81.5 0,-81.5"/>
<text text-anchor="middle" x="127.5" y="-92.3" font-family="Times,serif" font-size="14.00" fill="#0058ad">r 150 [1 2 3 6 7 9 11 17 18 22 23 24 25 26]</text>
<polyline fill="none" stroke="#0058ad" points="255,-81.5 255,-110.5 "/>
<text text-anchor="middle" x="283.5" y="-92.3" font-family="Times,serif" font-size="14.00" fill="#0058ad">a 153 1</text>
</g>
<!-- T12907&#45;&gt;T12904 -->
<g id="edge1" class="edge">
<title>T12907:f0&#45;&gt;T12904:f1</title>
<path fill="none" stroke="#5b00c0" d="M258,-162C258,-140.5331 276.5098,-137.0967 282.2941,-121.2643"/>
<polygon fill="#5b00c0" stroke="#5b00c0" points="285.813,-121.4385 284,-111 278.9078,-120.2908 285.813,-121.4385"/>
<text text-anchor="middle" x="284.5" y="-132.8" font-family="Times,serif" font-size="14.00" fill="#5b00c0">rw</text>
</g>
<!-- T12900 -->
<g id="node2" class="node">
<title>T12900</title>
<polygon fill="none" stroke="#0058ad" points="173,-.5 173,-29.5 295,-29.5 295,-.5 173,-.5"/>
<text text-anchor="middle" x="202" y="-11.3" font-family="Times,serif" font-size="14.00" fill="#0058ad">r 152 []</text>
<polyline fill="none" stroke="#0058ad" points="231,-.5 231,-29.5 "/>
<text text-anchor="middle" x="263" y="-11.3" font-family="Times,serif" font-size="14.00" fill="#0058ad">a 150 27</text>
</g>
<!-- T12900&#45;&gt;T12907 -->
<g id="edge2" class="edge">
<title>T12900:f1&#45;&gt;T12907:f1</title>
<path fill="none" stroke="#c000a5" d="M295,-15C378.2462,-15 419.6989,-70.7455 422.8104,-151.9703"/>
<polygon fill="#c000a5" stroke="#c000a5" points="419.3115,-152.068 423,-162 426.3103,-151.9356 419.3115,-152.068"/>
<text text-anchor="middle" x="424.5" y="-92.3" font-family="Times,serif" font-size="14.00" fill="#c000a5">wr</text>
</g>
<!-- T12904&#45;&gt;T12900 -->
<g id="edge3" class="edge">
<title>T12904:f0&#45;&gt;T12900:f1</title>
<path fill="none" stroke="#5b00c0" d="M127,-81C127,-20.2278 247.5294,-85.891 261.654,-39.9355"/>
<polygon fill="#5b00c0" stroke="#5b00c0" points="265.1257,-40.3794 263,-30 258.1891,-39.4396 265.1257,-40.3794"/>
<text text-anchor="middle" x="262.5" y="-51.8" font-family="Times,serif" font-size="14.00" fill="#5b00c0">rw</text>
</g>
</g>
</svg>
