<?xml version="1.0" encoding="UTF-8" standalone="no"?>
<!DOCTYPE svg PUBLIC "-//W3C//DTD SVG 1.1//EN"
 "http://www.w3.org/Graphics/SVG/1.1/DTD/svg11.dtd">
<!-- Generated by graphviz version 2.40.1 (20161225.0304)
 -->
<!-- Title: a_graph Pages: 1 -->
<svg width="549pt" height="200pt"
 viewBox="0.00 0.00 548.50 200.00" xmlns="http://www.w3.org/2000/svg" xmlns:xlink="http://www.w3.org/1999/xlink">
<g id="graph0" class="graph" transform="scale(1 1) rotate(0) translate(4 196)">
<title>a_graph</title>
<polygon fill="#ffffff" stroke="transparent" points="-4,4 -4,-196 544.5,-196 544.5,4 -4,4"/>
<!-- T2291 -->
<g id="node1" class="node">
<title>T2291</title>
<polygon fill="none" stroke="#0058ad" points="297.5,-162.5 297.5,-191.5 354.5,-191.5 354.5,-162.5 297.5,-162.5"/>
<text text-anchor="middle" x="326" y="-173.3" font-family="Times,serif" font-size="14.00" fill="#0058ad">a 31 25</text>
</g>
<!-- T2296 -->
<g id="node2" class="node">
<title>T2296</title>
<polygon fill="none" stroke="#0058ad" points="0,-81.5 0,-110.5 348,-110.5 348,-81.5 0,-81.5"/>
<text text-anchor="middle" x="124" y="-92.3" font-family="Times,serif" font-size="14.00" fill="#0058ad">r 31 [1 2 4 5 7 9 11 15 17 18 20 21 22 25]</text>
<polyline fill="none" stroke="#0058ad" points="248,-81.5 248,-110.5 "/>
<text text-anchor="middle" x="298" y="-92.3" font-family="Times,serif" font-size="14.00" fill="#0058ad">r 32 [1 2 3 4 6]</text>
</g>
<!-- T2291&#45;&gt;T2296 -->
<g id="edge1" class="edge">
<title>T2291:f0&#45;&gt;T2296:f0</title>
<path fill="none" stroke="#c000a5" d="M298.9216,-162.3829C298.6135,-162.253 298.3062,-162.1253 298,-162 226.768,-132.8476 132.8819,-186.3691 124.5906,-121.0295"/>
<polygon fill="#c000a5" stroke="#c000a5" points="128.0819,-120.7769 124,-111 121.094,-121.1885 128.0819,-120.7769"/>
<text text-anchor="middle" x="140.5" y="-132.8" font-family="Times,serif" font-size="14.00" fill="#c000a5">wr</text>
</g>
<!-- T2295 -->
<g id="node3" class="node">
<title>T2295</title>
<polygon fill="none" stroke="#0058ad" points="259.5,-.5 259.5,-29.5 540.5,-29.5 540.5,-.5 259.5,-.5"/>
<text text-anchor="middle" x="284.5" y="-11.3" font-family="Times,serif" font-size="14.00" fill="#0058ad">a 32 8</text>
<polyline fill="none" stroke="#0058ad" points="309.5,-.5 309.5,-29.5 "/>
<text text-anchor="middle" x="425" y="-11.3" font-family="Times,serif" font-size="14.00" fill="#0058ad">r 31 [1 2 4 5 7 9 11 15 17 18 20 21 22]</text>
</g>
<!-- T2296&#45;&gt;T2295 -->
<g id="edge2" class="edge">
<title>T2296:f1&#45;&gt;T2295:f0</title>
<path fill="none" stroke="#5b00c0" d="M298,-81C298,-61.3511 288.2169,-55.3396 285.0068,-40.1654"/>
<polygon fill="#5b00c0" stroke="#5b00c0" points="288.4687,-39.6063 284,-30 281.5028,-40.2963 288.4687,-39.6063"/>
<text text-anchor="middle" x="302.5" y="-51.8" font-family="Times,serif" font-size="14.00" fill="#5b00c0">rw</text>
</g>
<!-- T2295&#45;&gt;T2291 -->
<g id="edge3" class="edge">
<title>T2295:f1&#45;&gt;T2291:f0</title>
<path fill="none" stroke="#5b00c0" d="M425,-30C425,-82.0306 381.8033,-129.4638 352.4773,-155.6708"/>
<polygon fill="#5b00c0" stroke="#5b00c0" points="349.8816,-153.2891 344.6211,-162.4858 354.4685,-158.5768 349.8816,-153.2891"/>
<text text-anchor="middle" x="419.5" y="-92.3" font-family="Times,serif" font-size="14.00" fill="#5b00c0">rw</text>
</g>
</g>
</svg>
