<?xml version="1.0" encoding="UTF-8" standalone="no"?>
<!DOCTYPE svg PUBLIC "-//W3C//DTD SVG 1.1//EN"
 "http://www.w3.org/Graphics/SVG/1.1/DTD/svg11.dtd">
<!-- Generated by graphviz version 2.40.1 (20161225.0304)
 -->
<!-- Title: a_graph Pages: 1 -->
<svg width="327pt" height="281pt"
 viewBox="0.00 0.00 326.50 281.00" xmlns="http://www.w3.org/2000/svg" xmlns:xlink="http://www.w3.org/1999/xlink">
<g id="graph0" class="graph" transform="scale(1 1) rotate(0) translate(4 277)">
<title>a_graph</title>
<polygon fill="#ffffff" stroke="transparent" points="-4,4 -4,-277 322.5,-277 322.5,4 -4,4"/>
<!-- T213261 -->
<g id="node1" class="node">
<title>T213261</title>
<polygon fill="none" stroke="#0058ad" points="0,-243.5 0,-272.5 184,-272.5 184,-243.5 0,-243.5"/>
<text text-anchor="middle" x="56.5" y="-254.3" font-family="Times,serif" font-size="14.00" fill="#0058ad">r 2461 [1 3 5 6 9]</text>
<polyline fill="none" stroke="#0058ad" points="113,-243.5 113,-272.5 "/>
<text text-anchor="middle" x="148.5" y="-254.3" font-family="Times,serif" font-size="14.00" fill="#0058ad">a 2461 10</text>
</g>
<!-- T213265 -->
<g id="node2" class="node">
<title>T213265</title>
<polygon fill="none" stroke="#0058ad" points="187.5,-162.5 187.5,-191.5 318.5,-191.5 318.5,-162.5 187.5,-162.5"/>
<text text-anchor="middle" x="253" y="-173.3" font-family="Times,serif" font-size="14.00" fill="#0058ad">r 2461 [1 3 5 6 9 10]</text>
</g>
<!-- T213261&#45;&gt;T213265 -->
<g id="edge2" class="edge">
<title>T213261:f1&#45;&gt;T213265:f0</title>
<path fill="none" stroke="#c000a5" d="M184,-258C214.0649,-258 233.7904,-225.2624 244.1715,-201.4125"/>
<polygon fill="#c000a5" stroke="#c000a5" points="247.5323,-202.4388 248.0514,-191.8566 241.0465,-199.8054 247.5323,-202.4388"/>
<text text-anchor="middle" x="247.5" y="-213.8" font-family="Times,serif" font-size="14.00" fill="#c000a5">wr</text>
</g>
<!-- T213269 -->
<g id="node4" class="node">
<title>T213269</title>
<polygon fill="none" stroke="#0058ad" points="146,-81.5 146,-110.5 288,-110.5 288,-81.5 146,-81.5"/>
<text text-anchor="middle" x="181.5" y="-92.3" font-family="Times,serif" font-size="14.00" fill="#0058ad">r 2462 [1]</text>
<polyline fill="none" stroke="#0058ad" points="217,-81.5 217,-110.5 "/>
<text text-anchor="middle" x="252.5" y="-92.3" font-family="Times,serif" font-size="14.00" fill="#0058ad">a 2461 14</text>
</g>
<!-- T213261&#45;&gt;T213269 -->
<g id="edge1" class="edge">
<title>T213261:f1&#45;&gt;T213269:f1</title>
<path fill="none" stroke="#c02700" d="M149,-243C149,-206.7267 138.5706,-191.9732 159,-162 183.5736,-125.9465 242.2423,-153.1614 251.7022,-121.1021"/>
<polygon fill="#c02700" stroke="#c02700" points="255.1972,-121.3645 253,-111 248.2543,-120.4725 255.1972,-121.3645"/>
<text text-anchor="middle" x="169" y="-173.3" font-family="Times,serif" font-size="14.00" fill="#c02700">ww</text>
</g>
<!-- T213265&#45;&gt;T213269 -->
<g id="edge3" class="edge">
<title>T213265:f0&#45;&gt;T213269:f1</title>
<path fill="none" stroke="#5b00c0" d="M253,-162.3204C253,-151.4532 253,-136.0147 253,-121.1425"/>
<polygon fill="#5b00c0" stroke="#5b00c0" points="256.5001,-121 253,-111 249.5001,-121 256.5001,-121"/>
<text text-anchor="middle" x="260.5" y="-132.8" font-family="Times,serif" font-size="14.00" fill="#5b00c0">rw</text>
</g>
<!-- T213267 -->
<g id="node3" class="node">
<title>T213267</title>
<polygon fill="none" stroke="#0058ad" points="38.5,-.5 38.5,-29.5 215.5,-29.5 215.5,-.5 38.5,-.5"/>
<text text-anchor="middle" x="95" y="-11.3" font-family="Times,serif" font-size="14.00" fill="#0058ad">r 2461 [1 3 5 6 9]</text>
<polyline fill="none" stroke="#0058ad" points="151.5,-.5 151.5,-29.5 "/>
<text text-anchor="middle" x="183.5" y="-11.3" font-family="Times,serif" font-size="14.00" fill="#0058ad">a 2462 4</text>
</g>
<!-- T213267&#45;&gt;T213261 -->
<g id="edge4" class="edge">
<title>T213267:f0&#45;&gt;T213261:f1</title>
<path fill="none" stroke="#5b00c0" d="M95,-30C95,-119.1485 115.3396,-139.9313 142,-225 143.2033,-228.8394 144.8166,-231.1484 146.1911,-233.4022"/>
<polygon fill="#5b00c0" stroke="#5b00c0" points="142.832,-234.3857 149,-243 149.5502,-232.4195 142.832,-234.3857"/>
<text text-anchor="middle" x="121.5" y="-132.8" font-family="Times,serif" font-size="14.00" fill="#5b00c0">rw</text>
</g>
<!-- T213269&#45;&gt;T213267 -->
<g id="edge5" class="edge">
<title>T213269:f0&#45;&gt;T213267:f1</title>
<path fill="none" stroke="#5b00c0" d="M181,-81C181,-62.1967 183.0574,-55.1325 183.7646,-40.3645"/>
<polygon fill="#5b00c0" stroke="#5b00c0" points="187.2719,-40.0769 184,-30 180.2737,-39.9179 187.2719,-40.0769"/>
<text text-anchor="middle" x="190.5" y="-51.8" font-family="Times,serif" font-size="14.00" fill="#5b00c0">rw</text>
</g>
</g>
</svg>
