<?xml version="1.0" encoding="UTF-8" standalone="no"?>
<!DOCTYPE svg PUBLIC "-//W3C//DTD SVG 1.1//EN"
 "http://www.w3.org/Graphics/SVG/1.1/DTD/svg11.dtd">
<!-- Generated by graphviz version 2.40.1 (20161225.0304)
 -->
<!-- Title: a_graph Pages: 1 -->
<svg width="417pt" height="362pt"
 viewBox="0.00 0.00 417.00 362.00" xmlns="http://www.w3.org/2000/svg" xmlns:xlink="http://www.w3.org/1999/xlink">
<g id="graph0" class="graph" transform="scale(1 1) rotate(0) translate(4 358)">
<title>a_graph</title>
<polygon fill="#ffffff" stroke="transparent" points="-4,4 -4,-358 413,-358 413,4 -4,4"/>
<!-- T6151 -->
<g id="node1" class="node">
<title>T6151</title>
<polygon fill="none" stroke="#0058ad" points="172,-324.5 172,-353.5 324,-353.5 324,-324.5 172,-324.5"/>
<text text-anchor="middle" x="248" y="-335.3" font-family="Times,serif" font-size="14.00" fill="#0058ad">r 75 [2 3 5 6 9 11 12 14]</text>
</g>
<!-- T6177 -->
<g id="node4" class="node">
<title>T6177</title>
<polygon fill="none" stroke="#0058ad" points="85,-243.5 85,-272.5 241,-272.5 241,-243.5 85,-243.5"/>
<text text-anchor="middle" x="113.5" y="-254.3" font-family="Times,serif" font-size="14.00" fill="#0058ad">a 75 16</text>
<polyline fill="none" stroke="#0058ad" points="142,-243.5 142,-272.5 "/>
<text text-anchor="middle" x="191.5" y="-254.3" font-family="Times,serif" font-size="14.00" fill="#0058ad">r 56 [26 28 30]</text>
</g>
<!-- T6151&#45;&gt;T6177 -->
<g id="edge1" class="edge">
<title>T6151:f0&#45;&gt;T6177:f0</title>
<path fill="none" stroke="#5b00c0" d="M197.731,-324.4879C165.6457,-313.934 127.9937,-298.7184 116.5028,-282.5803"/>
<polygon fill="#5b00c0" stroke="#5b00c0" points="119.7212,-281.19 113,-273 113.1468,-283.5938 119.7212,-281.19"/>
<text text-anchor="middle" x="157.5" y="-294.8" font-family="Times,serif" font-size="14.00" fill="#5b00c0">rw</text>
</g>
<!-- T6149 -->
<g id="node2" class="node">
<title>T6149</title>
<polygon fill="none" stroke="#0058ad" points="107,-81.5 107,-110.5 409,-110.5 409,-81.5 107,-81.5"/>
<text text-anchor="middle" x="229.5" y="-92.3" font-family="Times,serif" font-size="14.00" fill="#0058ad">r 74 [1 5 7 9 10 12 13 14 15 16 18 21 22]</text>
<polyline fill="none" stroke="#0058ad" points="352,-81.5 352,-110.5 "/>
<text text-anchor="middle" x="380.5" y="-92.3" font-family="Times,serif" font-size="14.00" fill="#0058ad">a 75 14</text>
</g>
<!-- T6149&#45;&gt;T6151 -->
<g id="edge2" class="edge">
<title>T6149:f1&#45;&gt;T6151:f0</title>
<path fill="none" stroke="#c000a5" d="M381,-111C381,-147.7843 379.5837,-158.6798 364,-192 340.6842,-241.8526 297.4786,-290.0545 270.8848,-316.9884"/>
<polygon fill="#c000a5" stroke="#c000a5" points="268.1388,-314.7839 263.5301,-324.3239 273.0821,-319.7401 268.1388,-314.7839"/>
<text text-anchor="middle" x="361.5" y="-213.8" font-family="Times,serif" font-size="14.00" fill="#c000a5">wr</text>
</g>
<!-- T6165 -->
<g id="node3" class="node">
<title>T6165</title>
<polygon fill="none" stroke="#0058ad" points="0,-.5 0,-29.5 152,-29.5 152,-.5 0,-.5"/>
<text text-anchor="middle" x="76" y="-11.3" font-family="Times,serif" font-size="14.00" fill="#0058ad">r 75 [2 3 5 6 9 11 12 14]</text>
</g>
<!-- T6149&#45;&gt;T6165 -->
<g id="edge5" class="edge">
<title>T6149:f1&#45;&gt;T6165:f0</title>
<path fill="none" stroke="#c000a5" d="M381,-81C381,-78.132 247.4497,-50.1602 157.0942,-31.5637"/>
<polygon fill="#c000a5" stroke="#c000a5" points="157.6241,-28.0995 147.124,-29.5136 156.2142,-34.956 157.6241,-28.0995"/>
<text text-anchor="middle" x="306.5" y="-51.8" font-family="Times,serif" font-size="14.00" fill="#c000a5">wr</text>
</g>
<!-- T6149&#45;&gt;T6177 -->
<g id="edge4" class="edge">
<title>T6149:f1&#45;&gt;T6177:f0</title>
<path fill="none" stroke="#c02700" d="M381,-111C381,-118.0058 139.0763,-157.1717 134,-162 109.6842,-185.128 112.1521,-202.1882 112.866,-232.6237"/>
<polygon fill="#c02700" stroke="#c02700" points="109.3711,-233.0461 113,-243 116.3705,-232.9556 109.3711,-233.0461"/>
<text text-anchor="middle" x="144" y="-173.3" font-family="Times,serif" font-size="14.00" fill="#c02700">ww</text>
</g>
<!-- T6171 -->
<g id="node5" class="node">
<title>T6171</title>
<polygon fill="none" stroke="#0058ad" points="237,-.5 237,-29.5 389,-29.5 389,-.5 237,-.5"/>
<text text-anchor="middle" x="313" y="-11.3" font-family="Times,serif" font-size="14.00" fill="#0058ad">r 75 [2 3 5 6 9 11 12 14]</text>
</g>
<!-- T6149&#45;&gt;T6171 -->
<g id="edge3" class="edge">
<title>T6149:f1&#45;&gt;T6171:f0</title>
<path fill="none" stroke="#c000a5" d="M381,-81C381,-61.8438 366.9326,-46.4597 351.5944,-35.3793"/>
<polygon fill="#c000a5" stroke="#c000a5" points="353.2866,-32.3011 343.0237,-29.6696 349.4056,-38.1267 353.2866,-32.3011"/>
<text text-anchor="middle" x="383.5" y="-51.8" font-family="Times,serif" font-size="14.00" fill="#c000a5">wr</text>
</g>
<!-- T6165&#45;&gt;T6177 -->
<g id="edge6" class="edge">
<title>T6165:f0&#45;&gt;T6177:f0</title>
<path fill="none" stroke="#5b00c0" d="M70.3192,-29.8349C51.6447,-80.5329 -2.3708,-244.4835 74.913,-257.2148"/>
<polygon fill="#5b00c0" stroke="#5b00c0" points="74.7585,-260.7133 85,-258 75.3018,-253.7344 74.7585,-260.7133"/>
<text text-anchor="middle" x="49.5" y="-132.8" font-family="Times,serif" font-size="14.00" fill="#5b00c0">rw</text>
</g>
<!-- T6161 -->
<g id="node6" class="node">
<title>T6161</title>
<polygon fill="none" stroke="#0058ad" points="163.5,-162.5 163.5,-191.5 354.5,-191.5 354.5,-162.5 163.5,-162.5"/>
<text text-anchor="middle" x="192" y="-173.3" font-family="Times,serif" font-size="14.00" fill="#0058ad">a 56 32</text>
<polyline fill="none" stroke="#0058ad" points="220.5,-162.5 220.5,-191.5 "/>
<text text-anchor="middle" x="287.5" y="-173.3" font-family="Times,serif" font-size="14.00" fill="#0058ad">r 75 [2 3 5 6 9 11 12]</text>
</g>
<!-- T6177&#45;&gt;T6161 -->
<g id="edge7" class="edge">
<title>T6177:f1&#45;&gt;T6161:f0</title>
<path fill="none" stroke="#5b00c0" d="M192,-243C192,-224.2292 192,-217.1168 192,-202.3535"/>
<polygon fill="#5b00c0" stroke="#5b00c0" points="195.5001,-202 192,-192 188.5001,-202 195.5001,-202"/>
<text text-anchor="middle" x="200.5" y="-213.8" font-family="Times,serif" font-size="14.00" fill="#5b00c0">rw</text>
</g>
<!-- T6171&#45;&gt;T6177 -->
<g id="edge8" class="edge">
<title>T6171:f0&#45;&gt;T6177:f0</title>
<path fill="none" stroke="#5b00c0" d="M253.8137,-29.5386C193.7005,-44.8696 108.038,-68.498 98,-81 33.7536,-161.0169 61.5546,-229.3735 77.4572,-250.9327"/>
<polygon fill="#5b00c0" stroke="#5b00c0" points="75.3096,-253.7167 85,-258 80.0957,-248.6086 75.3096,-253.7167"/>
<text text-anchor="middle" x="76.5" y="-132.8" font-family="Times,serif" font-size="14.00" fill="#5b00c0">rw</text>
</g>
<!-- T6161&#45;&gt;T6149 -->
<g id="edge9" class="edge">
<title>T6161:f1&#45;&gt;T6149:f1</title>
<path fill="none" stroke="#5b00c0" d="M288,-162C288,-152.2405 351.7786,-131.7519 373.7024,-118.3043"/>
<polygon fill="#5b00c0" stroke="#5b00c0" points="376.4082,-120.5481 381,-111 371.4561,-115.6006 376.4082,-120.5481"/>
<text text-anchor="middle" x="357.5" y="-132.8" font-family="Times,serif" font-size="14.00" fill="#5b00c0">rw</text>
</g>
</g>
</svg>
