<?xml version="1.0" encoding="UTF-8" standalone="no"?>
<!DOCTYPE svg PUBLIC "-//W3C//DTD SVG 1.1//EN"
 "http://www.w3.org/Graphics/SVG/1.1/DTD/svg11.dtd">
<!-- Generated by graphviz version 2.40.1 (20161225.0304)
 -->
<!-- Title: a_graph Pages: 1 -->
<svg width="299pt" height="119pt"
 viewBox="0.00 0.00 299.00 119.00" xmlns="http://www.w3.org/2000/svg" xmlns:xlink="http://www.w3.org/1999/xlink">
<g id="graph0" class="graph" transform="scale(1 1) rotate(0) translate(4 115)">
<title>a_graph</title>
<polygon fill="#ffffff" stroke="transparent" points="-4,4 -4,-115 295,-115 295,4 -4,4"/>
<!-- T228741 -->
<g id="node1" class="node">
<title>T228741</title>
<polygon fill="none" stroke="#0058ad" points="29.5,-81.5 29.5,-110.5 203.5,-110.5 203.5,-81.5 29.5,-81.5"/>
<text text-anchor="middle" x="65" y="-92.3" font-family="Times,serif" font-size="14.00" fill="#0058ad">a 2638 28</text>
<polyline fill="none" stroke="#0058ad" points="100.5,-81.5 100.5,-110.5 "/>
<text text-anchor="middle" x="152" y="-92.3" font-family="Times,serif" font-size="14.00" fill="#0058ad">r 2640 [1 4 7 9]</text>
</g>
<!-- T228747 -->
<g id="node2" class="node">
<title>T228747</title>
<polygon fill="none" stroke="#0058ad" points="0,-.5 0,-29.5 291,-29.5 291,-.5 0,-.5"/>
<text text-anchor="middle" x="35.5" y="-11.3" font-family="Times,serif" font-size="14.00" fill="#0058ad">a 2640 11</text>
<polyline fill="none" stroke="#0058ad" points="71,-.5 71,-29.5 "/>
<text text-anchor="middle" x="181" y="-11.3" font-family="Times,serif" font-size="14.00" fill="#0058ad">r 2638 [2 7 10 13 15 16 20 22 24 25]</text>
</g>
<!-- T228741&#45;&gt;T228747 -->
<g id="edge1" class="edge">
<title>T228741:f1&#45;&gt;T228747:f0</title>
<path fill="none" stroke="#5b00c0" d="M152.5,-81C152.5,-52.1111 122.9978,-59.508 96.5,-48 74.6239,-38.4992 46.237,-52.3401 37.9001,-39.9181"/>
<polygon fill="#5b00c0" stroke="#5b00c0" points="41.2539,-38.8962 35.5,-30 34.4503,-40.5427 41.2539,-38.8962"/>
<text text-anchor="middle" x="152" y="-51.8" font-family="Times,serif" font-size="14.00" fill="#5b00c0">rw</text>
</g>
<!-- T228747&#45;&gt;T228741 -->
<g id="edge2" class="edge">
<title>T228747:f1&#45;&gt;T228741:f0</title>
<path fill="none" stroke="#5b00c0" d="M181.5,-30C181.5,-53.4547 95.6867,-33.189 77.5,-48 68.2372,-55.5435 65.5477,-61.5524 64.7883,-70.8807"/>
<polygon fill="#5b00c0" stroke="#5b00c0" points="61.2863,-70.9044 64.5,-81 68.2834,-71.1038 61.2863,-70.9044"/>
<text text-anchor="middle" x="85" y="-51.8" font-family="Times,serif" font-size="14.00" fill="#5b00c0">rw</text>
</g>
</g>
</svg>
