<?xml version="1.0" encoding="UTF-8" standalone="no"?>
<!DOCTYPE svg PUBLIC "-//W3C//DTD SVG 1.1//EN"
 "http://www.w3.org/Graphics/SVG/1.1/DTD/svg11.dtd">
<!-- Generated by graphviz version 2.40.1 (20161225.0304)
 -->
<!-- Title: a_graph Pages: 1 -->
<svg width="334pt" height="119pt"
 viewBox="0.00 0.00 334.00 119.00" xmlns="http://www.w3.org/2000/svg" xmlns:xlink="http://www.w3.org/1999/xlink">
<g id="graph0" class="graph" transform="scale(1 1) rotate(0) translate(4 115)">
<title>a_graph</title>
<polygon fill="#ffffff" stroke="transparent" points="-4,4 -4,-115 330,-115 330,4 -4,4"/>
<!-- T199094 -->
<g id="node1" class="node">
<title>T199094</title>
<polygon fill="none" stroke="#0058ad" points="0,-81.5 0,-110.5 326,-110.5 326,-81.5 0,-81.5"/>
<text text-anchor="middle" x="32" y="-92.3" font-family="Times,serif" font-size="14.00" fill="#0058ad">a 2303 1</text>
<polyline fill="none" stroke="#0058ad" points="64,-81.5 64,-110.5 "/>
<text text-anchor="middle" x="195" y="-92.3" font-family="Times,serif" font-size="14.00" fill="#0058ad">r 2299 [1 2 4 5 6 9 10 13 16 17 18 19 20 21]</text>
</g>
<!-- T199096 -->
<g id="node2" class="node">
<title>T199096</title>
<polygon fill="none" stroke="#0058ad" points="44,-.5 44,-29.5 180,-29.5 180,-.5 44,-.5"/>
<text text-anchor="middle" x="79.5" y="-11.3" font-family="Times,serif" font-size="14.00" fill="#0058ad">a 2299 23</text>
<polyline fill="none" stroke="#0058ad" points="115,-.5 115,-29.5 "/>
<text text-anchor="middle" x="147.5" y="-11.3" font-family="Times,serif" font-size="14.00" fill="#0058ad">r 2303 []</text>
</g>
<!-- T199094&#45;&gt;T199096 -->
<g id="edge1" class="edge">
<title>T199094:f1&#45;&gt;T199096:f0</title>
<path fill="none" stroke="#5b00c0" d="M195,-81C195,-28.6416 94.739,-78.2338 80.6398,-40.2122"/>
<polygon fill="#5b00c0" stroke="#5b00c0" points="84.0412,-39.3186 79,-30 77.1298,-40.4285 84.0412,-39.3186"/>
<text text-anchor="middle" x="194.5" y="-51.8" font-family="Times,serif" font-size="14.00" fill="#5b00c0">rw</text>
</g>
<!-- T199096&#45;&gt;T199094 -->
<g id="edge2" class="edge">
<title>T199096:f1&#45;&gt;T199094:f0</title>
<path fill="none" stroke="#5b00c0" d="M148,-30C148,-66.8782 99.585,-30.7311 67,-48 51.6513,-56.1343 38.1388,-58.7216 33.6112,-70.8735"/>
<polygon fill="#5b00c0" stroke="#5b00c0" points="30.1148,-70.5742 32,-81 37.0279,-71.6742 30.1148,-70.5742"/>
<text text-anchor="middle" x="74.5" y="-51.8" font-family="Times,serif" font-size="14.00" fill="#5b00c0">rw</text>
</g>
</g>
</svg>
