<?xml version="1.0" encoding="UTF-8" standalone="no"?>
<!DOCTYPE svg PUBLIC "-//W3C//DTD SVG 1.1//EN"
 "http://www.w3.org/Graphics/SVG/1.1/DTD/svg11.dtd">
<!-- Generated by graphviz version 2.40.1 (20161225.0304)
 -->
<!-- Title: a_graph Pages: 1 -->
<svg width="240pt" height="119pt"
 viewBox="0.00 0.00 240.00 119.00" xmlns="http://www.w3.org/2000/svg" xmlns:xlink="http://www.w3.org/1999/xlink">
<g id="graph0" class="graph" transform="scale(1 1) rotate(0) translate(4 115)">
<title>a_graph</title>
<polygon fill="#ffffff" stroke="transparent" points="-4,4 -4,-115 236,-115 236,4 -4,4"/>
<!-- T211449 -->
<g id="node1" class="node">
<title>T211449</title>
<polygon fill="none" stroke="#0058ad" points="0,-81.5 0,-110.5 212,-110.5 212,-81.5 0,-81.5"/>
<text text-anchor="middle" x="74" y="-92.3" font-family="Times,serif" font-size="14.00" fill="#0058ad">r 2441 [1 2 3 7 8 11 12]</text>
<polyline fill="none" stroke="#0058ad" points="148,-81.5 148,-110.5 "/>
<text text-anchor="middle" x="180" y="-92.3" font-family="Times,serif" font-size="14.00" fill="#0058ad">a 2440 7</text>
</g>
<!-- T211451 -->
<g id="node2" class="node">
<title>T211451</title>
<polygon fill="none" stroke="#0058ad" points="48,-.5 48,-29.5 232,-29.5 232,-.5 48,-.5"/>
<text text-anchor="middle" x="83.5" y="-11.3" font-family="Times,serif" font-size="14.00" fill="#0058ad">a 2441 15</text>
<polyline fill="none" stroke="#0058ad" points="119,-.5 119,-29.5 "/>
<text text-anchor="middle" x="175.5" y="-11.3" font-family="Times,serif" font-size="14.00" fill="#0058ad">r 2440 [1 2 3 5 6]</text>
</g>
<!-- T211449&#45;&gt;T211451 -->
<g id="edge1" class="edge">
<title>T211449:f0&#45;&gt;T211451:f0</title>
<path fill="none" stroke="#5b00c0" d="M74,-81C74,-61.7593 80.2891,-55.1323 82.3527,-40.0305"/>
<polygon fill="#5b00c0" stroke="#5b00c0" points="85.8487,-40.2047 83,-30 78.8632,-39.7538 85.8487,-40.2047"/>
<text text-anchor="middle" x="88.5" y="-51.8" font-family="Times,serif" font-size="14.00" fill="#5b00c0">rw</text>
</g>
<!-- T211451&#45;&gt;T211449 -->
<g id="edge2" class="edge">
<title>T211451:f1&#45;&gt;T211449:f1</title>
<path fill="none" stroke="#5b00c0" d="M176,-30C176,-48.8285 178.7432,-55.8553 179.6861,-70.627"/>
<polygon fill="#5b00c0" stroke="#5b00c0" points="176.1991,-71.1105 180,-81 183.1959,-70.8987 176.1991,-71.1105"/>
<text text-anchor="middle" x="185.5" y="-51.8" font-family="Times,serif" font-size="14.00" fill="#5b00c0">rw</text>
</g>
</g>
</svg>
