<?xml version="1.0" encoding="UTF-8" standalone="no"?>
<!DOCTYPE svg PUBLIC "-//W3C//DTD SVG 1.1//EN"
 "http://www.w3.org/Graphics/SVG/1.1/DTD/svg11.dtd">
<!-- Generated by graphviz version 2.40.1 (20161225.0304)
 -->
<!-- Title: a_graph Pages: 1 -->
<svg width="320pt" height="119pt"
 viewBox="0.00 0.00 319.50 119.00" xmlns="http://www.w3.org/2000/svg" xmlns:xlink="http://www.w3.org/1999/xlink">
<g id="graph0" class="graph" transform="scale(1 1) rotate(0) translate(4 115)">
<title>a_graph</title>
<polygon fill="#ffffff" stroke="transparent" points="-4,4 -4,-115 315.5,-115 315.5,4 -4,4"/>
<!-- T216331 -->
<g id="node1" class="node">
<title>T216331</title>
<polygon fill="none" stroke="#0058ad" points="0,-81.5 0,-110.5 243,-110.5 243,-81.5 0,-81.5"/>
<text text-anchor="middle" x="86" y="-92.3" font-family="Times,serif" font-size="14.00" fill="#0058ad">r 2496 [1 2 6 7 12 14 17 20]</text>
<polyline fill="none" stroke="#0058ad" points="172,-81.5 172,-110.5 "/>
<text text-anchor="middle" x="207.5" y="-92.3" font-family="Times,serif" font-size="14.00" fill="#0058ad">a 2494 14</text>
</g>
<!-- T216321 -->
<g id="node2" class="node">
<title>T216321</title>
<polygon fill="none" stroke="#0058ad" points="47.5,-.5 47.5,-29.5 311.5,-29.5 311.5,-.5 47.5,-.5"/>
<text text-anchor="middle" x="83" y="-11.3" font-family="Times,serif" font-size="14.00" fill="#0058ad">a 2496 21</text>
<polyline fill="none" stroke="#0058ad" points="118.5,-.5 118.5,-29.5 "/>
<text text-anchor="middle" x="215" y="-11.3" font-family="Times,serif" font-size="14.00" fill="#0058ad">r 2494 [1 3 4 5 6 9 10 11 12 13]</text>
</g>
<!-- T216331&#45;&gt;T216321 -->
<g id="edge1" class="edge">
<title>T216331:f0&#45;&gt;T216321:f0</title>
<path fill="none" stroke="#5b00c0" d="M85.5,-81C85.5,-62.1967 83.4426,-55.1325 82.7354,-40.3645"/>
<polygon fill="#5b00c0" stroke="#5b00c0" points="86.2263,-39.9179 82.5,-30 79.2281,-40.0769 86.2263,-39.9179"/>
<text text-anchor="middle" x="93" y="-51.8" font-family="Times,serif" font-size="14.00" fill="#5b00c0">rw</text>
</g>
<!-- T216321&#45;&gt;T216331 -->
<g id="edge2" class="edge">
<title>T216321:f1&#45;&gt;T216331:f1</title>
<path fill="none" stroke="#5b00c0" d="M215.5,-30C215.5,-49.1796 209.9097,-55.8987 208.0753,-70.9897"/>
<polygon fill="#5b00c0" stroke="#5b00c0" points="204.5797,-70.8156 207.5,-81 211.5681,-71.2173 204.5797,-70.8156"/>
<text text-anchor="middle" x="220" y="-51.8" font-family="Times,serif" font-size="14.00" fill="#5b00c0">rw</text>
</g>
</g>
</svg>
