<?xml version="1.0" encoding="UTF-8" standalone="no"?>
<!DOCTYPE svg PUBLIC "-//W3C//DTD SVG 1.1//EN"
 "http://www.w3.org/Graphics/SVG/1.1/DTD/svg11.dtd">
<!-- Generated by graphviz version 2.40.1 (20161225.0304)
 -->
<!-- Title: a_graph Pages: 1 -->
<svg width="321pt" height="119pt"
 viewBox="0.00 0.00 321.00 119.00" xmlns="http://www.w3.org/2000/svg" xmlns:xlink="http://www.w3.org/1999/xlink">
<g id="graph0" class="graph" transform="scale(1 1) rotate(0) translate(4 115)">
<title>a_graph</title>
<polygon fill="#ffffff" stroke="transparent" points="-4,4 -4,-115 317,-115 317,4 -4,4"/>
<!-- T125616 -->
<g id="node1" class="node">
<title>T125616</title>
<polygon fill="none" stroke="#0058ad" points="0,-81.5 0,-110.5 313,-110.5 313,-81.5 0,-81.5"/>
<text text-anchor="middle" x="121" y="-92.3" font-family="Times,serif" font-size="14.00" fill="#0058ad">r 1447 [1 2 3 4 5 6 7 8 9 11 13 14 16 17]</text>
<polyline fill="none" stroke="#0058ad" points="242,-81.5 242,-110.5 "/>
<text text-anchor="middle" x="277.5" y="-92.3" font-family="Times,serif" font-size="14.00" fill="#0058ad">a 1451 31</text>
</g>
<!-- T125621 -->
<g id="node2" class="node">
<title>T125621</title>
<polygon fill="none" stroke="#0058ad" points="39.5,-.5 39.5,-29.5 299.5,-29.5 299.5,-.5 39.5,-.5"/>
<text text-anchor="middle" x="134" y="-11.3" font-family="Times,serif" font-size="14.00" fill="#0058ad">r 1451 [1 3 4 7 12 17 20 25 29]</text>
<polyline fill="none" stroke="#0058ad" points="228.5,-.5 228.5,-29.5 "/>
<text text-anchor="middle" x="264" y="-11.3" font-family="Times,serif" font-size="14.00" fill="#0058ad">a 1447 18</text>
</g>
<!-- T125616&#45;&gt;T125621 -->
<g id="edge1" class="edge">
<title>T125616:f0&#45;&gt;T125621:f1</title>
<path fill="none" stroke="#5b00c0" d="M120.5,-81C120.5,-38.3959 170.2867,-62.0712 210.5,-48 230.2745,-41.0807 254.3302,-50.6265 262.0152,-39.7449"/>
<polygon fill="#5b00c0" stroke="#5b00c0" points="265.4206,-40.5548 264.5,-30 258.6376,-38.8252 265.4206,-40.5548"/>
<text text-anchor="middle" x="218" y="-51.8" font-family="Times,serif" font-size="14.00" fill="#5b00c0">rw</text>
</g>
<!-- T125621&#45;&gt;T125616 -->
<g id="edge2" class="edge">
<title>T125621:f0&#45;&gt;T125616:f1</title>
<path fill="none" stroke="#5b00c0" d="M133.5,-30C133.5,-50.8321 206.149,-40.2856 225.5,-48 247.152,-56.6317 269.6362,-54.6436 275.8341,-70.766"/>
<polygon fill="#5b00c0" stroke="#5b00c0" points="272.4387,-71.6923 277.5,-81 279.3478,-70.5676 272.4387,-71.6923"/>
<text text-anchor="middle" x="277" y="-51.8" font-family="Times,serif" font-size="14.00" fill="#5b00c0">rw</text>
</g>
</g>
</svg>
