<?xml version="1.0" encoding="UTF-8" standalone="no"?>
<!DOCTYPE svg PUBLIC "-//W3C//DTD SVG 1.1//EN"
 "http://www.w3.org/Graphics/SVG/1.1/DTD/svg11.dtd">
<!-- Generated by graphviz version 2.40.1 (20161225.0304)
 -->
<!-- Title: a_graph Pages: 1 -->
<svg width="369pt" height="119pt"
 viewBox="0.00 0.00 369.00 119.00" xmlns="http://www.w3.org/2000/svg" xmlns:xlink="http://www.w3.org/1999/xlink">
<g id="graph0" class="graph" transform="scale(1 1) rotate(0) translate(4 115)">
<title>a_graph</title>
<polygon fill="#ffffff" stroke="transparent" points="-4,4 -4,-115 365,-115 365,4 -4,4"/>
<!-- T216510 -->
<g id="node1" class="node">
<title>T216510</title>
<polygon fill="none" stroke="#0058ad" points="63,-81.5 63,-110.5 340,-110.5 340,-81.5 63,-81.5"/>
<text text-anchor="middle" x="166" y="-92.3" font-family="Times,serif" font-size="14.00" fill="#0058ad">r 2498 [2 3 6 9 10 11 14 17 18 20]</text>
<polyline fill="none" stroke="#0058ad" points="269,-81.5 269,-110.5 "/>
<text text-anchor="middle" x="304.5" y="-92.3" font-family="Times,serif" font-size="14.00" fill="#0058ad">a 2497 24</text>
</g>
<!-- T216509 -->
<g id="node2" class="node">
<title>T216509</title>
<polygon fill="none" stroke="#0058ad" points="0,-.5 0,-29.5 361,-29.5 361,-.5 0,-.5"/>
<text text-anchor="middle" x="145" y="-11.3" font-family="Times,serif" font-size="14.00" fill="#0058ad">r 2497 [1 2 4 5 6 7 9 10 12 13 14 15 16 19 20 21]</text>
<polyline fill="none" stroke="#0058ad" points="290,-.5 290,-29.5 "/>
<text text-anchor="middle" x="325.5" y="-11.3" font-family="Times,serif" font-size="14.00" fill="#0058ad">a 2498 23</text>
</g>
<!-- T216510&#45;&gt;T216509 -->
<g id="edge1" class="edge">
<title>T216510:f0&#45;&gt;T216509:f1</title>
<path fill="none" stroke="#5b00c0" d="M165.5,-81C165.5,-44.1754 206.4349,-59.2466 241.5,-48 256.2699,-43.2628 302.4918,-46.9434 319.3058,-38.2505"/>
<polygon fill="#5b00c0" stroke="#5b00c0" points="322.295,-40.0985 325.5,-30 316.6971,-35.8957 322.295,-40.0985"/>
<text text-anchor="middle" x="249" y="-51.8" font-family="Times,serif" font-size="14.00" fill="#5b00c0">rw</text>
</g>
<!-- T216509&#45;&gt;T216510 -->
<g id="edge2" class="edge">
<title>T216509:f0&#45;&gt;T216510:f1</title>
<path fill="none" stroke="#5b00c0" d="M144.5,-30C144.5,-55.2083 233.0976,-38.6306 256.5,-48 276.7787,-56.1188 297.009,-55.5998 302.8358,-70.7901"/>
<polygon fill="#5b00c0" stroke="#5b00c0" points="299.4368,-71.6933 304.5,-81 306.3456,-70.5672 299.4368,-71.6933"/>
<text text-anchor="middle" x="304" y="-51.8" font-family="Times,serif" font-size="14.00" fill="#5b00c0">rw</text>
</g>
</g>
</svg>
