<?xml version="1.0" encoding="UTF-8" standalone="no"?>
<!DOCTYPE svg PUBLIC "-//W3C//DTD SVG 1.1//EN"
 "http://www.w3.org/Graphics/SVG/1.1/DTD/svg11.dtd">
<!-- Generated by graphviz version 2.40.1 (20161225.0304)
 -->
<!-- Title: a_graph Pages: 1 -->
<svg width="357pt" height="200pt"
 viewBox="0.00 0.00 356.50 200.00" xmlns="http://www.w3.org/2000/svg" xmlns:xlink="http://www.w3.org/1999/xlink">
<g id="graph0" class="graph" transform="scale(1 1) rotate(0) translate(4 196)">
<title>a_graph</title>
<polygon fill="#ffffff" stroke="transparent" points="-4,4 -4,-196 352.5,-196 352.5,4 -4,4"/>
<!-- T229203 -->
<g id="node1" class="node">
<title>T229203</title>
<polygon fill="none" stroke="#0058ad" points="183.5,-162.5 183.5,-191.5 254.5,-191.5 254.5,-162.5 183.5,-162.5"/>
<text text-anchor="middle" x="219" y="-173.3" font-family="Times,serif" font-size="14.00" fill="#0058ad">a 2645 16</text>
</g>
<!-- T229209 -->
<g id="node3" class="node">
<title>T229209</title>
<polygon fill="none" stroke="#0058ad" points="0,-81.5 0,-110.5 220,-110.5 220,-81.5 0,-81.5"/>
<text text-anchor="middle" x="77.5" y="-92.3" font-family="Times,serif" font-size="14.00" fill="#0058ad">r 2645 [2 3 5 9 11 13 16]</text>
<polyline fill="none" stroke="#0058ad" points="155,-81.5 155,-110.5 "/>
<text text-anchor="middle" x="187.5" y="-92.3" font-family="Times,serif" font-size="14.00" fill="#0058ad">r 2646 []</text>
</g>
<!-- T229203&#45;&gt;T229209 -->
<g id="edge1" class="edge">
<title>T229203:f0&#45;&gt;T229209:f0</title>
<path fill="none" stroke="#c000a5" d="M185.7073,-162.4105C152.9175,-147.9442 105.0121,-126.523 85.6225,-116.4216"/>
<polygon fill="#c000a5" stroke="#c000a5" points="87.3287,-113.36 77,-111 83.6026,-119.286 87.3287,-113.36"/>
<text text-anchor="middle" x="151.5" y="-132.8" font-family="Times,serif" font-size="14.00" fill="#c000a5">wr</text>
</g>
<!-- T229207 -->
<g id="node2" class="node">
<title>T229207</title>
<polygon fill="none" stroke="#0058ad" points="147.5,-.5 147.5,-29.5 348.5,-29.5 348.5,-.5 147.5,-.5"/>
<text text-anchor="middle" x="179.5" y="-11.3" font-family="Times,serif" font-size="14.00" fill="#0058ad">a 2646 1</text>
<polyline fill="none" stroke="#0058ad" points="211.5,-.5 211.5,-29.5 "/>
<text text-anchor="middle" x="280" y="-11.3" font-family="Times,serif" font-size="14.00" fill="#0058ad">r 2645 [2 3 5 9 11 13]</text>
</g>
<!-- T229207&#45;&gt;T229203 -->
<g id="edge2" class="edge">
<title>T229207:f1&#45;&gt;T229203:f0</title>
<path fill="none" stroke="#5b00c0" d="M280,-30C280,-76.6703 253.4453,-125.7479 235.377,-153.7395"/>
<polygon fill="#5b00c0" stroke="#5b00c0" points="232.2476,-152.1247 229.6254,-162.39 238.0767,-156.0005 232.2476,-152.1247"/>
<text text-anchor="middle" x="278.5" y="-92.3" font-family="Times,serif" font-size="14.00" fill="#5b00c0">rw</text>
</g>
<!-- T229209&#45;&gt;T229207 -->
<g id="edge3" class="edge">
<title>T229209:f1&#45;&gt;T229207:f0</title>
<path fill="none" stroke="#5b00c0" d="M188,-81C188,-61.7593 181.7109,-55.1323 179.6473,-40.0305"/>
<polygon fill="#5b00c0" stroke="#5b00c0" points="183.1368,-39.7538 179,-30 176.1513,-40.2047 183.1368,-39.7538"/>
<text text-anchor="middle" x="193.5" y="-51.8" font-family="Times,serif" font-size="14.00" fill="#5b00c0">rw</text>
</g>
</g>
</svg>
