<?xml version="1.0" encoding="UTF-8" standalone="no"?>
<!DOCTYPE svg PUBLIC "-//W3C//DTD SVG 1.1//EN"
 "http://www.w3.org/Graphics/SVG/1.1/DTD/svg11.dtd">
<!-- Generated by graphviz version 2.40.1 (20161225.0304)
 -->
<!-- Title: a_graph Pages: 1 -->
<svg width="306pt" height="119pt"
 viewBox="0.00 0.00 306.00 119.00" xmlns="http://www.w3.org/2000/svg" xmlns:xlink="http://www.w3.org/1999/xlink">
<g id="graph0" class="graph" transform="scale(1 1) rotate(0) translate(4 115)">
<title>a_graph</title>
<polygon fill="#ffffff" stroke="transparent" points="-4,4 -4,-115 302,-115 302,4 -4,4"/>
<!-- T70687 -->
<g id="node1" class="node">
<title>T70687</title>
<polygon fill="none" stroke="#0058ad" points="0,-81.5 0,-110.5 298,-110.5 298,-81.5 0,-81.5"/>
<text text-anchor="middle" x="32" y="-92.3" font-family="Times,serif" font-size="14.00" fill="#0058ad">a 818 12</text>
<polyline fill="none" stroke="#0058ad" points="64,-81.5 64,-110.5 "/>
<text text-anchor="middle" x="181" y="-92.3" font-family="Times,serif" font-size="14.00" fill="#0058ad">r 819 [1 5 7 9 12 15 18 21 24 27 28 29]</text>
</g>
<!-- T70699 -->
<g id="node2" class="node">
<title>T70699</title>
<polygon fill="none" stroke="#0058ad" points="15.5,-.5 15.5,-29.5 252.5,-29.5 252.5,-.5 15.5,-.5"/>
<text text-anchor="middle" x="47.5" y="-11.3" font-family="Times,serif" font-size="14.00" fill="#0058ad">a 819 31</text>
<polyline fill="none" stroke="#0058ad" points="79.5,-.5 79.5,-29.5 "/>
<text text-anchor="middle" x="166" y="-11.3" font-family="Times,serif" font-size="14.00" fill="#0058ad">r 818 [1 2 3 4 6 7 8 9 10 11]</text>
</g>
<!-- T70687&#45;&gt;T70699 -->
<g id="edge1" class="edge">
<title>T70687:f1&#45;&gt;T70699:f0</title>
<path fill="none" stroke="#5b00c0" d="M181,-81C181,-67.3717 82.9352,-51.396 54.5884,-37.0891"/>
<polygon fill="#5b00c0" stroke="#5b00c0" points="56.6967,-34.2691 47,-30 51.918,-39.3842 56.6967,-34.2691"/>
<text text-anchor="middle" x="148.5" y="-51.8" font-family="Times,serif" font-size="14.00" fill="#5b00c0">rw</text>
</g>
<!-- T70699&#45;&gt;T70687 -->
<g id="edge2" class="edge">
<title>T70699:f1&#45;&gt;T70687:f0</title>
<path fill="none" stroke="#5b00c0" d="M166,-30C166,-52.3607 86.9571,-37.9146 67,-48 51.4964,-55.8349 38.0807,-58.6094 33.5948,-70.8419"/>
<polygon fill="#5b00c0" stroke="#5b00c0" points="30.0934,-70.5781 32,-81 37.0087,-71.6639 30.0934,-70.5781"/>
<text text-anchor="middle" x="74.5" y="-51.8" font-family="Times,serif" font-size="14.00" fill="#5b00c0">rw</text>
</g>
</g>
</svg>
