<?xml version="1.0" encoding="UTF-8" standalone="no"?>
<!DOCTYPE svg PUBLIC "-//W3C//DTD SVG 1.1//EN"
 "http://www.w3.org/Graphics/SVG/1.1/DTD/svg11.dtd">
<!-- Generated by graphviz version 2.40.1 (20161225.0304)
 -->
<!-- Title: a_graph Pages: 1 -->
<svg width="421pt" height="119pt"
 viewBox="0.00 0.00 421.00 119.00" xmlns="http://www.w3.org/2000/svg" xmlns:xlink="http://www.w3.org/1999/xlink">
<g id="graph0" class="graph" transform="scale(1 1) rotate(0) translate(4 115)">
<title>a_graph</title>
<polygon fill="#ffffff" stroke="transparent" points="-4,4 -4,-115 417,-115 417,4 -4,4"/>
<!-- T407 -->
<g id="node1" class="node">
<title>T407</title>
<polygon fill="none" stroke="#0058ad" points="247.5,-81.5 247.5,-110.5 407.5,-110.5 407.5,-81.5 247.5,-81.5"/>
<text text-anchor="middle" x="272.5" y="-92.3" font-family="Times,serif" font-size="14.00" fill="#0058ad">a 8 29</text>
<polyline fill="none" stroke="#0058ad" points="297.5,-81.5 297.5,-110.5 "/>
<text text-anchor="middle" x="352.5" y="-92.3" font-family="Times,serif" font-size="14.00" fill="#0058ad">r 11 [1 2 4 5 6 8]</text>
</g>
<!-- T401 -->
<g id="node2" class="node">
<title>T401</title>
<polygon fill="none" stroke="#0058ad" points="0,-.5 0,-29.5 413,-29.5 413,-.5 0,-.5"/>
<text text-anchor="middle" x="178" y="-11.3" font-family="Times,serif" font-size="14.00" fill="#0058ad">r 8 [2 3 4 5 6 7 9 10 11 12 16 17 18 21 22 23 24 25 26 27 28]</text>
<polyline fill="none" stroke="#0058ad" points="356,-.5 356,-29.5 "/>
<text text-anchor="middle" x="384.5" y="-11.3" font-family="Times,serif" font-size="14.00" fill="#0058ad">a 11 14</text>
</g>
<!-- T407&#45;&gt;T401 -->
<g id="edge1" class="edge">
<title>T407:f1&#45;&gt;T401:f1</title>
<path fill="none" stroke="#5b00c0" d="M352.5,-81C352.5,-58.213 375.7051,-56.6566 382.5941,-40.1724"/>
<polygon fill="#5b00c0" stroke="#5b00c0" points="386.0985,-40.4735 384.5,-30 379.2182,-39.1844 386.0985,-40.4735"/>
<text text-anchor="middle" x="384" y="-51.8" font-family="Times,serif" font-size="14.00" fill="#5b00c0">rw</text>
</g>
<!-- T401&#45;&gt;T407 -->
<g id="edge2" class="edge">
<title>T401:f0&#45;&gt;T407:f0</title>
<path fill="none" stroke="#5b00c0" d="M177.5,-30C177.5,-69.2516 200.4549,-92.0557 237.297,-95.5329"/>
<polygon fill="#5b00c0" stroke="#5b00c0" points="237.3504,-99.0389 247.5,-96 237.6706,-92.0462 237.3504,-99.0389"/>
<text text-anchor="middle" x="191" y="-51.8" font-family="Times,serif" font-size="14.00" fill="#5b00c0">rw</text>
</g>
</g>
</svg>
