<?xml version="1.0" encoding="UTF-8" standalone="no"?>
<!DOCTYPE svg PUBLIC "-//W3C//DTD SVG 1.1//EN"
 "http://www.w3.org/Graphics/SVG/1.1/DTD/svg11.dtd">
<!-- Generated by graphviz version 2.40.1 (20161225.0304)
 -->
<!-- Title: a_graph Pages: 1 -->
<svg width="213pt" height="119pt"
 viewBox="0.00 0.00 213.00 119.00" xmlns="http://www.w3.org/2000/svg" xmlns:xlink="http://www.w3.org/1999/xlink">
<g id="graph0" class="graph" transform="scale(1 1) rotate(0) translate(4 115)">
<title>a_graph</title>
<polygon fill="#ffffff" stroke="transparent" points="-4,4 -4,-115 209,-115 209,4 -4,4"/>
<!-- T231794 -->
<g id="node1" class="node">
<title>T231794</title>
<polygon fill="none" stroke="#0058ad" points="0,-81.5 0,-110.5 205,-110.5 205,-81.5 0,-81.5"/>
<text text-anchor="middle" x="32" y="-92.3" font-family="Times,serif" font-size="14.00" fill="#0058ad">a 2676 4</text>
<polyline fill="none" stroke="#0058ad" points="64,-81.5 64,-110.5 "/>
<text text-anchor="middle" x="134.5" y="-92.3" font-family="Times,serif" font-size="14.00" fill="#0058ad">r 2675 [1 2 4 6 8 9 11]</text>
</g>
<!-- T231793 -->
<g id="node2" class="node">
<title>T231793</title>
<polygon fill="none" stroke="#0058ad" points="9,-.5 9,-29.5 162,-29.5 162,-.5 9,-.5"/>
<text text-anchor="middle" x="44.5" y="-11.3" font-family="Times,serif" font-size="14.00" fill="#0058ad">a 2675 13</text>
<polyline fill="none" stroke="#0058ad" points="80,-.5 80,-29.5 "/>
<text text-anchor="middle" x="121" y="-11.3" font-family="Times,serif" font-size="14.00" fill="#0058ad">r 2676 [1 2]</text>
</g>
<!-- T231794&#45;&gt;T231793 -->
<g id="edge1" class="edge">
<title>T231794:f1&#45;&gt;T231793:f0</title>
<path fill="none" stroke="#5b00c0" d="M134.5,-81C134.5,-71.4816 72.7788,-50.6352 51.5621,-37.2227"/>
<polygon fill="#5b00c0" stroke="#5b00c0" points="53.9937,-34.7032 44.5,-30 48.9886,-39.597 53.9937,-34.7032"/>
<text text-anchor="middle" x="112" y="-51.8" font-family="Times,serif" font-size="14.00" fill="#5b00c0">rw</text>
</g>
<!-- T231793&#45;&gt;T231794 -->
<g id="edge2" class="edge">
<title>T231793:f1&#45;&gt;T231794:f0</title>
<path fill="none" stroke="#5b00c0" d="M121.5,-30C121.5,-60.8337 79.7324,-30.2787 54.5,-48 43.0704,-56.0272 35.4615,-60.742 32.6795,-70.9452"/>
<polygon fill="#5b00c0" stroke="#5b00c0" points="29.189,-70.6603 31.5,-81 36.1413,-71.4759 29.189,-70.6603"/>
<text text-anchor="middle" x="62" y="-51.8" font-family="Times,serif" font-size="14.00" fill="#5b00c0">rw</text>
</g>
</g>
</svg>
