<?xml version="1.0" encoding="UTF-8" standalone="no"?>
<!DOCTYPE svg PUBLIC "-//W3C//DTD SVG 1.1//EN"
 "http://www.w3.org/Graphics/SVG/1.1/DTD/svg11.dtd">
<!-- Generated by graphviz version 2.40.1 (20161225.0304)
 -->
<!-- Title: a_graph Pages: 1 -->
<svg width="244pt" height="119pt"
 viewBox="0.00 0.00 244.00 119.00" xmlns="http://www.w3.org/2000/svg" xmlns:xlink="http://www.w3.org/1999/xlink">
<g id="graph0" class="graph" transform="scale(1 1) rotate(0) translate(4 115)">
<title>a_graph</title>
<polygon fill="#ffffff" stroke="transparent" points="-4,4 -4,-115 240,-115 240,4 -4,4"/>
<!-- T13948 -->
<g id="node1" class="node">
<title>T13948</title>
<polygon fill="none" stroke="#0058ad" points="18,-81.5 18,-110.5 168,-110.5 168,-81.5 18,-81.5"/>
<text text-anchor="middle" x="50" y="-92.3" font-family="Times,serif" font-size="14.00" fill="#0058ad">a 161 19</text>
<polyline fill="none" stroke="#0058ad" points="82,-81.5 82,-110.5 "/>
<text text-anchor="middle" x="125" y="-92.3" font-family="Times,serif" font-size="14.00" fill="#0058ad">r 164 [1 2 3]</text>
</g>
<!-- T13942 -->
<g id="node2" class="node">
<title>T13942</title>
<polygon fill="none" stroke="#0058ad" points="0,-.5 0,-29.5 236,-29.5 236,-.5 0,-.5"/>
<text text-anchor="middle" x="28.5" y="-11.3" font-family="Times,serif" font-size="14.00" fill="#0058ad">a 164 7</text>
<polyline fill="none" stroke="#0058ad" points="57,-.5 57,-29.5 "/>
<text text-anchor="middle" x="146.5" y="-11.3" font-family="Times,serif" font-size="14.00" fill="#0058ad">r 161 [1 2 4 6 7 8 9 13 15 16]</text>
</g>
<!-- T13948&#45;&gt;T13942 -->
<g id="edge1" class="edge">
<title>T13948:f1&#45;&gt;T13942:f0</title>
<path fill="none" stroke="#5b00c0" d="M125,-81C125,-55.8388 101.3086,-59.6367 79,-48 61.6841,-38.9676 38.8386,-48.5982 30.8803,-39.6343"/>
<polygon fill="#5b00c0" stroke="#5b00c0" points="34.2177,-38.5785 28,-30 27.511,-40.5835 34.2177,-38.5785"/>
<text text-anchor="middle" x="123.5" y="-51.8" font-family="Times,serif" font-size="14.00" fill="#5b00c0">rw</text>
</g>
<!-- T13942&#45;&gt;T13948 -->
<g id="edge2" class="edge">
<title>T13942:f1&#45;&gt;T13948:f0</title>
<path fill="none" stroke="#5b00c0" d="M147,-30C147,-69.4856 89.1511,-21.3669 60,-48 51.5143,-55.7527 50.1322,-61.8184 49.9714,-70.832"/>
<polygon fill="#5b00c0" stroke="#5b00c0" points="46.4718,-71.0099 50,-81 53.4718,-70.9902 46.4718,-71.0099"/>
<text text-anchor="middle" x="67.5" y="-51.8" font-family="Times,serif" font-size="14.00" fill="#5b00c0">rw</text>
</g>
</g>
</svg>
