<?xml version="1.0" encoding="UTF-8" standalone="no"?>
<!DOCTYPE svg PUBLIC "-//W3C//DTD SVG 1.1//EN"
 "http://www.w3.org/Graphics/SVG/1.1/DTD/svg11.dtd">
<!-- Generated by graphviz version 2.40.1 (20161225.0304)
 -->
<!-- Title: a_graph Pages: 1 -->
<svg width="307pt" height="119pt"
 viewBox="0.00 0.00 307.00 119.00" xmlns="http://www.w3.org/2000/svg" xmlns:xlink="http://www.w3.org/1999/xlink">
<g id="graph0" class="graph" transform="scale(1 1) rotate(0) translate(4 115)">
<title>a_graph</title>
<polygon fill="#ffffff" stroke="transparent" points="-4,4 -4,-115 303,-115 303,4 -4,4"/>
<!-- T4055 -->
<g id="node1" class="node">
<title>T4055</title>
<polygon fill="none" stroke="#0058ad" points="23.5,-81.5 23.5,-110.5 229.5,-110.5 229.5,-81.5 23.5,-81.5"/>
<text text-anchor="middle" x="52" y="-92.3" font-family="Times,serif" font-size="14.00" fill="#0058ad">a 51 28</text>
<polyline fill="none" stroke="#0058ad" points="80.5,-81.5 80.5,-110.5 "/>
<text text-anchor="middle" x="155" y="-92.3" font-family="Times,serif" font-size="14.00" fill="#0058ad">r 50 [1 2 3 4 5 7 8 9 10]</text>
</g>
<!-- T4053 -->
<g id="node2" class="node">
<title>T4053</title>
<polygon fill="none" stroke="#0058ad" points="0,-.5 0,-29.5 299,-29.5 299,-.5 0,-.5"/>
<text text-anchor="middle" x="28.5" y="-11.3" font-family="Times,serif" font-size="14.00" fill="#0058ad">a 50 11</text>
<polyline fill="none" stroke="#0058ad" points="57,-.5 57,-29.5 "/>
<text text-anchor="middle" x="178" y="-11.3" font-family="Times,serif" font-size="14.00" fill="#0058ad">r 51 [1 2 4 5 6 7 8 10 14 16 18 21 22 26]</text>
</g>
<!-- T4055&#45;&gt;T4053 -->
<g id="edge1" class="edge">
<title>T4055:f1&#45;&gt;T4053:f0</title>
<path fill="none" stroke="#5b00c0" d="M155.5,-81C155.5,-47.4069 118.7713,-60.2718 87.5,-48 66.1663,-39.628 39.2712,-51.8324 31.0205,-40.0476"/>
<polygon fill="#5b00c0" stroke="#5b00c0" points="34.328,-38.8479 28.5,-30 27.5384,-40.5511 34.328,-38.8479"/>
<text text-anchor="middle" x="156" y="-51.8" font-family="Times,serif" font-size="14.00" fill="#5b00c0">rw</text>
</g>
<!-- T4053&#45;&gt;T4055 -->
<g id="edge2" class="edge">
<title>T4053:f1&#45;&gt;T4055:f0</title>
<path fill="none" stroke="#5b00c0" d="M178.5,-30C178.5,-54.7696 88.5342,-33.4342 68.5,-48 58.2833,-55.4281 53.7458,-61.1548 52.1801,-70.8356"/>
<polygon fill="#5b00c0" stroke="#5b00c0" points="48.6755,-70.7886 51.5,-81 55.6599,-71.256 48.6755,-70.7886"/>
<text text-anchor="middle" x="76" y="-51.8" font-family="Times,serif" font-size="14.00" fill="#5b00c0">rw</text>
</g>
</g>
</svg>
