<?xml version="1.0" encoding="UTF-8" standalone="no"?>
<!DOCTYPE svg PUBLIC "-//W3C//DTD SVG 1.1//EN"
 "http://www.w3.org/Graphics/SVG/1.1/DTD/svg11.dtd">
<!-- Generated by graphviz version 2.40.1 (20161225.0304)
 -->
<!-- Title: a_graph Pages: 1 -->
<svg width="412pt" height="119pt"
 viewBox="0.00 0.00 412.00 119.00" xmlns="http://www.w3.org/2000/svg" xmlns:xlink="http://www.w3.org/1999/xlink">
<g id="graph0" class="graph" transform="scale(1 1) rotate(0) translate(4 115)">
<title>a_graph</title>
<polygon fill="#ffffff" stroke="transparent" points="-4,4 -4,-115 408,-115 408,4 -4,4"/>
<!-- T199176 -->
<g id="node1" class="node">
<title>T199176</title>
<polygon fill="none" stroke="#0058ad" points="0,-81.5 0,-110.5 402,-110.5 402,-81.5 0,-81.5"/>
<text text-anchor="middle" x="165.5" y="-92.3" font-family="Times,serif" font-size="14.00" fill="#0058ad">r 2299 [1 2 4 5 6 9 10 13 16 17 18 19 20 21 23 25 26 28]</text>
<polyline fill="none" stroke="#0058ad" points="331,-81.5 331,-110.5 "/>
<text text-anchor="middle" x="366.5" y="-92.3" font-family="Times,serif" font-size="14.00" fill="#0058ad">a 2303 23</text>
</g>
<!-- T199175 -->
<g id="node2" class="node">
<title>T199175</title>
<polygon fill="none" stroke="#0058ad" points="206,-.5 206,-29.5 404,-29.5 404,-.5 206,-.5"/>
<text text-anchor="middle" x="241.5" y="-11.3" font-family="Times,serif" font-size="14.00" fill="#0058ad">a 2299 29</text>
<polyline fill="none" stroke="#0058ad" points="277,-.5 277,-29.5 "/>
<text text-anchor="middle" x="340.5" y="-11.3" font-family="Times,serif" font-size="14.00" fill="#0058ad">r 2303 [1 2 7 11 17]</text>
</g>
<!-- T199176&#45;&gt;T199175 -->
<g id="edge1" class="edge">
<title>T199176:f0&#45;&gt;T199175:f0</title>
<path fill="none" stroke="#5b00c0" d="M165,-81C165,-50.1096 170.1752,-21.6718 195.9849,-16.0168"/>
<polygon fill="#5b00c0" stroke="#5b00c0" points="196.4047,-19.4922 206,-15 195.6976,-12.528 196.4047,-19.4922"/>
<text text-anchor="middle" x="175.5" y="-51.8" font-family="Times,serif" font-size="14.00" fill="#5b00c0">rw</text>
</g>
<!-- T199175&#45;&gt;T199176 -->
<g id="edge2" class="edge">
<title>T199175:f1&#45;&gt;T199176:f1</title>
<path fill="none" stroke="#5b00c0" d="M341,-30C341,-51.4669 359.5098,-54.9033 365.2941,-70.7357"/>
<polygon fill="#5b00c0" stroke="#5b00c0" points="361.9078,-71.7092 367,-81 368.813,-70.5615 361.9078,-71.7092"/>
<text text-anchor="middle" x="367.5" y="-51.8" font-family="Times,serif" font-size="14.00" fill="#5b00c0">rw</text>
</g>
</g>
</svg>
