<?xml version="1.0" encoding="UTF-8" standalone="no"?>
<!DOCTYPE svg PUBLIC "-//W3C//DTD SVG 1.1//EN"
 "http://www.w3.org/Graphics/SVG/1.1/DTD/svg11.dtd">
<!-- Generated by graphviz version 2.40.1 (20161225.0304)
 -->
<!-- Title: a_graph Pages: 1 -->
<svg width="411pt" height="200pt"
 viewBox="0.00 0.00 410.50 200.00" xmlns="http://www.w3.org/2000/svg" xmlns:xlink="http://www.w3.org/1999/xlink">
<g id="graph0" class="graph" transform="scale(1 1) rotate(0) translate(4 196)">
<title>a_graph</title>
<polygon fill="#ffffff" stroke="transparent" points="-4,4 -4,-196 406.5,-196 406.5,4 -4,4"/>
<!-- T199571 -->
<g id="node1" class="node">
<title>T199571</title>
<polygon fill="none" stroke="#0058ad" points="0,-162.5 0,-191.5 64,-191.5 64,-162.5 0,-162.5"/>
<text text-anchor="middle" x="32" y="-173.3" font-family="Times,serif" font-size="14.00" fill="#0058ad">a 2307 2</text>
</g>
<!-- T199575 -->
<g id="node2" class="node">
<title>T199575</title>
<polygon fill="none" stroke="#0058ad" points="49.5,-81.5 49.5,-110.5 402.5,-110.5 402.5,-81.5 49.5,-81.5"/>
<text text-anchor="middle" x="85" y="-92.3" font-family="Times,serif" font-size="14.00" fill="#0058ad">r 2307 [2]</text>
<polyline fill="none" stroke="#0058ad" points="120.5,-81.5 120.5,-110.5 "/>
<text text-anchor="middle" x="261.5" y="-92.3" font-family="Times,serif" font-size="14.00" fill="#0058ad">r 2304 [2 6 9 11 12 13 16 17 18 19 20 21 22 24]</text>
</g>
<!-- T199571&#45;&gt;T199575 -->
<g id="edge1" class="edge">
<title>T199571:f0&#45;&gt;T199575:f0</title>
<path fill="none" stroke="#c000a5" d="M53.5571,-162.3066C65.8231,-152.3528 79.5539,-137.9754 83.7292,-121.1643"/>
<polygon fill="#c000a5" stroke="#c000a5" points="87.2323,-121.357 85,-111 80.2863,-120.4885 87.2323,-121.357"/>
<text text-anchor="middle" x="87.5" y="-132.8" font-family="Times,serif" font-size="14.00" fill="#c000a5">wr</text>
</g>
<!-- T199580 -->
<g id="node3" class="node">
<title>T199580</title>
<polygon fill="none" stroke="#0058ad" points="72,-.5 72,-29.5 208,-29.5 208,-.5 72,-.5"/>
<text text-anchor="middle" x="104.5" y="-11.3" font-family="Times,serif" font-size="14.00" fill="#0058ad">r 2307 []</text>
<polyline fill="none" stroke="#0058ad" points="137,-.5 137,-29.5 "/>
<text text-anchor="middle" x="172.5" y="-11.3" font-family="Times,serif" font-size="14.00" fill="#0058ad">a 2304 27</text>
</g>
<!-- T199575&#45;&gt;T199580 -->
<g id="edge2" class="edge">
<title>T199575:f1&#45;&gt;T199580:f1</title>
<path fill="none" stroke="#5b00c0" d="M262,-81C262,-46.6527 248.7776,-20.3548 218.0894,-15.7258"/>
<polygon fill="#5b00c0" stroke="#5b00c0" points="218.2254,-12.2267 208,-15 217.7231,-19.2086 218.2254,-12.2267"/>
<text text-anchor="middle" x="267.5" y="-51.8" font-family="Times,serif" font-size="14.00" fill="#5b00c0">rw</text>
</g>
<!-- T199580&#45;&gt;T199571 -->
<g id="edge3" class="edge">
<title>T199580:f0&#45;&gt;T199571:f0</title>
<path fill="none" stroke="#5b00c0" d="M72,-15C16.0812,-15 21.7476,-107.1009 27.9192,-152.4136"/>
<polygon fill="#5b00c0" stroke="#5b00c0" points="24.4611,-152.955 29.3818,-162.3379 31.3863,-151.9344 24.4611,-152.955"/>
<text text-anchor="middle" x="31.5" y="-92.3" font-family="Times,serif" font-size="14.00" fill="#5b00c0">rw</text>
</g>
</g>
</svg>
