<?xml version="1.0" encoding="UTF-8" standalone="no"?>
<!DOCTYPE svg PUBLIC "-//W3C//DTD SVG 1.1//EN"
 "http://www.w3.org/Graphics/SVG/1.1/DTD/svg11.dtd">
<!-- Generated by graphviz version 2.40.1 (20161225.0304)
 -->
<!-- Title: a_graph Pages: 1 -->
<svg width="268pt" height="119pt"
 viewBox="0.00 0.00 268.00 119.00" xmlns="http://www.w3.org/2000/svg" xmlns:xlink="http://www.w3.org/1999/xlink">
<g id="graph0" class="graph" transform="scale(1 1) rotate(0) translate(4 115)">
<title>a_graph</title>
<polygon fill="#ffffff" stroke="transparent" points="-4,4 -4,-115 264,-115 264,4 -4,4"/>
<!-- T216165 -->
<g id="node1" class="node">
<title>T216165</title>
<polygon fill="none" stroke="#0058ad" points="9,-81.5 9,-110.5 235,-110.5 235,-81.5 9,-81.5"/>
<text text-anchor="middle" x="44.5" y="-92.3" font-family="Times,serif" font-size="14.00" fill="#0058ad">a 2492 21</text>
<polyline fill="none" stroke="#0058ad" points="80,-81.5 80,-110.5 "/>
<text text-anchor="middle" x="157.5" y="-92.3" font-family="Times,serif" font-size="14.00" fill="#0058ad">r 2493 [1 2 5 9 15 17 20]</text>
</g>
<!-- T216166 -->
<g id="node2" class="node">
<title>T216166</title>
<polygon fill="none" stroke="#0058ad" points="0,-.5 0,-29.5 260,-29.5 260,-.5 0,-.5"/>
<text text-anchor="middle" x="35.5" y="-11.3" font-family="Times,serif" font-size="14.00" fill="#0058ad">a 2493 23</text>
<polyline fill="none" stroke="#0058ad" points="71,-.5 71,-29.5 "/>
<text text-anchor="middle" x="165.5" y="-11.3" font-family="Times,serif" font-size="14.00" fill="#0058ad">r 2492 [1 2 4 7 10 15 17 19 20]</text>
</g>
<!-- T216165&#45;&gt;T216166 -->
<g id="edge1" class="edge">
<title>T216165:f1&#45;&gt;T216166:f0</title>
<path fill="none" stroke="#5b00c0" d="M158,-81C158,-44.1754 116.0915,-61.9218 82,-48 65.4981,-41.2612 45.4506,-48.0363 37.9872,-39.7478"/>
<polygon fill="#5b00c0" stroke="#5b00c0" points="41.2765,-38.5356 35,-30 34.5837,-40.5867 41.2765,-38.5356"/>
<text text-anchor="middle" x="158.5" y="-51.8" font-family="Times,serif" font-size="14.00" fill="#5b00c0">rw</text>
</g>
<!-- T216166&#45;&gt;T216165 -->
<g id="edge2" class="edge">
<title>T216166:f1&#45;&gt;T216165:f0</title>
<path fill="none" stroke="#5b00c0" d="M166,-30C166,-53.2358 82.0358,-34.6756 63,-48 52.2764,-55.5061 46.775,-61.018 44.8326,-70.9606"/>
<polygon fill="#5b00c0" stroke="#5b00c0" points="41.3385,-70.7449 44,-81 48.3146,-71.3235 41.3385,-70.7449"/>
<text text-anchor="middle" x="70.5" y="-51.8" font-family="Times,serif" font-size="14.00" fill="#5b00c0">rw</text>
</g>
</g>
</svg>
