<?xml version="1.0" encoding="UTF-8" standalone="no"?>
<!DOCTYPE svg PUBLIC "-//W3C//DTD SVG 1.1//EN"
 "http://www.w3.org/Graphics/SVG/1.1/DTD/svg11.dtd">
<!-- Generated by graphviz version 2.40.1 (20161225.0304)
 -->
<!-- Title: a_graph Pages: 1 -->
<svg width="455pt" height="119pt"
 viewBox="0.00 0.00 455.00 119.00" xmlns="http://www.w3.org/2000/svg" xmlns:xlink="http://www.w3.org/1999/xlink">
<g id="graph0" class="graph" transform="scale(1 1) rotate(0) translate(4 115)">
<title>a_graph</title>
<polygon fill="#ffffff" stroke="transparent" points="-4,4 -4,-115 451,-115 451,4 -4,4"/>
<!-- T208657 -->
<g id="node1" class="node">
<title>T208657</title>
<polygon fill="none" stroke="#0058ad" points="266,-81.5 266,-110.5 419,-110.5 419,-81.5 266,-81.5"/>
<text text-anchor="middle" x="301.5" y="-92.3" font-family="Times,serif" font-size="14.00" fill="#0058ad">a 2399 32</text>
<polyline fill="none" stroke="#0058ad" points="337,-81.5 337,-110.5 "/>
<text text-anchor="middle" x="378" y="-92.3" font-family="Times,serif" font-size="14.00" fill="#0058ad">r 2407 [1 6]</text>
</g>
<!-- T208659 -->
<g id="node2" class="node">
<title>T208659</title>
<polygon fill="none" stroke="#0058ad" points="0,-.5 0,-29.5 447,-29.5 447,-.5 0,-.5"/>
<text text-anchor="middle" x="191.5" y="-11.3" font-family="Times,serif" font-size="14.00" fill="#0058ad">r 2399 [1 2 4 5 7 9 10 11 12 14 15 17 21 23 24 25 27 28 29 30 31]</text>
<polyline fill="none" stroke="#0058ad" points="383,-.5 383,-29.5 "/>
<text text-anchor="middle" x="415" y="-11.3" font-family="Times,serif" font-size="14.00" fill="#0058ad">a 2407 8</text>
</g>
<!-- T208657&#45;&gt;T208659 -->
<g id="edge1" class="edge">
<title>T208657:f1&#45;&gt;T208659:f1</title>
<path fill="none" stroke="#5b00c0" d="M378.5,-81C378.5,-56.9345 405.8254,-57.2481 413.5107,-40.0392"/>
<polygon fill="#5b00c0" stroke="#5b00c0" points="416.9894,-40.4896 415.5,-30 410.123,-39.1289 416.9894,-40.4896"/>
<text text-anchor="middle" x="415" y="-51.8" font-family="Times,serif" font-size="14.00" fill="#5b00c0">rw</text>
</g>
<!-- T208659&#45;&gt;T208657 -->
<g id="edge2" class="edge">
<title>T208659:f0&#45;&gt;T208657:f0</title>
<path fill="none" stroke="#5b00c0" d="M191.5,-30C191.5,-70.6266 216.9365,-92.4382 255.4376,-95.5983"/>
<polygon fill="#5b00c0" stroke="#5b00c0" points="255.3683,-99.0983 265.5,-96 255.6476,-92.1038 255.3683,-99.0983"/>
<text text-anchor="middle" x="205" y="-51.8" font-family="Times,serif" font-size="14.00" fill="#5b00c0">rw</text>
</g>
</g>
</svg>
