<?xml version="1.0" encoding="UTF-8" standalone="no"?>
<!DOCTYPE svg PUBLIC "-//W3C//DTD SVG 1.1//EN"
 "http://www.w3.org/Graphics/SVG/1.1/DTD/svg11.dtd">
<!-- Generated by graphviz version 2.40.1 (20161225.0304)
 -->
<!-- Title: a_graph Pages: 1 -->
<svg width="378pt" height="200pt"
 viewBox="0.00 0.00 377.50 200.00" xmlns="http://www.w3.org/2000/svg" xmlns:xlink="http://www.w3.org/1999/xlink">
<g id="graph0" class="graph" transform="scale(1 1) rotate(0) translate(4 196)">
<title>a_graph</title>
<polygon fill="#ffffff" stroke="transparent" points="-4,4 -4,-196 373.5,-196 373.5,4 -4,4"/>
<!-- T125275 -->
<g id="node1" class="node">
<title>T125275</title>
<polygon fill="none" stroke="#0058ad" points="61.5,-162.5 61.5,-191.5 266.5,-191.5 266.5,-162.5 61.5,-162.5"/>
<text text-anchor="middle" x="97" y="-173.3" font-family="Times,serif" font-size="14.00" fill="#0058ad">a 1449 17</text>
<polyline fill="none" stroke="#0058ad" points="132.5,-162.5 132.5,-191.5 "/>
<text text-anchor="middle" x="199.5" y="-173.3" font-family="Times,serif" font-size="14.00" fill="#0058ad">r 1447 [1 2 3 4 5 6 7]</text>
</g>
<!-- T125269 -->
<g id="node3" class="node">
<title>T125269</title>
<polygon fill="none" stroke="#0058ad" points="168.5,-81.5 168.5,-110.5 369.5,-110.5 369.5,-81.5 168.5,-81.5"/>
<text text-anchor="middle" x="200.5" y="-92.3" font-family="Times,serif" font-size="14.00" fill="#0058ad">a 1447 8</text>
<polyline fill="none" stroke="#0058ad" points="232.5,-81.5 232.5,-110.5 "/>
<text text-anchor="middle" x="301" y="-92.3" font-family="Times,serif" font-size="14.00" fill="#0058ad">r 1449 [1 2 3 7 11 14]</text>
</g>
<!-- T125275&#45;&gt;T125269 -->
<g id="edge1" class="edge">
<title>T125275:f1&#45;&gt;T125269:f0</title>
<path fill="none" stroke="#5b00c0" d="M200,-162C200,-143.2292 200,-136.1168 200,-121.3535"/>
<polygon fill="#5b00c0" stroke="#5b00c0" points="203.5001,-121 200,-111 196.5001,-121 203.5001,-121"/>
<text text-anchor="middle" x="207.5" y="-132.8" font-family="Times,serif" font-size="14.00" fill="#5b00c0">rw</text>
</g>
<!-- T125271 -->
<g id="node2" class="node">
<title>T125271</title>
<polygon fill="none" stroke="#0058ad" points="0,-.5 0,-29.5 282,-29.5 282,-.5 0,-.5"/>
<text text-anchor="middle" x="68.5" y="-11.3" font-family="Times,serif" font-size="14.00" fill="#0058ad">r 1449 [1 2 3 7 11 14]</text>
<polyline fill="none" stroke="#0058ad" points="137,-.5 137,-29.5 "/>
<text text-anchor="middle" x="209.5" y="-11.3" font-family="Times,serif" font-size="14.00" fill="#0058ad">r 1447 [1 2 3 4 5 6 7 8]</text>
</g>
<!-- T125271&#45;&gt;T125275 -->
<g id="edge2" class="edge">
<title>T125271:f0&#45;&gt;T125275:f0</title>
<path fill="none" stroke="#5b00c0" d="M68,-30C68,-86.5463 93.7011,-100.3779 96.713,-151.9186"/>
<polygon fill="#5b00c0" stroke="#5b00c0" points="93.2167,-152.1037 97,-162 100.2139,-151.9044 93.2167,-152.1037"/>
<text text-anchor="middle" x="96.5" y="-92.3" font-family="Times,serif" font-size="14.00" fill="#5b00c0">rw</text>
</g>
<!-- T125269&#45;&gt;T125275 -->
<g id="edge3" class="edge">
<title>T125269:f1&#45;&gt;T125275:f0</title>
<path fill="none" stroke="#5b00c0" d="M301,-111C301,-137.965 207.0475,-122.0258 181,-129 146.0376,-138.3611 105.7766,-125.0384 98.2465,-151.817"/>
<polygon fill="#5b00c0" stroke="#5b00c0" points="94.7411,-151.6488 97,-162 101.6892,-152.4994 94.7411,-151.6488"/>
<text text-anchor="middle" x="188.5" y="-132.8" font-family="Times,serif" font-size="14.00" fill="#5b00c0">rw</text>
</g>
<!-- T125269&#45;&gt;T125271 -->
<g id="edge4" class="edge">
<title>T125269:f0&#45;&gt;T125271:f1</title>
<path fill="none" stroke="#c000a5" d="M200,-81C200,-61.6913 206.9879,-55.1668 209.2808,-40.053"/>
<polygon fill="#c000a5" stroke="#c000a5" points="212.7774,-40.2243 210,-30 205.7953,-39.7247 212.7774,-40.2243"/>
<text text-anchor="middle" x="214.5" y="-51.8" font-family="Times,serif" font-size="14.00" fill="#c000a5">wr</text>
</g>
</g>
</svg>
