<?xml version="1.0" encoding="UTF-8" standalone="no"?>
<!DOCTYPE svg PUBLIC "-//W3C//DTD SVG 1.1//EN"
 "http://www.w3.org/Graphics/SVG/1.1/DTD/svg11.dtd">
<!-- Generated by graphviz version 2.40.1 (20161225.0304)
 -->
<!-- Title: a_graph Pages: 1 -->
<svg width="324pt" height="119pt"
 viewBox="0.00 0.00 324.00 119.00" xmlns="http://www.w3.org/2000/svg" xmlns:xlink="http://www.w3.org/1999/xlink">
<g id="graph0" class="graph" transform="scale(1 1) rotate(0) translate(4 115)">
<title>a_graph</title>
<polygon fill="#ffffff" stroke="transparent" points="-4,4 -4,-115 320,-115 320,4 -4,4"/>
<!-- T228632 -->
<g id="node1" class="node">
<title>T228632</title>
<polygon fill="none" stroke="#0058ad" points="0,-81.5 0,-110.5 316,-110.5 316,-81.5 0,-81.5"/>
<text text-anchor="middle" x="35.5" y="-92.3" font-family="Times,serif" font-size="14.00" fill="#0058ad">a 2638 10</text>
<polyline fill="none" stroke="#0058ad" points="71,-81.5 71,-110.5 "/>
<text text-anchor="middle" x="193.5" y="-92.3" font-family="Times,serif" font-size="14.00" fill="#0058ad">r 2636 [1 2 3 6 7 9 11 15 18 20 21 25 28]</text>
</g>
<!-- T228625 -->
<g id="node2" class="node">
<title>T228625</title>
<polygon fill="none" stroke="#0058ad" points="40.5,-.5 40.5,-29.5 193.5,-29.5 193.5,-.5 40.5,-.5"/>
<text text-anchor="middle" x="76" y="-11.3" font-family="Times,serif" font-size="14.00" fill="#0058ad">a 2636 30</text>
<polyline fill="none" stroke="#0058ad" points="111.5,-.5 111.5,-29.5 "/>
<text text-anchor="middle" x="152.5" y="-11.3" font-family="Times,serif" font-size="14.00" fill="#0058ad">r 2638 [2 7]</text>
</g>
<!-- T228632&#45;&gt;T228625 -->
<g id="edge1" class="edge">
<title>T228632:f1&#45;&gt;T228625:f0</title>
<path fill="none" stroke="#5b00c0" d="M194,-81C194,-55.8927 102.8478,-57.59 80.7719,-38.9745"/>
<polygon fill="#5b00c0" stroke="#5b00c0" points="83.7851,-37.1863 76,-30 77.6045,-40.4726 83.7851,-37.1863"/>
<text text-anchor="middle" x="175.5" y="-51.8" font-family="Times,serif" font-size="14.00" fill="#5b00c0">rw</text>
</g>
<!-- T228625&#45;&gt;T228632 -->
<g id="edge2" class="edge">
<title>T228625:f1&#45;&gt;T228632:f0</title>
<path fill="none" stroke="#5b00c0" d="M153,-30C153,-62.5538 111.5873,-34.4227 82,-48 62.4269,-56.9819 42.4234,-56.1294 36.6502,-70.9751"/>
<polygon fill="#5b00c0" stroke="#5b00c0" points="33.1708,-70.5643 35,-81 40.0779,-71.7013 33.1708,-70.5643"/>
<text text-anchor="middle" x="89.5" y="-51.8" font-family="Times,serif" font-size="14.00" fill="#5b00c0">rw</text>
</g>
</g>
</svg>
