<?xml version="1.0" encoding="UTF-8" standalone="no"?>
<!DOCTYPE svg PUBLIC "-//W3C//DTD SVG 1.1//EN"
 "http://www.w3.org/Graphics/SVG/1.1/DTD/svg11.dtd">
<!-- Generated by graphviz version 2.40.1 (20161225.0304)
 -->
<!-- Title: a_graph Pages: 1 -->
<svg width="420pt" height="119pt"
 viewBox="0.00 0.00 420.00 119.00" xmlns="http://www.w3.org/2000/svg" xmlns:xlink="http://www.w3.org/1999/xlink">
<g id="graph0" class="graph" transform="scale(1 1) rotate(0) translate(4 115)">
<title>a_graph</title>
<polygon fill="#ffffff" stroke="transparent" points="-4,4 -4,-115 416,-115 416,4 -4,4"/>
<!-- T118825 -->
<g id="node1" class="node">
<title>T118825</title>
<polygon fill="none" stroke="#0058ad" points="0,-81.5 0,-110.5 412,-110.5 412,-81.5 0,-81.5"/>
<text text-anchor="middle" x="174" y="-92.3" font-family="Times,serif" font-size="14.00" fill="#0058ad">r 1374 [1 3 4 6 7 9 10 11 13 14 15 16 17 18 19 20 21 22 23]</text>
<polyline fill="none" stroke="#0058ad" points="348,-81.5 348,-110.5 "/>
<text text-anchor="middle" x="380" y="-92.3" font-family="Times,serif" font-size="14.00" fill="#0058ad">a 1376 8</text>
</g>
<!-- T118815 -->
<g id="node2" class="node">
<title>T118815</title>
<polygon fill="none" stroke="#0058ad" points="190.5,-.5 190.5,-29.5 353.5,-29.5 353.5,-.5 190.5,-.5"/>
<text text-anchor="middle" x="236.5" y="-11.3" font-family="Times,serif" font-size="14.00" fill="#0058ad">r 1376 [1 3 6]</text>
<polyline fill="none" stroke="#0058ad" points="282.5,-.5 282.5,-29.5 "/>
<text text-anchor="middle" x="318" y="-11.3" font-family="Times,serif" font-size="14.00" fill="#0058ad">a 1374 26</text>
</g>
<!-- T118825&#45;&gt;T118815 -->
<g id="edge1" class="edge">
<title>T118825:f0&#45;&gt;T118815:f1</title>
<path fill="none" stroke="#5b00c0" d="M174,-81C174,-50.6327 289.2268,-60.9494 313.5325,-39.1639"/>
<polygon fill="#5b00c0" stroke="#5b00c0" points="316.7639,-40.5225 318,-30 310.4718,-37.4549 316.7639,-40.5225"/>
<text text-anchor="middle" x="298.5" y="-51.8" font-family="Times,serif" font-size="14.00" fill="#5b00c0">rw</text>
</g>
<!-- T118815&#45;&gt;T118825 -->
<g id="edge2" class="edge">
<title>T118815:f0&#45;&gt;T118825:f1</title>
<path fill="none" stroke="#5b00c0" d="M236,-30C236,-63.8479 278.0849,-36.7259 310,-48 338.7571,-58.1585 371.5542,-49.2047 378.6158,-71.026"/>
<polygon fill="#5b00c0" stroke="#5b00c0" points="375.1585,-71.5761 380,-81 382.092,-70.6138 375.1585,-71.5761"/>
<text text-anchor="middle" x="380.5" y="-51.8" font-family="Times,serif" font-size="14.00" fill="#5b00c0">rw</text>
</g>
</g>
</svg>
