<?xml version="1.0" encoding="UTF-8" standalone="no"?>
<!DOCTYPE svg PUBLIC "-//W3C//DTD SVG 1.1//EN"
 "http://www.w3.org/Graphics/SVG/1.1/DTD/svg11.dtd">
<!-- Generated by graphviz version 2.40.1 (20161225.0304)
 -->
<!-- Title: a_graph Pages: 1 -->
<svg width="335pt" height="200pt"
 viewBox="0.00 0.00 335.00 200.00" xmlns="http://www.w3.org/2000/svg" xmlns:xlink="http://www.w3.org/1999/xlink">
<g id="graph0" class="graph" transform="scale(1 1) rotate(0) translate(4 196)">
<title>a_graph</title>
<polygon fill="#ffffff" stroke="transparent" points="-4,4 -4,-196 331,-196 331,4 -4,4"/>
<!-- T12979 -->
<g id="node1" class="node">
<title>T12979</title>
<polygon fill="none" stroke="#0058ad" points="0,-162.5 0,-191.5 327,-191.5 327,-162.5 0,-162.5"/>
<text text-anchor="middle" x="101.5" y="-173.3" font-family="Times,serif" font-size="14.00" fill="#0058ad">r 148 [1 3 5 6 7 9 11 13 14 15 20]</text>
<polyline fill="none" stroke="#0058ad" points="203,-162.5 203,-191.5 "/>
<text text-anchor="middle" x="265" y="-173.3" font-family="Times,serif" font-size="14.00" fill="#0058ad">r 153 [1 2 4 6 8 12]</text>
</g>
<!-- T12975 -->
<g id="node3" class="node">
<title>T12975</title>
<polygon fill="none" stroke="#0058ad" points="61,-81.5 61,-110.5 232,-110.5 232,-81.5 61,-81.5"/>
<text text-anchor="middle" x="93" y="-92.3" font-family="Times,serif" font-size="14.00" fill="#0058ad">a 148 21</text>
<polyline fill="none" stroke="#0058ad" points="125,-81.5 125,-110.5 "/>
<text text-anchor="middle" x="178.5" y="-92.3" font-family="Times,serif" font-size="14.00" fill="#0058ad">r 153 [1 2 4 6 8]</text>
</g>
<!-- T12979&#45;&gt;T12975 -->
<g id="edge1" class="edge">
<title>T12979:f0&#45;&gt;T12975:f0</title>
<path fill="none" stroke="#5b00c0" d="M101.5,-162C101.5,-142.7593 95.2109,-136.1323 93.1473,-121.0305"/>
<polygon fill="#5b00c0" stroke="#5b00c0" points="96.6368,-120.7538 92.5,-111 89.6513,-121.2047 96.6368,-120.7538"/>
<text text-anchor="middle" x="107" y="-132.8" font-family="Times,serif" font-size="14.00" fill="#5b00c0">rw</text>
</g>
<!-- T12977 -->
<g id="node2" class="node">
<title>T12977</title>
<polygon fill="none" stroke="#0058ad" points="191.5,-.5 191.5,-29.5 255.5,-29.5 255.5,-.5 191.5,-.5"/>
<text text-anchor="middle" x="223.5" y="-11.3" font-family="Times,serif" font-size="14.00" fill="#0058ad">a 153 12</text>
</g>
<!-- T12977&#45;&gt;T12979 -->
<g id="edge2" class="edge">
<title>T12977:f0&#45;&gt;T12979:f1</title>
<path fill="none" stroke="#c000a5" d="M230.6247,-29.6282C241.8118,-53.8924 262.5077,-104.5024 265.207,-151.9368"/>
<polygon fill="#c000a5" stroke="#c000a5" points="261.7104,-152.1061 265.5,-162 268.7074,-151.9024 261.7104,-152.1061"/>
<text text-anchor="middle" x="266" y="-92.3" font-family="Times,serif" font-size="14.00" fill="#c000a5">wr</text>
</g>
<!-- T12975&#45;&gt;T12977 -->
<g id="edge3" class="edge">
<title>T12975:f1&#45;&gt;T12977:f0</title>
<path fill="none" stroke="#5b00c0" d="M178.5,-81C178.5,-64.4361 188.2952,-48.9617 198.7457,-37.1658"/>
<polygon fill="#5b00c0" stroke="#5b00c0" points="201.5843,-39.262 205.973,-29.6188 196.5286,-34.4204 201.5843,-39.262"/>
<text text-anchor="middle" x="197" y="-51.8" font-family="Times,serif" font-size="14.00" fill="#5b00c0">rw</text>
</g>
</g>
</svg>
