<?xml version="1.0" encoding="UTF-8" standalone="no"?>
<!DOCTYPE svg PUBLIC "-//W3C//DTD SVG 1.1//EN"
 "http://www.w3.org/Graphics/SVG/1.1/DTD/svg11.dtd">
<!-- Generated by graphviz version 2.40.1 (20161225.0304)
 -->
<!-- Title: a_graph Pages: 1 -->
<svg width="317pt" height="119pt"
 viewBox="0.00 0.00 317.00 119.00" xmlns="http://www.w3.org/2000/svg" xmlns:xlink="http://www.w3.org/1999/xlink">
<g id="graph0" class="graph" transform="scale(1 1) rotate(0) translate(4 115)">
<title>a_graph</title>
<polygon fill="#ffffff" stroke="transparent" points="-4,4 -4,-115 313,-115 313,4 -4,4"/>
<!-- T3913 -->
<g id="node1" class="node">
<title>T3913</title>
<polygon fill="none" stroke="#0058ad" points="0,-81.5 0,-110.5 309,-110.5 309,-81.5 0,-81.5"/>
<text text-anchor="middle" x="25" y="-92.3" font-family="Times,serif" font-size="14.00" fill="#0058ad">a 51 4</text>
<polyline fill="none" stroke="#0058ad" points="50,-81.5 50,-110.5 "/>
<text text-anchor="middle" x="179.5" y="-92.3" font-family="Times,serif" font-size="14.00" fill="#0058ad">r 48 [1 2 3 5 6 7 9 11 12 13 15 16 17 18 19]</text>
</g>
<!-- T3923 -->
<g id="node2" class="node">
<title>T3923</title>
<polygon fill="none" stroke="#0058ad" points="42,-.5 42,-29.5 167,-29.5 167,-.5 42,-.5"/>
<text text-anchor="middle" x="70.5" y="-11.3" font-family="Times,serif" font-size="14.00" fill="#0058ad">a 48 20</text>
<polyline fill="none" stroke="#0058ad" points="99,-.5 99,-29.5 "/>
<text text-anchor="middle" x="133" y="-11.3" font-family="Times,serif" font-size="14.00" fill="#0058ad">r 51 [1 2]</text>
</g>
<!-- T3913&#45;&gt;T3923 -->
<g id="edge1" class="edge">
<title>T3913:f1&#45;&gt;T3923:f0</title>
<path fill="none" stroke="#5b00c0" d="M179.5,-81C179.5,-31.4846 86.0793,-75.7799 72.2121,-40.1895"/>
<polygon fill="#5b00c0" stroke="#5b00c0" points="75.6088,-39.2818 70.5,-30 68.7055,-40.4418 75.6088,-39.2818"/>
<text text-anchor="middle" x="179" y="-51.8" font-family="Times,serif" font-size="14.00" fill="#5b00c0">rw</text>
</g>
<!-- T3923&#45;&gt;T3913 -->
<g id="edge2" class="edge">
<title>T3923:f1&#45;&gt;T3913:f0</title>
<path fill="none" stroke="#5b00c0" d="M133.5,-30C133.5,-64.2799 88.5338,-31.4749 58.5,-48 43.5094,-56.2481 30.4332,-58.9764 26.0567,-71.0047"/>
<polygon fill="#5b00c0" stroke="#5b00c0" points="22.5806,-70.5805 24.5,-81 29.4972,-71.6577 22.5806,-70.5805"/>
<text text-anchor="middle" x="66" y="-51.8" font-family="Times,serif" font-size="14.00" fill="#5b00c0">rw</text>
</g>
</g>
</svg>
