<?xml version="1.0" encoding="UTF-8" standalone="no"?>
<!DOCTYPE svg PUBLIC "-//W3C//DTD SVG 1.1//EN"
 "http://www.w3.org/Graphics/SVG/1.1/DTD/svg11.dtd">
<!-- Generated by graphviz version 2.40.1 (20161225.0304)
 -->
<!-- Title: a_graph Pages: 1 -->
<svg width="292pt" height="119pt"
 viewBox="0.00 0.00 292.00 119.00" xmlns="http://www.w3.org/2000/svg" xmlns:xlink="http://www.w3.org/1999/xlink">
<g id="graph0" class="graph" transform="scale(1 1) rotate(0) translate(4 115)">
<title>a_graph</title>
<polygon fill="#ffffff" stroke="transparent" points="-4,4 -4,-115 288,-115 288,4 -4,4"/>
<!-- T231069 -->
<g id="node1" class="node">
<title>T231069</title>
<polygon fill="none" stroke="#0058ad" points="110,-81.5 110,-110.5 284,-110.5 284,-81.5 110,-81.5"/>
<text text-anchor="middle" x="145.5" y="-92.3" font-family="Times,serif" font-size="14.00" fill="#0058ad">a 2666 16</text>
<polyline fill="none" stroke="#0058ad" points="181,-81.5 181,-110.5 "/>
<text text-anchor="middle" x="232.5" y="-92.3" font-family="Times,serif" font-size="14.00" fill="#0058ad">r 2667 [1 2 5 7]</text>
</g>
<!-- T231087 -->
<g id="node2" class="node">
<title>T231087</title>
<polygon fill="none" stroke="#0058ad" points="0,-.5 0,-29.5 278,-29.5 278,-.5 0,-.5"/>
<text text-anchor="middle" x="107" y="-11.3" font-family="Times,serif" font-size="14.00" fill="#0058ad">r 2666 [1 2 3 4 5 6 7 8 10 12 14 15]</text>
<polyline fill="none" stroke="#0058ad" points="214,-.5 214,-29.5 "/>
<text text-anchor="middle" x="246" y="-11.3" font-family="Times,serif" font-size="14.00" fill="#0058ad">a 2667 8</text>
</g>
<!-- T231069&#45;&gt;T231087 -->
<g id="edge1" class="edge">
<title>T231069:f1&#45;&gt;T231087:f1</title>
<path fill="none" stroke="#5b00c0" d="M233,-81C233,-61.4462 242.0843,-55.2913 245.0651,-40.134"/>
<polygon fill="#5b00c0" stroke="#5b00c0" points="248.5664,-40.2793 246,-30 241.596,-39.6362 248.5664,-40.2793"/>
<text text-anchor="middle" x="249.5" y="-51.8" font-family="Times,serif" font-size="14.00" fill="#5b00c0">rw</text>
</g>
<!-- T231087&#45;&gt;T231069 -->
<g id="edge2" class="edge">
<title>T231087:f0&#45;&gt;T231069:f0</title>
<path fill="none" stroke="#5b00c0" d="M107,-30C107,-54.2918 135.064,-53.6211 142.957,-70.8922"/>
<polygon fill="#5b00c0" stroke="#5b00c0" points="139.5881,-71.8917 145,-81 146.4494,-70.5048 139.5881,-71.8917"/>
<text text-anchor="middle" x="143.5" y="-51.8" font-family="Times,serif" font-size="14.00" fill="#5b00c0">rw</text>
</g>
</g>
</svg>
