<?xml version="1.0" encoding="UTF-8" standalone="no"?>
<!DOCTYPE svg PUBLIC "-//W3C//DTD SVG 1.1//EN"
 "http://www.w3.org/Graphics/SVG/1.1/DTD/svg11.dtd">
<!-- Generated by graphviz version 2.40.1 (20161225.0304)
 -->
<!-- Title: a_graph Pages: 1 -->
<svg width="272pt" height="119pt"
 viewBox="0.00 0.00 272.00 119.00" xmlns="http://www.w3.org/2000/svg" xmlns:xlink="http://www.w3.org/1999/xlink">
<g id="graph0" class="graph" transform="scale(1 1) rotate(0) translate(4 115)">
<title>a_graph</title>
<polygon fill="#ffffff" stroke="transparent" points="-4,4 -4,-115 268,-115 268,4 -4,4"/>
<!-- T52370 -->
<g id="node1" class="node">
<title>T52370</title>
<polygon fill="none" stroke="#0058ad" points="0,-81.5 0,-110.5 264,-110.5 264,-81.5 0,-81.5"/>
<text text-anchor="middle" x="100" y="-92.3" font-family="Times,serif" font-size="14.00" fill="#0058ad">r 609 [1 5 7 9 10 11 13 18 20 21]</text>
<polyline fill="none" stroke="#0058ad" points="200,-81.5 200,-110.5 "/>
<text text-anchor="middle" x="232" y="-92.3" font-family="Times,serif" font-size="14.00" fill="#0058ad">a 608 17</text>
</g>
<!-- T52371 -->
<g id="node2" class="node">
<title>T52371</title>
<polygon fill="none" stroke="#0058ad" points="31,-.5 31,-29.5 253,-29.5 253,-.5 31,-.5"/>
<text text-anchor="middle" x="110" y="-11.3" font-family="Times,serif" font-size="14.00" fill="#0058ad">r 608 [2 4 5 6 9 12 13 15]</text>
<polyline fill="none" stroke="#0058ad" points="189,-.5 189,-29.5 "/>
<text text-anchor="middle" x="221" y="-11.3" font-family="Times,serif" font-size="14.00" fill="#0058ad">a 609 24</text>
</g>
<!-- T52370&#45;&gt;T52371 -->
<g id="edge1" class="edge">
<title>T52370:f0&#45;&gt;T52371:f1</title>
<path fill="none" stroke="#5b00c0" d="M100,-81C100,-46.2025 138.8197,-61.2399 171,-48 188.7466,-40.6985 210.6628,-48.971 218.2575,-39.6615"/>
<polygon fill="#5b00c0" stroke="#5b00c0" points="221.6361,-40.5757 221,-30 214.9022,-38.6641 221.6361,-40.5757"/>
<text text-anchor="middle" x="178.5" y="-51.8" font-family="Times,serif" font-size="14.00" fill="#5b00c0">rw</text>
</g>
<!-- T52371&#45;&gt;T52370 -->
<g id="edge2" class="edge">
<title>T52371:f0&#45;&gt;T52370:f1</title>
<path fill="none" stroke="#5b00c0" d="M110,-30C110,-64.7122 154.4107,-33.6106 186,-48 205.3198,-56.8004 224.7855,-56.3307 230.3968,-71.0828"/>
<polygon fill="#5b00c0" stroke="#5b00c0" points="226.9489,-71.6867 232,-81 233.8592,-70.5696 226.9489,-71.6867"/>
<text text-anchor="middle" x="231.5" y="-51.8" font-family="Times,serif" font-size="14.00" fill="#5b00c0">rw</text>
</g>
</g>
</svg>
