<?xml version="1.0" encoding="UTF-8" standalone="no"?>
<!DOCTYPE svg PUBLIC "-//W3C//DTD SVG 1.1//EN"
 "http://www.w3.org/Graphics/SVG/1.1/DTD/svg11.dtd">
<!-- Generated by graphviz version 2.40.1 (20161225.0304)
 -->
<!-- Title: a_graph Pages: 1 -->
<svg width="478pt" height="200pt"
 viewBox="0.00 0.00 478.00 200.00" xmlns="http://www.w3.org/2000/svg" xmlns:xlink="http://www.w3.org/1999/xlink">
<g id="graph0" class="graph" transform="scale(1 1) rotate(0) translate(4 196)">
<title>a_graph</title>
<polygon fill="#ffffff" stroke="transparent" points="-4,4 -4,-196 474,-196 474,4 -4,4"/>
<!-- T229523 -->
<g id="node1" class="node">
<title>T229523</title>
<polygon fill="none" stroke="#0058ad" points="236.5,-162.5 236.5,-191.5 399.5,-191.5 399.5,-162.5 236.5,-162.5"/>
<text text-anchor="middle" x="282.5" y="-173.3" font-family="Times,serif" font-size="14.00" fill="#0058ad">r 2649 [1 4 5]</text>
<polyline fill="none" stroke="#0058ad" points="328.5,-162.5 328.5,-191.5 "/>
<text text-anchor="middle" x="364" y="-173.3" font-family="Times,serif" font-size="14.00" fill="#0058ad">a 2648 10</text>
</g>
<!-- T229517 -->
<g id="node2" class="node">
<title>T229517</title>
<polygon fill="none" stroke="#0058ad" points="0,-81.5 0,-110.5 412,-110.5 412,-81.5 0,-81.5"/>
<text text-anchor="middle" x="32" y="-92.3" font-family="Times,serif" font-size="14.00" fill="#0058ad">a 2649 9</text>
<polyline fill="none" stroke="#0058ad" points="64,-81.5 64,-110.5 "/>
<text text-anchor="middle" x="238" y="-92.3" font-family="Times,serif" font-size="14.00" fill="#0058ad">r 2646 [1 2 5 7 8 9 10 12 13 14 15 16 19 23 25 26 27 28 29]</text>
</g>
<!-- T229523&#45;&gt;T229517 -->
<g id="edge1" class="edge">
<title>T229523:f0&#45;&gt;T229517:f0</title>
<path fill="none" stroke="#5b00c0" d="M236,-177C191.7964,-177 54.0302,-161.2036 34.3495,-120.8749"/>
<polygon fill="#5b00c0" stroke="#5b00c0" points="37.7197,-119.9183 32,-111 30.9098,-121.5386 37.7197,-119.9183"/>
<text text-anchor="middle" x="67.5" y="-132.8" font-family="Times,serif" font-size="14.00" fill="#5b00c0">rw</text>
</g>
<!-- T229518 -->
<g id="node3" class="node">
<title>T229518</title>
<polygon fill="none" stroke="#0058ad" points="285,-.5 285,-29.5 469,-29.5 469,-.5 285,-.5"/>
<text text-anchor="middle" x="341.5" y="-11.3" font-family="Times,serif" font-size="14.00" fill="#0058ad">r 2648 [2 4 5 7 8]</text>
<polyline fill="none" stroke="#0058ad" points="398,-.5 398,-29.5 "/>
<text text-anchor="middle" x="433.5" y="-11.3" font-family="Times,serif" font-size="14.00" fill="#0058ad">a 2646 30</text>
</g>
<!-- T229517&#45;&gt;T229518 -->
<g id="edge2" class="edge">
<title>T229517:f1&#45;&gt;T229518:f1</title>
<path fill="none" stroke="#5b00c0" d="M412,-96C433.559,-96 410.2135,-67.6873 419,-48 421.321,-42.7995 425.5895,-41.0181 428.9813,-38.7684"/>
<polygon fill="#5b00c0" stroke="#5b00c0" points="432.0701,-40.4176 434,-30 425.9948,-36.9403 432.0701,-40.4176"/>
<text text-anchor="middle" x="426.5" y="-51.8" font-family="Times,serif" font-size="14.00" fill="#5b00c0">rw</text>
</g>
<!-- T229518&#45;&gt;T229523 -->
<g id="edge3" class="edge">
<title>T229518:f0&#45;&gt;T229523:f1</title>
<path fill="none" stroke="#5b00c0" d="M341,-30C341,-72.1004 407.2078,-15.525 434,-48 469.4477,-90.9664 460.6139,-167.0548 410.2537,-176.1111"/>
<polygon fill="#5b00c0" stroke="#5b00c0" points="409.6603,-172.6493 400,-177 410.265,-179.6232 409.6603,-172.6493"/>
<text text-anchor="middle" x="462.5" y="-92.3" font-family="Times,serif" font-size="14.00" fill="#5b00c0">rw</text>
</g>
</g>
</svg>
