<?xml version="1.0" encoding="UTF-8" standalone="no"?>
<!DOCTYPE svg PUBLIC "-//W3C//DTD SVG 1.1//EN"
 "http://www.w3.org/Graphics/SVG/1.1/DTD/svg11.dtd">
<!-- Generated by graphviz version 2.40.1 (20161225.0304)
 -->
<!-- Title: a_graph Pages: 1 -->
<svg width="530pt" height="281pt"
 viewBox="0.00 0.00 529.50 281.00" xmlns="http://www.w3.org/2000/svg" xmlns:xlink="http://www.w3.org/1999/xlink">
<g id="graph0" class="graph" transform="scale(1 1) rotate(0) translate(4 277)">
<title>a_graph</title>
<polygon fill="#ffffff" stroke="transparent" points="-4,4 -4,-277 525.5,-277 525.5,4 -4,4"/>
<!-- T77562 -->
<g id="node1" class="node">
<title>T77562</title>
<polygon fill="none" stroke="#0058ad" points="346.5,-243.5 346.5,-272.5 485.5,-272.5 485.5,-243.5 346.5,-243.5"/>
<text text-anchor="middle" x="384" y="-254.3" font-family="Times,serif" font-size="14.00" fill="#0058ad">r 898 [1 3]</text>
<polyline fill="none" stroke="#0058ad" points="421.5,-243.5 421.5,-272.5 "/>
<text text-anchor="middle" x="453.5" y="-254.3" font-family="Times,serif" font-size="14.00" fill="#0058ad">a 896 32</text>
</g>
<!-- T77561 -->
<g id="node2" class="node">
<title>T77561</title>
<polygon fill="none" stroke="#0058ad" points="0,-162.5 0,-191.5 416,-191.5 416,-162.5 0,-162.5"/>
<text text-anchor="middle" x="179.5" y="-173.3" font-family="Times,serif" font-size="14.00" fill="#0058ad">r 894 [4 5 6 7 8 9 10 11 13 14 15 16 17 18 19 20 21 22 24 26]</text>
<polyline fill="none" stroke="#0058ad" points="359,-162.5 359,-191.5 "/>
<text text-anchor="middle" x="387.5" y="-173.3" font-family="Times,serif" font-size="14.00" fill="#0058ad">a 898 5</text>
</g>
<!-- T77562&#45;&gt;T77561 -->
<g id="edge1" class="edge">
<title>T77562:f0&#45;&gt;T77561:f1</title>
<path fill="none" stroke="#5b00c0" d="M384,-243C384,-224.1715 386.7432,-217.1447 387.6861,-202.373"/>
<polygon fill="#5b00c0" stroke="#5b00c0" points="391.1959,-202.1013 388,-192 384.1991,-201.8895 391.1959,-202.1013"/>
<text text-anchor="middle" x="393.5" y="-213.8" font-family="Times,serif" font-size="14.00" fill="#5b00c0">rw</text>
</g>
<!-- T77559 -->
<g id="node4" class="node">
<title>T77559</title>
<polygon fill="none" stroke="#0058ad" points="98,-81.5 98,-110.5 302,-110.5 302,-81.5 98,-81.5"/>
<text text-anchor="middle" x="168" y="-92.3" font-family="Times,serif" font-size="14.00" fill="#0058ad">r 704 [14 15 27 28 29]</text>
<polyline fill="none" stroke="#0058ad" points="238,-81.5 238,-110.5 "/>
<text text-anchor="middle" x="270" y="-92.3" font-family="Times,serif" font-size="14.00" fill="#0058ad">a 894 27</text>
</g>
<!-- T77561&#45;&gt;T77559 -->
<g id="edge2" class="edge">
<title>T77561:f0&#45;&gt;T77559:f1</title>
<path fill="none" stroke="#5b00c0" d="M179,-162C179,-119.6213 255.0314,-150.8419 268.0993,-121.1131"/>
<polygon fill="#5b00c0" stroke="#5b00c0" points="271.5926,-121.4744 270,-111 264.7131,-120.1814 271.5926,-121.4744"/>
<text text-anchor="middle" x="267.5" y="-132.8" font-family="Times,serif" font-size="14.00" fill="#5b00c0">rw</text>
</g>
<!-- T77571 -->
<g id="node3" class="node">
<title>T77571</title>
<polygon fill="none" stroke="#0058ad" points="174.5,-.5 174.5,-29.5 521.5,-29.5 521.5,-.5 174.5,-.5"/>
<text text-anchor="middle" x="316" y="-11.3" font-family="Times,serif" font-size="14.00" fill="#0058ad">r 896 [1 2 4 6 7 8 9 11 14 15 16 18 19 23 25 30]</text>
<polyline fill="none" stroke="#0058ad" points="457.5,-.5 457.5,-29.5 "/>
<text text-anchor="middle" x="489.5" y="-11.3" font-family="Times,serif" font-size="14.00" fill="#0058ad">a 894 28</text>
</g>
<!-- T77571&#45;&gt;T77562 -->
<g id="edge3" class="edge">
<title>T77571:f0&#45;&gt;T77562:f1</title>
<path fill="none" stroke="#5b00c0" d="M316,-30C316,-57.1848 418.3698,-28.2028 437,-48 494.2906,-108.8792 457.1736,-152.4877 454.1865,-232.9954"/>
<polygon fill="#5b00c0" stroke="#5b00c0" points="450.6871,-232.9365 454,-243 457.6858,-233.067 450.6871,-232.9365"/>
<text text-anchor="middle" x="475.5" y="-132.8" font-family="Times,serif" font-size="14.00" fill="#5b00c0">rw</text>
</g>
<!-- T77559&#45;&gt;T77571 -->
<g id="edge4" class="edge">
<title>T77559:f1&#45;&gt;T77571:f1</title>
<path fill="none" stroke="#c02700" d="M302,-96C357.3846,-96 364.4023,-65.3475 417,-48 444.7679,-38.8417 479.8326,-57.5135 488.1649,-39.9382"/>
<polygon fill="#c02700" stroke="#c02700" points="491.6259,-40.4693 490,-30 484.7423,-39.1982 491.6259,-40.4693"/>
<text text-anchor="middle" x="427" y="-51.8" font-family="Times,serif" font-size="14.00" fill="#c02700">ww</text>
</g>
</g>
</svg>
