<?xml version="1.0" encoding="UTF-8" standalone="no"?>
<!DOCTYPE svg PUBLIC "-//W3C//DTD SVG 1.1//EN"
 "http://www.w3.org/Graphics/SVG/1.1/DTD/svg11.dtd">
<!-- Generated by graphviz version 2.40.1 (20161225.0304)
 -->
<!-- Title: a_graph Pages: 1 -->
<svg width="1022pt" height="362pt"
 viewBox="0.00 0.00 1021.50 362.00" xmlns="http://www.w3.org/2000/svg" xmlns:xlink="http://www.w3.org/1999/xlink">
<g id="graph0" class="graph" transform="scale(1 1) rotate(0) translate(4 358)">
<title>a_graph</title>
<polygon fill="#ffffff" stroke="transparent" points="-4,4 -4,-358 1017.5,-358 1017.5,4 -4,4"/>
<!-- T212723 -->
<g id="node1" class="node">
<title>T212723</title>
<polygon fill="none" stroke="#0058ad" points="0,-324.5 0,-353.5 285,-353.5 285,-324.5 0,-324.5"/>
<text text-anchor="middle" x="70.5" y="-335.3" font-family="Times,serif" font-size="14.00" fill="#0058ad">r 2450 [1 2 3 4 5 8 10]</text>
<polyline fill="none" stroke="#0058ad" points="141,-324.5 141,-353.5 "/>
<text text-anchor="middle" x="213" y="-335.3" font-family="Times,serif" font-size="14.00" fill="#0058ad">r 2456 [2 3 8 11 14 17]</text>
</g>
<!-- T212735 -->
<g id="node6" class="node">
<title>T212735</title>
<polygon fill="none" stroke="#0058ad" points="320.5,-243.5 320.5,-272.5 532.5,-272.5 532.5,-243.5 320.5,-243.5"/>
<text text-anchor="middle" x="391" y="-254.3" font-family="Times,serif" font-size="14.00" fill="#0058ad">r 2455 [1 2 4 5 7 9 13]</text>
<polyline fill="none" stroke="#0058ad" points="461.5,-243.5 461.5,-272.5 "/>
<text text-anchor="middle" x="497" y="-254.3" font-family="Times,serif" font-size="14.00" fill="#0058ad">a 2456 18</text>
</g>
<!-- T212723&#45;&gt;T212735 -->
<g id="edge1" class="edge">
<title>T212723:f1&#45;&gt;T212735:f1</title>
<path fill="none" stroke="#5b00c0" d="M285.5,-339C331.372,-339 475.1863,-324.6016 495.1835,-282.9288"/>
<polygon fill="#5b00c0" stroke="#5b00c0" points="498.6362,-283.5337 497.5,-273 491.8193,-281.9432 498.6362,-283.5337"/>
<text text-anchor="middle" x="497" y="-294.8" font-family="Times,serif" font-size="14.00" fill="#5b00c0">rw</text>
</g>
<!-- T212721 -->
<g id="node2" class="node">
<title>T212721</title>
<polygon fill="none" stroke="#0058ad" points="869.5,-.5 869.5,-29.5 1013.5,-29.5 1013.5,-.5 869.5,-.5"/>
<text text-anchor="middle" x="941.5" y="-11.3" font-family="Times,serif" font-size="14.00" fill="#0058ad">r 2456 [2 3 8 11 14 17]</text>
</g>
<!-- T212721&#45;&gt;T212735 -->
<g id="edge2" class="edge">
<title>T212721:f0&#45;&gt;T212735:f1</title>
<path fill="none" stroke="#5b00c0" d="M928.72,-29.8349C882.6581,-81.5891 718.5577,-251.364 542.7511,-257.8112"/>
<polygon fill="#5b00c0" stroke="#5b00c0" points="542.4338,-254.3164 532.5,-258 542.5628,-261.3152 542.4338,-254.3164"/>
<text text-anchor="middle" x="830" y="-132.8" font-family="Times,serif" font-size="14.00" fill="#5b00c0">rw</text>
</g>
<!-- T212727 -->
<g id="node3" class="node">
<title>T212727</title>
<polygon fill="none" stroke="#0058ad" points="225.5,-162.5 225.5,-191.5 423.5,-191.5 423.5,-162.5 225.5,-162.5"/>
<text text-anchor="middle" x="261" y="-173.3" font-family="Times,serif" font-size="14.00" fill="#0058ad">a 2455 17</text>
<polyline fill="none" stroke="#0058ad" points="296.5,-162.5 296.5,-191.5 "/>
<text text-anchor="middle" x="360" y="-173.3" font-family="Times,serif" font-size="14.00" fill="#0058ad">r 2456 [2 3 8 11 14]</text>
</g>
<!-- T212719 -->
<g id="node4" class="node">
<title>T212719</title>
<polygon fill="none" stroke="#0058ad" points="449,-81.5 449,-110.5 520,-110.5 520,-81.5 449,-81.5"/>
<text text-anchor="middle" x="484.5" y="-92.3" font-family="Times,serif" font-size="14.00" fill="#0058ad">a 2456 17</text>
</g>
<!-- T212727&#45;&gt;T212719 -->
<g id="edge3" class="edge">
<title>T212727:f1&#45;&gt;T212719:f0</title>
<path fill="none" stroke="#5b00c0" d="M423.5,-177C437.9533,-177 458.9619,-143.6752 472.17,-119.7758"/>
<polygon fill="#5b00c0" stroke="#5b00c0" points="475.3143,-121.3191 476.9839,-110.8566 469.1542,-117.9943 475.3143,-121.3191"/>
<text text-anchor="middle" x="475" y="-132.8" font-family="Times,serif" font-size="14.00" fill="#5b00c0">rw</text>
</g>
<!-- T212719&#45;&gt;T212723 -->
<g id="edge7" class="edge">
<title>T212719:f0&#45;&gt;T212723:f1</title>
<path fill="none" stroke="#c000a5" d="M451.0183,-110.5025C450.51,-110.6726 450.0036,-110.8386 449.5,-111 348.5519,-143.3575 283.7249,-80.0345 216.5,-162 173.0629,-214.9617 209.5439,-248.5864 213.2101,-313.7141"/>
<polygon fill="#c000a5" stroke="#c000a5" points="209.7195,-314.1026 213.5,-324 216.7168,-313.9053 209.7195,-314.1026"/>
<text text-anchor="middle" x="204" y="-213.8" font-family="Times,serif" font-size="14.00" fill="#c000a5">wr</text>
</g>
<!-- T212719&#45;&gt;T212721 -->
<g id="edge4" class="edge">
<title>T212719:f0&#45;&gt;T212721:f0</title>
<path fill="none" stroke="#c000a5" d="M517.9648,-81.4412C518.4784,-81.2887 518.9904,-81.1414 519.5,-81 576.1288,-65.2836 592.3311,-71.3786 650.5,-63 744.5967,-49.4465 770.8414,-47.5011 862.205,-31.2945"/>
<polygon fill="#c000a5" stroke="#c000a5" points="862.9257,-34.7212 872.1554,-29.5191 861.6961,-27.8301 862.9257,-34.7212"/>
<text text-anchor="middle" x="764" y="-51.8" font-family="Times,serif" font-size="14.00" fill="#c000a5">wr</text>
</g>
<!-- T212733 -->
<g id="node5" class="node">
<title>T212733</title>
<polygon fill="none" stroke="#0058ad" points="401.5,-.5 401.5,-29.5 689.5,-29.5 689.5,-.5 401.5,-.5"/>
<text text-anchor="middle" x="473.5" y="-11.3" font-family="Times,serif" font-size="14.00" fill="#0058ad">r 2456 [2 3 8 11 14 17]</text>
<polyline fill="none" stroke="#0058ad" points="545.5,-.5 545.5,-29.5 "/>
<text text-anchor="middle" x="617.5" y="-11.3" font-family="Times,serif" font-size="14.00" fill="#0058ad">r 2456 [2 3 8 11 14 17]</text>
</g>
<!-- T212719&#45;&gt;T212733 -->
<g id="edge6" class="edge">
<title>T212719:f0&#45;&gt;T212733:f0</title>
<path fill="none" stroke="#c000a5" d="M480.6527,-81.4363C478.0754,-70.6326 474.9643,-55.2386 473.8883,-40.2503"/>
<polygon fill="#c000a5" stroke="#c000a5" points="477.3761,-39.8603 473.5,-30 470.3811,-40.1253 477.3761,-39.8603"/>
<text text-anchor="middle" x="485" y="-51.8" font-family="Times,serif" font-size="14.00" fill="#c000a5">wr</text>
</g>
<!-- T212719&#45;&gt;T212735 -->
<g id="edge5" class="edge">
<title>T212719:f0&#45;&gt;T212735:f1</title>
<path fill="none" stroke="#c02700" d="M486.6467,-110.5674C490.0866,-135.1243 496.5372,-186.6192 497.403,-232.9075"/>
<polygon fill="#c02700" stroke="#c02700" points="493.904,-233.0341 497.5,-243 500.9036,-232.9668 493.904,-233.0341"/>
<text text-anchor="middle" x="505.5" y="-173.3" font-family="Times,serif" font-size="14.00" fill="#c02700">ww</text>
</g>
<!-- T212729 -->
<g id="node7" class="node">
<title>T212729</title>
<polygon fill="none" stroke="#0058ad" points="707.5,-.5 707.5,-29.5 851.5,-29.5 851.5,-.5 707.5,-.5"/>
<text text-anchor="middle" x="779.5" y="-11.3" font-family="Times,serif" font-size="14.00" fill="#0058ad">r 2456 [2 3 8 11 14 17]</text>
</g>
<!-- T212719&#45;&gt;T212729 -->
<g id="edge8" class="edge">
<title>T212719:f0&#45;&gt;T212729:f0</title>
<path fill="none" stroke="#c000a5" d="M518.3684,-81.3886C518.747,-81.2569 519.1243,-81.1273 519.5,-81 579.0644,-60.8142 648.1388,-43.5588 700.114,-31.7594"/>
<polygon fill="#c000a5" stroke="#c000a5" points="700.9559,-35.1575 709.9431,-29.5467 699.4185,-28.3284 700.9559,-35.1575"/>
<text text-anchor="middle" x="639" y="-51.8" font-family="Times,serif" font-size="14.00" fill="#c000a5">wr</text>
</g>
<!-- T212725 -->
<g id="node8" class="node">
<title>T212725</title>
<polygon fill="none" stroke="#0058ad" points="239.5,-.5 239.5,-29.5 383.5,-29.5 383.5,-.5 239.5,-.5"/>
<text text-anchor="middle" x="311.5" y="-11.3" font-family="Times,serif" font-size="14.00" fill="#0058ad">r 2456 [2 3 8 11 14 17]</text>
</g>
<!-- T212719&#45;&gt;T212725 -->
<g id="edge9" class="edge">
<title>T212719:f0&#45;&gt;T212725:f0</title>
<path fill="none" stroke="#c000a5" d="M471.9406,-81.4172C461.9803,-70.7161 447.1695,-56.6041 431.5,-48 422.6296,-43.1293 404.1842,-37.4047 384.3585,-32.1033"/>
<polygon fill="#c000a5" stroke="#c000a5" points="385.111,-28.6825 374.551,-29.5404 383.3411,-35.4551 385.111,-28.6825"/>
<text text-anchor="middle" x="460" y="-51.8" font-family="Times,serif" font-size="14.00" fill="#c000a5">wr</text>
</g>
<!-- T212733&#45;&gt;T212735 -->
<g id="edge10" class="edge">
<title>T212733:f0&#45;&gt;T212735:f1</title>
<path fill="none" stroke="#5b00c0" d="M473.5,-30C473.5,-42.9805 486.7817,-39.3949 496.5,-48 512.029,-61.7503 521.3854,-61.9114 529.5,-81 562.4776,-158.5757 546.812,-225.9144 537.4329,-249.2593"/>
<polygon fill="#5b00c0" stroke="#5b00c0" points="534.3669,-247.5709 532.5,-258 540.4631,-251.0114 534.3669,-247.5709"/>
<text text-anchor="middle" x="554" y="-132.8" font-family="Times,serif" font-size="14.00" fill="#5b00c0">rw</text>
</g>
<!-- T212735&#45;&gt;T212727 -->
<g id="edge11" class="edge">
<title>T212735:f0&#45;&gt;T212727:f0</title>
<path fill="none" stroke="#5b00c0" d="M320.5,-258C284.4188,-258 264.3136,-236.1661 260.9922,-202.3538"/>
<polygon fill="#5b00c0" stroke="#5b00c0" points="264.471,-201.8225 260.5,-192 257.4789,-202.1549 264.471,-201.8225"/>
<text text-anchor="middle" x="274" y="-213.8" font-family="Times,serif" font-size="14.00" fill="#5b00c0">rw</text>
</g>
<!-- T212729&#45;&gt;T212735 -->
<g id="edge12" class="edge">
<title>T212729:f0&#45;&gt;T212735:f1</title>
<path fill="none" stroke="#5b00c0" d="M768.8597,-29.8349C732.3447,-80.0177 610.6387,-241.1629 542.5442,-256.7801"/>
<polygon fill="#5b00c0" stroke="#5b00c0" points="542.005,-253.3198 532.5,-258 542.8491,-260.2687 542.005,-253.3198"/>
<text text-anchor="middle" x="697" y="-132.8" font-family="Times,serif" font-size="14.00" fill="#5b00c0">rw</text>
</g>
<!-- T212725&#45;&gt;T212735 -->
<g id="edge13" class="edge">
<title>T212725:f0&#45;&gt;T212735:f1</title>
<path fill="none" stroke="#5b00c0" d="M325.177,-29.5109C364.3561,-71.3357 475.427,-191.7899 494.6485,-233.3306"/>
<polygon fill="#5b00c0" stroke="#5b00c0" points="491.3143,-234.3984 497.5,-243 498.0284,-232.4184 491.3143,-234.3984"/>
<text text-anchor="middle" x="436" y="-132.8" font-family="Times,serif" font-size="14.00" fill="#5b00c0">rw</text>
</g>
</g>
</svg>
