<?xml version="1.0" encoding="UTF-8" standalone="no"?>
<!DOCTYPE svg PUBLIC "-//W3C//DTD SVG 1.1//EN"
 "http://www.w3.org/Graphics/SVG/1.1/DTD/svg11.dtd">
<!-- Generated by graphviz version 2.40.1 (20161225.0304)
 -->
<!-- Title: a_graph Pages: 1 -->
<svg width="358pt" height="119pt"
 viewBox="0.00 0.00 358.00 119.00" xmlns="http://www.w3.org/2000/svg" xmlns:xlink="http://www.w3.org/1999/xlink">
<g id="graph0" class="graph" transform="scale(1 1) rotate(0) translate(4 115)">
<title>a_graph</title>
<polygon fill="#ffffff" stroke="transparent" points="-4,4 -4,-115 354,-115 354,4 -4,4"/>
<!-- T118756 -->
<g id="node1" class="node">
<title>T118756</title>
<polygon fill="none" stroke="#0058ad" points="0,-81.5 0,-110.5 350,-110.5 350,-81.5 0,-81.5"/>
<text text-anchor="middle" x="139.5" y="-92.3" font-family="Times,serif" font-size="14.00" fill="#0058ad">r 1374 [1 3 4 6 7 9 10 11 13 14 15 16 17 18 19]</text>
<polyline fill="none" stroke="#0058ad" points="279,-81.5 279,-110.5 "/>
<text text-anchor="middle" x="314.5" y="-92.3" font-family="Times,serif" font-size="14.00" fill="#0058ad">a 1375 30</text>
</g>
<!-- T118754 -->
<g id="node2" class="node">
<title>T118754</title>
<polygon fill="none" stroke="#0058ad" points="54.5,-.5 54.5,-29.5 331.5,-29.5 331.5,-.5 54.5,-.5"/>
<text text-anchor="middle" x="157.5" y="-11.3" font-family="Times,serif" font-size="14.00" fill="#0058ad">r 1375 [2 3 5 8 13 16 20 24 27 28]</text>
<polyline fill="none" stroke="#0058ad" points="260.5,-.5 260.5,-29.5 "/>
<text text-anchor="middle" x="296" y="-11.3" font-family="Times,serif" font-size="14.00" fill="#0058ad">a 1374 20</text>
</g>
<!-- T118756&#45;&gt;T118754 -->
<g id="edge1" class="edge">
<title>T118756:f0&#45;&gt;T118754:f1</title>
<path fill="none" stroke="#5b00c0" d="M139,-81C139,-77.0952 252.8499,-46.1828 286.6491,-34.2602"/>
<polygon fill="#5b00c0" stroke="#5b00c0" points="288.351,-37.331 296,-30 285.4488,-30.9609 288.351,-37.331"/>
<text text-anchor="middle" x="247.5" y="-51.8" font-family="Times,serif" font-size="14.00" fill="#5b00c0">rw</text>
</g>
<!-- T118754&#45;&gt;T118756 -->
<g id="edge2" class="edge">
<title>T118754:f0&#45;&gt;T118756:f1</title>
<path fill="none" stroke="#5b00c0" d="M157,-30C157,-52.7981 236.5886,-40.1701 258,-48 281.8408,-56.7183 307.1975,-53.1188 313.5124,-71.0987"/>
<polygon fill="#5b00c0" stroke="#5b00c0" points="310.053,-71.631 315,-81 316.9753,-70.5909 310.053,-71.631"/>
<text text-anchor="middle" x="314.5" y="-51.8" font-family="Times,serif" font-size="14.00" fill="#5b00c0">rw</text>
</g>
</g>
</svg>
