<?xml version="1.0" encoding="UTF-8" standalone="no"?>
<!DOCTYPE svg PUBLIC "-//W3C//DTD SVG 1.1//EN"
 "http://www.w3.org/Graphics/SVG/1.1/DTD/svg11.dtd">
<!-- Generated by graphviz version 2.40.1 (20161225.0304)
 -->
<!-- Title: a_graph Pages: 1 -->
<svg width="161pt" height="119pt"
 viewBox="0.00 0.00 161.00 119.00" xmlns="http://www.w3.org/2000/svg" xmlns:xlink="http://www.w3.org/1999/xlink">
<g id="graph0" class="graph" transform="scale(1 1) rotate(0) translate(4 115)">
<title>a_graph</title>
<polygon fill="#ffffff" stroke="transparent" points="-4,4 -4,-115 157,-115 157,4 -4,4"/>
<!-- T69687 -->
<g id="node1" class="node">
<title>T69687</title>
<polygon fill="none" stroke="#0058ad" points="1.5,-81.5 1.5,-110.5 147.5,-110.5 147.5,-81.5 1.5,-81.5"/>
<text text-anchor="middle" x="33.5" y="-92.3" font-family="Times,serif" font-size="14.00" fill="#0058ad">a 802 31</text>
<polyline fill="none" stroke="#0058ad" points="65.5,-81.5 65.5,-110.5 "/>
<text text-anchor="middle" x="106.5" y="-92.3" font-family="Times,serif" font-size="14.00" fill="#0058ad">r 807 [9 10]</text>
</g>
<!-- T69685 -->
<g id="node2" class="node">
<title>T69685</title>
<polygon fill="none" stroke="#0058ad" points="0,-.5 0,-29.5 153,-29.5 153,-.5 0,-.5"/>
<text text-anchor="middle" x="32" y="-11.3" font-family="Times,serif" font-size="14.00" fill="#0058ad">a 807 13</text>
<polyline fill="none" stroke="#0058ad" points="64,-.5 64,-29.5 "/>
<text text-anchor="middle" x="108.5" y="-11.3" font-family="Times,serif" font-size="14.00" fill="#0058ad">r 802 [28 30]</text>
</g>
<!-- T69687&#45;&gt;T69685 -->
<g id="edge1" class="edge">
<title>T69687:f1&#45;&gt;T69685:f0</title>
<path fill="none" stroke="#5b00c0" d="M106.5,-81C106.5,-56.1986 82.1555,-61.7281 61.5,-48 52.5969,-42.0828 41.7559,-43.1434 35.8497,-39.3313"/>
<polygon fill="#5b00c0" stroke="#5b00c0" points="38.8973,-37.5849 31.5,-30 32.5527,-40.5424 38.8973,-37.5849"/>
<text text-anchor="middle" x="104" y="-51.8" font-family="Times,serif" font-size="14.00" fill="#5b00c0">rw</text>
</g>
<!-- T69685&#45;&gt;T69687 -->
<g id="edge2" class="edge">
<title>T69685:f1&#45;&gt;T69687:f0</title>
<path fill="none" stroke="#5b00c0" d="M108.5,-30C108.5,-60.4047 63.9994,-26.5006 42.5,-48 34.4377,-56.0623 33.4064,-62.0423 33.3946,-70.9419"/>
<polygon fill="#5b00c0" stroke="#5b00c0" points="29.8953,-71.0373 33.5,-81 36.8949,-70.9638 29.8953,-71.0373"/>
<text text-anchor="middle" x="50" y="-51.8" font-family="Times,serif" font-size="14.00" fill="#5b00c0">rw</text>
</g>
</g>
</svg>
