<?xml version="1.0" encoding="UTF-8" standalone="no"?>
<!DOCTYPE svg PUBLIC "-//W3C//DTD SVG 1.1//EN"
 "http://www.w3.org/Graphics/SVG/1.1/DTD/svg11.dtd">
<!-- Generated by graphviz version 2.40.1 (20161225.0304)
 -->
<!-- Title: a_graph Pages: 1 -->
<svg width="450pt" height="200pt"
 viewBox="0.00 0.00 449.50 200.00" xmlns="http://www.w3.org/2000/svg" xmlns:xlink="http://www.w3.org/1999/xlink">
<g id="graph0" class="graph" transform="scale(1 1) rotate(0) translate(4 196)">
<title>a_graph</title>
<polygon fill="#ffffff" stroke="transparent" points="-4,4 -4,-196 445.5,-196 445.5,4 -4,4"/>
<!-- T230876 -->
<g id="node1" class="node">
<title>T230876</title>
<polygon fill="none" stroke="#0058ad" points="291.5,-162.5 291.5,-191.5 420.5,-191.5 420.5,-162.5 291.5,-162.5"/>
<text text-anchor="middle" x="324" y="-173.3" font-family="Times,serif" font-size="14.00" fill="#0058ad">r 2666 []</text>
<polyline fill="none" stroke="#0058ad" points="356.5,-162.5 356.5,-191.5 "/>
<text text-anchor="middle" x="388.5" y="-173.3" font-family="Times,serif" font-size="14.00" fill="#0058ad">a 2665 7</text>
</g>
<!-- T230861 -->
<g id="node3" class="node">
<title>T230861</title>
<polygon fill="none" stroke="#0058ad" points="0,-81.5 0,-110.5 354,-110.5 354,-81.5 0,-81.5"/>
<text text-anchor="middle" x="145" y="-92.3" font-family="Times,serif" font-size="14.00" fill="#0058ad">r 2661 [1 2 4 6 7 8 9 10 11 12 13 14 18 21 22 23]</text>
<polyline fill="none" stroke="#0058ad" points="290,-81.5 290,-110.5 "/>
<text text-anchor="middle" x="322" y="-92.3" font-family="Times,serif" font-size="14.00" fill="#0058ad">a 2666 1</text>
</g>
<!-- T230876&#45;&gt;T230861 -->
<g id="edge1" class="edge">
<title>T230876:f0&#45;&gt;T230861:f1</title>
<path fill="none" stroke="#5b00c0" d="M324,-162C324,-143.2147 322.6284,-136.1238 322.1569,-121.3584"/>
<polygon fill="#5b00c0" stroke="#5b00c0" points="325.6512,-120.9458 322,-111 318.652,-121.0519 325.6512,-120.9458"/>
<text text-anchor="middle" x="331.5" y="-132.8" font-family="Times,serif" font-size="14.00" fill="#5b00c0">rw</text>
</g>
<!-- T230863 -->
<g id="node2" class="node">
<title>T230863</title>
<polygon fill="none" stroke="#0058ad" points="278.5,-.5 278.5,-29.5 441.5,-29.5 441.5,-.5 278.5,-.5"/>
<text text-anchor="middle" x="324.5" y="-11.3" font-family="Times,serif" font-size="14.00" fill="#0058ad">r 2665 [1 2 3]</text>
<polyline fill="none" stroke="#0058ad" points="370.5,-.5 370.5,-29.5 "/>
<text text-anchor="middle" x="406" y="-11.3" font-family="Times,serif" font-size="14.00" fill="#0058ad">r 2666 [1]</text>
</g>
<!-- T230863&#45;&gt;T230876 -->
<g id="edge2" class="edge">
<title>T230863:f0&#45;&gt;T230876:f1</title>
<path fill="none" stroke="#5b00c0" d="M324,-30C324,-54.4566 360.7067,-28.915 376,-48 405.7086,-85.0744 391.3451,-107.7542 389.2425,-151.9174"/>
<polygon fill="#5b00c0" stroke="#5b00c0" points="385.7416,-151.9187 389,-162 392.7396,-152.0871 385.7416,-151.9187"/>
<text text-anchor="middle" x="401.5" y="-92.3" font-family="Times,serif" font-size="14.00" fill="#5b00c0">rw</text>
</g>
<!-- T230861&#45;&gt;T230863 -->
<g id="edge3" class="edge">
<title>T230861:f1&#45;&gt;T230863:f1</title>
<path fill="none" stroke="#c000a5" d="M322,-81C322,-58.2942 341.5411,-59.7008 361,-48 375.4221,-39.3279 394.7755,-46.367 402.5525,-39.5902"/>
<polygon fill="#c000a5" stroke="#c000a5" points="405.9107,-40.5945 406,-30 399.3234,-38.2264 405.9107,-40.5945"/>
<text text-anchor="middle" x="368.5" y="-51.8" font-family="Times,serif" font-size="14.00" fill="#c000a5">wr</text>
</g>
</g>
</svg>
