<?xml version="1.0" encoding="UTF-8" standalone="no"?>
<!DOCTYPE svg PUBLIC "-//W3C//DTD SVG 1.1//EN"
 "http://www.w3.org/Graphics/SVG/1.1/DTD/svg11.dtd">
<!-- Generated by graphviz version 2.40.1 (20161225.0304)
 -->
<!-- Title: a_graph Pages: 1 -->
<svg width="161pt" height="119pt"
 viewBox="0.00 0.00 161.00 119.00" xmlns="http://www.w3.org/2000/svg" xmlns:xlink="http://www.w3.org/1999/xlink">
<g id="graph0" class="graph" transform="scale(1 1) rotate(0) translate(4 115)">
<title>a_graph</title>
<polygon fill="#ffffff" stroke="transparent" points="-4,4 -4,-115 157,-115 157,4 -4,4"/>
<!-- T77596 -->
<g id="node1" class="node">
<title>T77596</title>
<polygon fill="none" stroke="#0058ad" points="0,-81.5 0,-110.5 153,-110.5 153,-81.5 0,-81.5"/>
<text text-anchor="middle" x="28.5" y="-92.3" font-family="Times,serif" font-size="14.00" fill="#0058ad">a 899 4</text>
<polyline fill="none" stroke="#0058ad" points="57,-81.5 57,-110.5 "/>
<text text-anchor="middle" x="105" y="-92.3" font-family="Times,serif" font-size="14.00" fill="#0058ad">r 898 [1 3 5 8]</text>
</g>
<!-- T77601 -->
<g id="node2" class="node">
<title>T77601</title>
<polygon fill="none" stroke="#0058ad" points="4,-.5 4,-29.5 133,-29.5 133,-.5 4,-.5"/>
<text text-anchor="middle" x="36.5" y="-11.3" font-family="Times,serif" font-size="14.00" fill="#0058ad">r 899 [1]</text>
<polyline fill="none" stroke="#0058ad" points="69,-.5 69,-29.5 "/>
<text text-anchor="middle" x="101" y="-11.3" font-family="Times,serif" font-size="14.00" fill="#0058ad">a 898 10</text>
</g>
<!-- T77596&#45;&gt;T77601 -->
<g id="edge1" class="edge">
<title>T77596:f1&#45;&gt;T77601:f1</title>
<path fill="none" stroke="#5b00c0" d="M105.5,-81C105.5,-62.1715 102.7568,-55.1447 101.8139,-40.373"/>
<polygon fill="#5b00c0" stroke="#5b00c0" points="105.3009,-39.8895 101.5,-30 98.3041,-40.1013 105.3009,-39.8895"/>
<text text-anchor="middle" x="111" y="-51.8" font-family="Times,serif" font-size="14.00" fill="#5b00c0">rw</text>
</g>
<!-- T77601&#45;&gt;T77596 -->
<g id="edge2" class="edge">
<title>T77601:f0&#45;&gt;T77596:f0</title>
<path fill="none" stroke="#5b00c0" d="M36.5,-30C36.5,-49.1796 30.9097,-55.8987 29.0753,-70.9897"/>
<polygon fill="#5b00c0" stroke="#5b00c0" points="25.5797,-70.8156 28.5,-81 32.5681,-71.2173 25.5797,-70.8156"/>
<text text-anchor="middle" x="42" y="-51.8" font-family="Times,serif" font-size="14.00" fill="#5b00c0">rw</text>
</g>
</g>
</svg>
