<?xml version="1.0" encoding="UTF-8" standalone="no"?>
<!DOCTYPE svg PUBLIC "-//W3C//DTD SVG 1.1//EN"
 "http://www.w3.org/Graphics/SVG/1.1/DTD/svg11.dtd">
<!-- Generated by graphviz version 2.40.1 (20161225.0304)
 -->
<!-- Title: a_graph Pages: 1 -->
<svg width="325pt" height="119pt"
 viewBox="0.00 0.00 324.50 119.00" xmlns="http://www.w3.org/2000/svg" xmlns:xlink="http://www.w3.org/1999/xlink">
<g id="graph0" class="graph" transform="scale(1 1) rotate(0) translate(4 115)">
<title>a_graph</title>
<polygon fill="#ffffff" stroke="transparent" points="-4,4 -4,-115 320.5,-115 320.5,4 -4,4"/>
<!-- T230214 -->
<g id="node1" class="node">
<title>T230214</title>
<polygon fill="none" stroke="#0058ad" points="0,-81.5 0,-110.5 315,-110.5 315,-81.5 0,-81.5"/>
<text text-anchor="middle" x="125.5" y="-92.3" font-family="Times,serif" font-size="14.00" fill="#0058ad">r 2653 [2 3 7 8 9 12 15 17 21 23 25 29 30]</text>
<polyline fill="none" stroke="#0058ad" points="251,-81.5 251,-110.5 "/>
<text text-anchor="middle" x="283" y="-92.3" font-family="Times,serif" font-size="14.00" fill="#0058ad">a 2658 9</text>
</g>
<!-- T230208 -->
<g id="node2" class="node">
<title>T230208</title>
<polygon fill="none" stroke="#0058ad" points="142.5,-.5 142.5,-29.5 316.5,-29.5 316.5,-.5 142.5,-.5"/>
<text text-anchor="middle" x="178" y="-11.3" font-family="Times,serif" font-size="14.00" fill="#0058ad">a 2653 32</text>
<polyline fill="none" stroke="#0058ad" points="213.5,-.5 213.5,-29.5 "/>
<text text-anchor="middle" x="265" y="-11.3" font-family="Times,serif" font-size="14.00" fill="#0058ad">r 2658 [1 3 6 7]</text>
</g>
<!-- T230214&#45;&gt;T230208 -->
<g id="edge1" class="edge">
<title>T230214:f0&#45;&gt;T230208:f0</title>
<path fill="none" stroke="#5b00c0" d="M125.5,-81C125.5,-54.7322 115.5052,-24.3897 132.604,-16.7933"/>
<polygon fill="#5b00c0" stroke="#5b00c0" points="133.2844,-20.2271 142.5,-15 132.0361,-13.3393 133.2844,-20.2271"/>
<text text-anchor="middle" x="132" y="-51.8" font-family="Times,serif" font-size="14.00" fill="#5b00c0">rw</text>
</g>
<!-- T230208&#45;&gt;T230214 -->
<g id="edge2" class="edge">
<title>T230208:f1&#45;&gt;T230214:f1</title>
<path fill="none" stroke="#5b00c0" d="M265.5,-30C265.5,-50.0934 278.0782,-55.4347 282.2055,-70.6875"/>
<polygon fill="#5b00c0" stroke="#5b00c0" points="278.7817,-71.5138 283.5,-81 285.7271,-70.6419 278.7817,-71.5138"/>
<text text-anchor="middle" x="286" y="-51.8" font-family="Times,serif" font-size="14.00" fill="#5b00c0">rw</text>
</g>
</g>
</svg>
